{
.appVersion = "3241";
DisplayStrings = (
"alo/space n",
"Bs/space H=0óM/two.osf",
"øØ",
"Digginm/space st/space/S_T.liga t"
);
classes = (
{
automatic = 1;
code = "A Aacute Abreve Acaron Acircumflex Adieresis Agrave Amacron Aogonek Aring Atilde AE B C Cacute Ccaron Ccedilla Cdotaccent D Dcaron Dcroat Eth E Eacute Ecaron Ecircumflex Edieresis Edotaccent Egrave Emacron Eogonek Etilde F G Gbreve Gcommaaccent Gdotaccent Gmacron H I IJ Iacute Icircumflex Idieresis Igrave Imacron Iogonek Itilde J Jacute K Kcommaaccent L Lacute Lcaron Lcommaaccent Lslash M N Nacute Ncaron Ncommaaccent Ntilde O Oacute Ocircumflex Odieresis Ograve Ohungarumlaut Omacron Oogonek Oslash Otilde OE P Thorn Q R Racute Rcaron Rcommaaccent S Sacute Scaron Scedilla Germandbls T Tcaron Tcedilla U Uacute Ucircumflex Udieresis Ugrave Uhungarumlaut Umacron Uogonek Uring Utilde V W Wacute Wcircumflex Wdieresis Wgrave X Y Yacute Ycircumflex Ydieresis Ygrave Ytilde Z Zacute Zcaron Zdotaccent S_T S_T.liga a aacute abreve acaron acircumflex adieresis agrave amacron aogonek aring atilde ae b c cacute ccaron ccedilla cdotaccent d dcaron dcroat eth e eacute ecaron ecircumflex edieresis edotaccent egrave emacron eogonek etilde f g gbreve gcommaaccent gdotaccent gmacron h i idotless iacute icircumflex idieresis igrave imacron iogonek itilde ij j jdotless jacute k kcommaaccent l lacute lcaron lcommaaccent lslash m n nacute ncaron ncommaaccent ntilde o oacute ocircumflex odieresis ograve ohungarumlaut omacron oogonek oslash otilde oe p thorn q r racute rcaron rcommaaccent s sacute scaron scedilla germandbls t tcaron tcedilla u uacute ucircumflex udieresis ugrave uhungarumlaut umacron uogonek uring utilde v w wacute wcircumflex wdieresis wgrave x y yacute ycircumflex ydieresis ygrave ytilde z zacute zcaron zdotaccent f_i";
name = AllLetters;
},
{
automatic = 1;

glyphs = (
{
glyphname = A;
lastChange = "2024-01-24 18:57:52 +0000";
layers = (
{
anchors = (
{
name = bottom;
position = "{83, 0}";
},
{
name = ogonek;
position = "{142, 10}";
},
{
name = top;
position = "{91, 680}";
}
);
background = {
paths = (
{
closed = 0;
nodes = (
"4 -10 LINE"
);
}
);
};
guideLines = (
{
angle = 90;
position = "{81, 89}";
}
);
layerId = "03715FCC-FE87-43AF-962B-9C8D97F38189";
paths = (
{
closed = 1;
nodes = (
"-37 0 LINE",
"85 0 LINE",
"43 -10 LINE",
"80 640 LINE",
"84 640 LINE",
"122 -10 LINE",
"61 0 LINE",
"190 0 LINE",
"162 -10 LINE",
"115 680 LINE",
"71 680 LINE",
"4 -10 LINE"
);
},
{
closed = 1;
nodes = (
"122 263 LINE",
"122 273 LINE",
"45 273 LINE",
"45 263 LINE"
);
}
);
userData = {
com.hugojourdan.ColorFlow = {
"0" = 0;
"1" = 0;
"10" = 0;
"11" = 0;
"2" = 0;
"3" = 0;
"4" = 0;
"5" = 0;
"6" = 0;
"7" = 0;
"8" = 0;
"9" = 0;
};
};
width = 166;
}
);
leftKerningGroup = A;
rightKerningGroup = A;
unicode = 0041;
},
{
glyphname = AE;
lastChange = "2024-01-24 20:47:58 +0000";
layers = (
{
anchors = (
{
name = bottom;
position = "{120, 0}";
},
{
name = top;
position = "{120, 680}";
}
);
components = (
{
alignment = -1;
name = E;
transform = "{1, 0, 0, 1, 98, 0}";
}
);
layerId = "03715FCC-FE87-43AF-962B-9C8D97F38189";
paths = (
{
closed = 1;
nodes = (
"44 0 LINE",
"115 640 LINE",
"137 640 LINE",
"137 680 LINE",
"110 680 LINE",
"5 0 LINE"
);
},
{
closed = 1;
nodes = (
"154 270 LINE",
"154 280 LINE",
"64 280 LINE",
"64 270 LINE"
);
}
);
userData = {
com.hugojourdan.ColorFlow = {
"0" = 0;
"1" = 0;
"10" = 0;
"11" = 0;
"2" = 0;
"3" = 0;
"4" = 0;
"5" = 0;
"6" = 0;
"7" = 0;
"8" = 0;
"9" = 0;
};
};
width = 239;
}
);
leftKerningGroup = A;
leftMetricsKey = A;
rightKerningGroup = E;
rightMetricsKey = E;
unicode = 00C6;
},
{
glyphname = B;
lastChange = "2024-01-24 18:58:39 +0000";
layers = (
{
layerId = "03715FCC-FE87-43AF-962B-9C8D97F38189";
paths = (
{
closed = 1;
nodes = (
"94 0 LINE SMOOTH",
"134 0 OFFCURVE",
"166 25 OFFCURVE",
"166 89 CURVE SMOOTH",
"166 170 LINE SMOOTH",
"166 204 OFFCURVE",
"159 232 OFFCURVE",
"108 278 CURVE",
"146 320 OFFCURVE",
"166 361 OFFCURVE",
"166 425 CURVE SMOOTH",
"166 591 LINE SMOOTH",
"166 655 OFFCURVE",
"134 680 OFFCURVE",
"94 680 CURVE SMOOTH",
"22 680 LINE",
"22 0 LINE"
);
},
{
closed = 1;
nodes = (
"126 64 LINE SMOOTH",
"126 29 OFFCURVE",
"112 10 OFFCURVE",
"92 10 CURVE SMOOTH",
"62 10 LINE",
"62 301 LINE",
"122 254 OFFCURVE",
"126 229 OFFCURVE",
"126 177 CURVE SMOOTH"
);
},
{
closed = 1;
nodes = (
"62 670 LINE",
"91 670 LINE SMOOTH",
"112 670 OFFCURVE",
"126 651 OFFCURVE",
"126 616 CURVE SMOOTH",
"126 430 LINE SMOOTH",
"126 345 OFFCURVE",
"126 319 OFFCURVE",
"102 283 CURVE",
"62 315 LINE"
);
}
);
userData = {
com.hugojourdan.ColorFlow = {
"0" = 0;
"1" = 0;
"10" = 0;
"11" = 0;
"2" = 0;
"3" = 0;
"4" = 0;
"5" = 0;
"6" = 0;
"7" = 0;
"8" = 0;
"9" = 0;
};
};
width = 186;
}
);
leftKerningGroup = H;
leftMetricsKey = H;
rightMetricsKey = O;
unicode = 0042;
},
{
glyphname = C;
lastChange = "2024-01-24 18:59:17 +0000";
layers = (
{
anchors = (
{
name = bottom;
position = "{94, 0}";
},
{
name = top;
position = "{104, 680}";
}
);
layerId = "03715FCC-FE87-43AF-962B-9C8D97F38189";
paths = (
{
closed = 1;
nodes = (
"60 552 LINE SMOOTH",
"60 619 OFFCURVE",
"60 640 OFFCURVE",
"92 640 CURVE SMOOTH",
"102 640 OFFCURVE",
"117 638 OFFCURVE",
"136 635 CURVE",
"136 685 LINE",
"46 685 OFFCURVE",
"20 557 OFFCURVE",
"20 416 CURVE SMOOTH",
"20 241 LINE SMOOTH",
"20 116 OFFCURVE",
"49 -5 OFFCURVE",
"136 -5 CURVE",
"136 45 LINE",
"117 42 OFFCURVE",
"102 40 OFFCURVE",
"92 40 CURVE SMOOTH",
"60 40 OFFCURVE",
"60 61 OFFCURVE",
"60 128 CURVE SMOOTH"
);
}
);
userData = {
com.hugojourdan.ColorFlow = {
"0" = 0;
"1" = 0;
"10" = 0;
"11" = 0;
"2" = 0;
"3" = 0;
"4" = 0;
"5" = 0;
"6" = 0;
"7" = 0;
"8" = 0;
"9" = 0;
};
};
width = 138;
}
);
leftKerningGroup = O;
leftMetricsKey = O;
unicode = 0043;
},
{
glyphname = D;
lastChange = "2024-01-24 18:59:55 +0000";
layers = (
{
anchors = (
{
name = bottom;
position = "{93, 0}";
},
{
name = center;
position = "{93, 340}";
},
{
name = top;
position = "{93, 680}";
}
);
layerId = "03715FCC-FE87-43AF-962B-9C8D97F38189";
paths = (
{
closed = 1;
nodes = (
"126 123 LINE SMOOTH",
"126 56 OFFCURVE",
"126 35 OFFCURVE",
"95 35 CURVE SMOOTH",
"86 35 OFFCURVE",
"76 36 OFFCURVE",
"62 38 CURVE",
"62 642 LINE",
"76 644 OFFCURVE",
"86 645 OFFCURVE",
"95 645 CURVE SMOOTH",
"123 645 OFFCURVE",
"126 624 OFFCURVE",
"126 557 CURVE SMOOTH"
);
},
{
closed = 1;
nodes = (
"136 0 OFFCURVE",
"164 112 OFFCURVE",
"166 236 CURVE SMOOTH",
"166 428 LINE SMOOTH",
"166 557 OFFCURVE",
"141 678 OFFCURVE",
"62 680 CURVE SMOOTH",
"22 680 LINE",
"22 0 LINE",
"60 0 LINE SMOOTH"
);
}
);
userData = {
com.hugojourdan.ColorFlow = {
"0" = 0;
"1" = 0;
"10" = 0;
"11" = 0;
"2" = 0;
"3" = 0;
"4" = 0;
"5" = 0;
"6" = 0;
"7" = 0;
"8" = 0;
"9" = 0;
};
};
width = 186;
}
);
leftKerningGroup = H;
leftMetricsKey = H;
rightKerningGroup = O;
rightMetricsKey = O;
unicode = 0044;
},
{
glyphname = Eth;
lastChange = "2024-01-24 20:47:58 +0000";
layers = (
{
components = (
{
name = D;
transform = "{1, 0, 0, 1, 17, 0}";
}
);
layerId = "03715FCC-FE87-43AF-962B-9C8D97F38189";
paths = (
{
closed = 1;
nodes = (
"124 270 LINE",
"124 280 LINE",
"5 280 LINE",
"5 270 LINE"
);
}
);
userData = {
com.hugojourdan.ColorFlow = {
"0" = 0;
"1" = 0;
"10" = 0;
"11" = 0;
"2" = 0;
"3" = 0;
"4" = 0;
"5" = 0;
"6" = 0;
"7" = 0;
"8" = 0;
"9" = 0;
};
};
width = 203;
}
);
rightKerningGroup = O;
rightMetricsKey = O;
unicode = 00D0;
},
{
glyphname = E;
lastChange = "2024-01-24 19:00:08 +0000";
layers = (
{
anchors = (
{
name = bottom;
position = "{71, 0}";
},
{
name = ogonek;
position = "{112, 10}";
},
{
name = top;
position = "{71, 680}";
},
{
name = topleft;
position = "{20, 680}";
}
);
guideLines = (
{
angle = 90;
position = "{262, 131}";
}
);
layerId = "03715FCC-FE87-43AF-962B-9C8D97F38189";
paths = (
{
closed = 1;
nodes = (
"122 0 LINE",
"122 40 LINE",
"62 40 LINE",
"62 270 LINE",
"131 270 LINE",
"131 280 LINE",
"62 280 LINE",
"62 502 LINE SMOOTH",
"62 603 OFFCURVE",
"32 590 OFFCURVE",
"32 635 CURVE SMOOTH",
"32 640 LINE",
"122 640 LINE",
"122 680 LINE",
"22 680 LINE",
"22 0 LINE"
);
}
);
userData = {
com.hugojourdan.ColorFlow = {
"0" = 0;
"1" = 0;
"10" = 0;
"11" = 0;
"2" = 0;
"3" = 0;
"4" = 0;
"5" = 0;
"6" = 0;
"7" = 0;
"8" = 0;
"9" = 0;
};
};
width = 141;
}
);
leftKerningGroup = H;
leftMetricsKey = H;
rightKerningGroup = E;
unicode = 0045;
},
{
glyphname = F;
lastChange = "2024-01-24 19:00:20 +0000";
layers = (
{
layerId = "03715FCC-FE87-43AF-962B-9C8D97F38189";
paths = (
{
closed = 1;
nodes = (
"62 0 LINE",
"62 270 LINE",
"131 270 LINE",
"131 280 LINE",
"62 280 LINE",
"62 502 LINE SMOOTH",
"62 603 OFFCURVE",
"32 590 OFFCURVE",
"32 635 CURVE SMOOTH",
"32 640 LINE",
"122 640 LINE",
"122 680 LINE",
"22 680 LINE",
"22 0 LINE"
);
}
);
userData = {
com.hugojourdan.ColorFlow = {
"0" = 0;
"1" = 0;
"10" = 0;
"11" = 0;
"2" = 0;
"3" = 0;
"4" = 0;
"5" = 0;
"6" = 0;
"7" = 0;
"8" = 0;
"9" = 0;
};
};
width = 136;
}
);
leftKerningGroup = H;
rightKerningGroup = E;
unicode = 0046;
},
{
glyphname = G;
lastChange = "2024-01-24 19:00:55 +0000";
layers = (
{
anchors = (
{
name = bottom;
position = "{88, 0}";
},
{
name = top;
position = "{108, 680}";
}
);
layerId = "03715FCC-FE87-43AF-962B-9C8D97F38189";
paths = (
{
closed = 1;
nodes = (
"15 0 LINE",
"55 0 LINE SMOOTH",
"100 1 OFFCURVE",
"127 38 OFFCURVE",
"143 100 CURVE",
"149 100 LINE",
"149 0 LINE",
"159 0 LINE",
"159 273 LINE",
"82 273 LINE",
"82 263 LINE",
"119 263 LINE",
"119 123 LINE SMOOTH",
"119 56 OFFCURVE",
"119 35 OFFCURVE",
"88 35 CURVE SMOOTH",
"79 35 OFFCURVE",
"69 36 OFFCURVE",
"55 38 CURVE",
"55 547 LINE SMOOTH",
"55 614 OFFCURVE",
"55 635 OFFCURVE",
"87 635 CURVE SMOOTH",
"97 635 OFFCURVE",
"112 633 OFFCURVE",
"131 630 CURVE SMOOTH",
"142 628 LINE",
"142 680 LINE",
"121 680 LINE SMOOTH",
"45 680 OFFCURVE",
"17 555 OFFCURVE",
"15 410 CURVE SMOOTH"
);
}
);
userData = {
com.hugojourdan.ColorFlow = {
"0" = 0;
"1" = 0;
"10" = 0;
"11" = 0;
"2" = 0;
"3" = 0;
"4" = 0;
"5" = 0;
"6" = 0;
"7" = 0;
"8" = 0;
"9" = 0;
};
};
width = 176;
}
);
leftKerningGroup = H;
rightMetricsKey = "=O-3";
unicode = 0047;
},
{
glyphname = H;
lastChange = "2024-01-24 19:01:06 +0000";
layers = (
{
background = {
paths = (
{
closed = 1;
nodes = (
"172 340 LINE",
"172 350 LINE",
"22 350 LINE",
"22 340 LINE"
);
}
);
};
layerId = "03715FCC-FE87-43AF-962B-9C8D97F38189";
paths = (
{
closed = 1;
nodes = (
"172 0 LINE",
"172 680 LINE",
"132 680 LINE",
"132 0 LINE"
);
},
{
closed = 1;
nodes = (
"152 270 LINE",
"152 280 LINE",
"42 280 LINE",
"42 270 LINE"
);
},
{
closed = 1;
nodes = (
"62 0 LINE",
"62 680 LINE",
"22 680 LINE",
"22 0 LINE"
);
}
);
userData = {
com.hugojourdan.ColorFlow = {
"0" = 0;
"1" = 0;
"10" = 0;
"11" = 0;
"2" = 0;
"3" = 0;
"4" = 0;
"5" = 0;
"6" = 0;
"7" = 0;
"8" = 0;
"9" = 0;
};
};
width = 194;
}
);
leftKerningGroup = H;
rightKerningGroup = H;
unicode = 0048;
},
{
glyphname = I;
lastChange = "2024-01-24 18:56:59 +0000";
layers = (
{
anchors = (
{
name = bottom;
position = "{42, 0}";
},
{
name = ogonek;
position = "{46, 10}";
},
{
name = top;
position = "{42, 680}";
},
{
name = topleft;
position = "{27, 680}";
}
);
layerId = "03715FCC-FE87-43AF-962B-9C8D97F38189";
paths = (
{
closed = 1;
nodes = (
"62 0 LINE",
"62 680 LINE",
"22 680 LINE",
"22 0 LINE"
);
}
);
userData = {
com.hugojourdan.ColorFlow = {
"0" = 0;
"1" = 0;
"10" = 0;
"11" = 0;
"2" = 0;
"3" = 0;
"4" = 0;
"5" = 0;
"6" = 0;
"7" = 0;
"8" = 0;
"9" = 0;
};
};
width = 84;
}
);
leftKerningGroup = H;
leftMetricsKey = H;
rightKerningGroup = H;
rightMetricsKey = H;
unicode = 0049;
},
{
glyphname = J;
lastChange = "2024-01-24 19:01:35 +0000";
layers = (
{
anchors = (
{
name = bottom;
position = "{62, 0}";
},
{
name = top;
position = "{52, 680}";
}
);
layerId = "03715FCC-FE87-43AF-962B-9C8D97F38189";
paths = (
{
closed = 1;
nodes = (
"68 -10 OFFCURVE",
"99 111 OFFCURVE",
"102 236 CURVE SMOOTH",
"102 680 LINE",
"2 680 LINE",
"2 640 LINE",
"92 640 LINE",
"92 633 LINE SMOOTH",
"92 600 OFFCURVE",
"62 603 OFFCURVE",
"62 502 CURVE SMOOTH",
"62 123 LINE SMOOTH",
"62 56 OFFCURVE",
"61 35 OFFCURVE",
"39 35 CURVE SMOOTH",
"31 35 OFFCURVE",
"20 37 OFFCURVE",
"6 40 CURVE",
"6 -10 LINE"
);
}
);
userData = {
com.hugojourdan.ColorFlow = {
"0" = 0;
"1" = 0;
"10" = 0;
"11" = 0;
"2" = 0;
"3" = 0;
"4" = 0;
"5" = 0;
"6" = 0;
"7" = 0;
"8" = 0;
"9" = 0;
};
};
width = 124;
}
);
leftKerningGroup = J;
leftMetricsKey = "=H-20";
rightKerningGroup = J;
rightMetricsKey = H;
unicode = 004A;
},
{
glyphname = K;
lastChange = "2024-01-24 19:01:58 +0000";
layers = (
{
anchors = (
{
name = bottom;
position = "{81, 0}";
},
{
name = top;
position = "{81, 680}";
}
);
components = (
{
name = I;
}
);
layerId = "03715FCC-FE87-43AF-962B-9C8D97F38189";
paths = (
{
closed = 1;
nodes = (
"170 0 LINE",
"69 236 LINE",
"170 680 LINE",
"131 680 LINE",
"59 250 LINE",
"39 250 LINE",
"39 225 LINE",
"59 225 LINE",
"123 0 LINE"
);
}
);
userData = {
com.hugojourdan.ColorFlow = {
"0" = 0;
"1" = 0;
"10" = 0;
"11" = 0;
"2" = 0;
"3" = 0;
"4" = 0;
"5" = 0;
"6" = 0;
"7" = 0;
"8" = 0;
"9" = 0;
};
};
width = 162;
}
);
leftKerningGroup = H;
leftMetricsKey = H;
rightKerningGroup = K;
rightMetricsKey = "=H-30";
unicode = 004B;
},
{
glyphname = L;
lastChange = "2024-01-24 19:02:14 +0000";
layers = (
{
anchors = (
{
name = bottom;
position = "{64, 0}";
},
{
name = caron.alt;
position = "{79, 665}";
},
{
name = center;
position = "{64, 340}";
},
{
name = top;
position = "{54, 680}";
},
{
name = topright;
position = "{107, 680}";
}
);
layerId = "03715FCC-FE87-43AF-962B-9C8D97F38189";
paths = (
{
closed = 1;
nodes = (
"22 0 LINE",
"122 0 LINE",
"122 40 LINE",
"32 40 LINE",
"32 47 LINE SMOOTH",
"32 80 OFFCURVE",
"62 77 OFFCURVE",
"62 178 CURVE SMOOTH",
"62 680 LINE",
"22 680 LINE"
);
}
);
userData = {
com.hugojourdan.ColorFlow = {
"0" = 0;
"1" = 0;
"10" = 0;
"11" = 0;
"2" = 0;
"3" = 0;
"4" = 0;
"5" = 0;
"6" = 0;
"7" = 0;
"8" = 0;
"9" = 0;
};
};
width = 127;
}
);
leftKerningGroup = H;
leftMetricsKey = H;
rightKerningGroup = L;
unicode = 004C;
},
{
glyphname = Lslash;
lastChange = "2024-01-24 20:47:58 +0000";
layers = (
{
components = (
{
name = L;
transform = "{1, 0, 0, 1, 22, 0}";
}
);
layerId = "03715FCC-FE87-43AF-962B-9C8D97F38189";
paths = (
{
closed = 1;
nodes = (
"79 344 LINE",
"138 557 LINE",
"125 557 LINE",
"66 343 LINE"
);
},
{
closed = 1;
nodes = (
"18 174 LINE",
"68 362 LINE",
"55 361 LINE",
"5 174 LINE"
);
}
);
userData = {
com.hugojourdan.ColorFlow = {
"0" = 0;
"1" = 0;
"10" = 0;
"11" = 0;
"2" = 0;
"3" = 0;
"4" = 0;
"5" = 0;
"6" = 0;
"7" = 0;
"8" = 0;
"9" = 0;
};
};
width = 149;
}
);
unicode = 0141;
},
{
glyphname = M;
lastChange = "2024-01-24 19:02:49 +0000";
layers = (
{
layerId = "03715FCC-FE87-43AF-962B-9C8D97F38189";
paths = (
{
closed = 1;
nodes = (
"63 0 LINE",
"52 640 LINE",
"57 640 LINE",
"122 0 LINE",
"154 0 LINE",
"217 640 LINE",
"222 640 LINE",
"213 0 LINE",
"254 0 LINE",
"254 680 LINE",
"204 680 LINE",
"190 549 LINE",
"139 92 LINE",
"157 145 LINE",
"121 145 LINE",
"146 92 LINE",
"101 549 LINE",
"82 680 LINE",
"22 680 LINE",
"22 0 LINE"
);
}
);
userData = {
com.hugojourdan.ColorFlow = {
"0" = 0;
"1" = 0;
"10" = 0;
"11" = 0;
"2" = 0;
"3" = 0;
"4" = 0;
"5" = 0;
"6" = 0;
"7" = 0;
"8" = 0;
"9" = 0;
};
};
width = 276;
}
);
leftKerningGroup = H;
leftMetricsKey = H;
rightKerningGroup = H;
rightMetricsKey = H;
unicode = 004D;
},
{
glyphname = N;
lastChange = "2024-01-24 19:02:57 +0000";
layers = (
{
anchors = (
{
name = bottom;
position = "{97, 0}";
},
{
name = top;
position = "{97, 680}";
}
);
layerId = "03715FCC-FE87-43AF-962B-9C8D97F38189";
paths = (
{
closed = 1;
nodes = (
"44 0 LINE",
"33 640 LINE",
"38 640 LINE",
"45 549 LINE",
"124 0 LINE",
"171 0 LINE",
"171 680 LINE",
"154 680 LINE",
"154 51 LINE",
"148 51 LINE",
"71 680 LINE",
"22 680 LINE",
"22 0 LINE"
);
},
{
closed = 1;
nodes = (
"62 0 LINE",
"34 555 LINE",
"42 0 LINE"
);
},
{
closed = 1;
nodes = (
"154 680 LINE",
"131 680 LINE",
"154 126 LINE"
);
}
);
userData = {
com.hugojourdan.ColorFlow = {
"0" = 0;
"1" = 0;
"10" = 0;
"11" = 0;
"2" = 0;
"3" = 0;
"4" = 0;
"5" = 0;
"6" = 0;
"7" = 0;
"8" = 0;
"9" = 0;
};
};
width = 193;
}
);
leftKerningGroup = H;
leftMetricsKey = H;
rightKerningGroup = H;
rightMetricsKey = H;
unicode = 004E;
},
{
glyphname = O;
lastChange = "2024-01-24 18:56:59 +0000";
layers = (
{
anchors = (
{
name = bottom;
position = "{92, 0}";
},
{
name = center;
position = "{92, 340}";
},
{
name = ogonek;
position = "{132, 10}";
},
{
name = top;
position = "{92, 680}";
},
{
name = topleft;
position = "{20, 680}";
},
{
name = topright;
position = "{164, 680}";
}
);
guideLines = (
{
angle = 90;
position = "{92, 50}";
}
);
layerId = "03715FCC-FE87-43AF-962B-9C8D97F38189";
paths = (
{
closed = 1;
nodes = (
"132 -10 OFFCURVE",
"164 15 OFFCURVE",
"164 79 CURVE SMOOTH",
"164 601 LINE SMOOTH",
"164 665 OFFCURVE",
"132 690 OFFCURVE",
"92 690 CURVE SMOOTH",
"52 690 OFFCURVE",
"20 665 OFFCURVE",
"20 601 CURVE SMOOTH",
"20 79 LINE SMOOTH",
"20 15 OFFCURVE",
"52 -10 OFFCURVE",
"92 -10 CURVE SMOOTH"
);
},
{
closed = 1;
nodes = (
"75 0 OFFCURVE",
"60 19 OFFCURVE",
"60 54 CURVE SMOOTH",
"60 626 LINE SMOOTH",
"60 661 OFFCURVE",
"75 680 OFFCURVE",
"92 680 CURVE SMOOTH",
"109 680 OFFCURVE",
"124 661 OFFCURVE",
"124 626 CURVE SMOOTH",
"124 54 LINE SMOOTH",
"124 19 OFFCURVE",
"109 0 OFFCURVE",
"92 0 CURVE SMOOTH"
);
}
);
userData = {
com.hugojourdan.ColorFlow = {
"0" = 0;
"1" = 0;
"10" = 0;
"11" = 0;
"2" = 0;
"3" = 0;
"4" = 0;
"5" = 0;
"6" = 0;
"7" = 0;
"8" = 0;
"9" = 0;
};
};
width = 184;
}
);
leftKerningGroup = O;
rightKerningGroup = O;
unicode = 004F;
},
{
glyphname = Oslash;
lastChange = "2024-01-24 20:47:58 +0000";
layers = (
{
components = (
{
name = O;
}
);
layerId = "03715FCC-FE87-43AF-962B-9C8D97F38189";
paths = (
{
closed = 1;
nodes = (
"138 618 LINE",
"126 631 LINE",
"49 58 LINE",
"60 47 LINE"
);
},
{
closed = 1;
nodes = (
"37 0 LINE",
"48 50 LINE",
"40 62 LINE",
"26 0 LINE"
);
},
{
closed = 1;
nodes = (
"161 680 LINE",
"150 680 LINE",
"139 630 LINE",
"147 618 LINE"
);
}
);
userData = {
com.hugojourdan.ColorFlow = {
"0" = 0;
"1" = 0;
"10" = 0;
"11" = 0;
"2" = 0;
"3" = 0;
"4" = 0;
"5" = 0;
"6" = 0;
"7" = 0;
"8" = 0;
"9" = 0;
};
};
width = 184;
}
);
leftKerningGroup = O;
leftMetricsKey = O;
rightKerningGroup = O;
rightMetricsKey = O;
unicode = 00D8;
},
{
glyphname = OE;
lastChange = "2024-01-24 20:47:58 +0000";
layers = (
{
anchors = (
{
name = bottom;
position = "{122, 0}";
},
{
name = top;
position = "{122, 680}";
}
);
components = (
{
alignment = -1;
name = E;
transform = "{1, 0, 0, 1, 102, 0}";
}
);
layerId = "03715FCC-FE87-43AF-962B-9C8D97F38189";
paths = (
{
closed = 1;
nodes = (
"132 -10 OFFCURVE",
"164 15 OFFCURVE",
"164 79 CURVE SMOOTH",
"164 514 LINE SMOOTH",
"164 558 OFFCURVE",
"132 602 OFFCURVE",
"130 625 CURVE",
"126 663 OFFCURVE",
"150 662 OFFCURVE",
"141 671 CURVE",
"128 684 OFFCURVE",
"111 690 OFFCURVE",
"92 690 CURVE SMOOTH",
"52 690 OFFCURVE",
"20 665 OFFCURVE",
"20 601 CURVE SMOOTH",
"20 79 LINE SMOOTH",
"20 15 OFFCURVE",
"52 -10 OFFCURVE",
"92 -10 CURVE SMOOTH"
);
},
{
closed = 1;
nodes = (
"75 0 OFFCURVE",
"60 19 OFFCURVE",
"60 54 CURVE SMOOTH",
"60 626 LINE SMOOTH",
"60 661 OFFCURVE",
"75 680 OFFCURVE",
"92 680 CURVE SMOOTH",
"109 680 OFFCURVE",
"124 661 OFFCURVE",
"124 626 CURVE SMOOTH",
"124 54 LINE SMOOTH",
"124 19 OFFCURVE",
"109 0 OFFCURVE",
"92 0 CURVE SMOOTH"
);
}
);
userData = {
com.hugojourdan.ColorFlow = {
"0" = 0;
"1" = 0;
"10" = 0;
"11" = 0;
"2" = 0;
"3" = 0;
"4" = 0;
"5" = 0;
"6" = 0;
"7" = 0;
"8" = 0;
"9" = 0;
};
};
width = 243;
}
);
leftKerningGroup = O;
leftMetricsKey = O;
rightKerningGroup = E;
rightMetricsKey = E;
unicode = 0152;
},
{
glyphname = P;
lastChange = "2024-01-24 19:08:58 +0000";
layers = (
{
layerId = "03715FCC-FE87-43AF-962B-9C8D97F38189";
paths = (
{
closed = 1;
nodes = (
"119 337 OFFCURVE",
"119 273 OFFCURVE",
"70 273 CURVE SMOOTH",
"55 273 LINE",
"55 670 LINE",
"84 670 LINE SMOOTH",
"105 670 OFFCURVE",
"119 651 OFFCURVE",
"119 616 CURVE SMOOTH",
"119 427 LINE SMOOTH"
);
},
{
closed = 1;
nodes = (
"55 0 LINE",
"55 263 LINE",
"72 263 LINE SMOOTH",
"127 264 OFFCURVE",
"159 354 OFFCURVE",
"159 427 CURVE SMOOTH",
"159 591 LINE SMOOTH",
"159 655 OFFCURVE",
"127 680 OFFCURVE",
"87 680 CURVE SMOOTH",
"15 680 LINE",
"15 0 LINE"
);
}
);
userData = {
com.hugojourdan.ColorFlow = {
"0" = 0;
"1" = 0;
"10" = 0;
"11" = 0;
"2" = 0;
"3" = 0;
"4" = 0;
"5" = 0;
"6" = 0;
"7" = 0;
"8" = 0;
"9" = 0;
};
};
width = 179;
}
);
leftKerningGroup = H;
rightKerningGroup = P;
rightMetricsKey = O;
unicode = 0050;
},
{
glyphname = Thorn;
lastChange = "2024-01-24 20:47:58 +0000";
layers = (
{
layerId = "03715FCC-FE87-43AF-962B-9C8D97F38189";
paths = (
{
closed = 1;
nodes = (
"119 206 OFFCURVE",
"119 142 OFFCURVE",
"70 142 CURVE SMOOTH",
"55 142 LINE",
"55 539 LINE",
"84 539 LINE SMOOTH",
"105 539 OFFCURVE",
"119 520 OFFCURVE",
"119 485 CURVE SMOOTH",
"119 296 LINE SMOOTH"
);
},
{
closed = 1;
nodes = (
"127 133 OFFCURVE",
"159 223 OFFCURVE",
"159 296 CURVE SMOOTH",
"159 460 LINE SMOOTH",
"159 524 OFFCURVE",
"127 549 OFFCURVE",
"87 549 CURVE SMOOTH",
"55 549 LINE",
"55 680 LINE",
"15 680 LINE",
"15 0 LINE",
"55 0 LINE",
"55 132 LINE",
"72 132 LINE SMOOTH"
);
}
);
userData = {
com.hugojourdan.ColorFlow = {
"0" = 0;
"1" = 0;
"10" = 0;
"11" = 0;
"2" = 0;
"3" = 0;
"4" = 0;
"5" = 0;
"6" = 0;
"7" = 0;
"8" = 0;
"9" = 0;
};
};
width = 179;
}
);
unicode = 00DE;
},
{
glyphname = Q;
lastChange = "2024-01-24 20:04:38 +0000";
layers = (
{
components = (
{
name = O;
}
);
layerId = "03715FCC-FE87-43AF-962B-9C8D97F38189";
paths = (
{
closed = 1;
nodes = (
"158 -80 LINE",
"149 -82 OFFCURVE",
"141 -83 OFFCURVE",
"133 -83 CURVE SMOOTH",
"87 -83 OFFCURVE",
"63 -48 OFFCURVE",
"65 13 CURVE",
"51 13 LINE",
"54 -75 OFFCURVE",
"74 -130 OFFCURVE",
"158 -130 CURVE"
);
}
);
userData = {
com.hugojourdan.ColorFlow = {
"0" = 0;
"1" = 0;
"10" = 0;
"11" = 0;
"2" = 0;
"3" = 0;
"4" = 0;
"5" = 0;
"6" = 0;
"7" = 0;
"8" = 0;
"9" = 0;
};
};
width = 184;
}
);
leftKerningGroup = O;
leftMetricsKey = O;
rightKerningGroup = O;
rightMetricsKey = O;
unicode = 0051;
},
{
glyphname = R;
lastChange = "2024-01-24 19:09:24 +0000";
layers = (
{
anchors = (
{
name = bottom;
position = "{91, 0}";
},
{
name = top;
position = "{91, 680}";
}
);
layerId = "03715FCC-FE87-43AF-962B-9C8D97F38189";
paths = (
{
closed = 1;
nodes = (
"166 591 LINE SMOOTH",
"166 655 OFFCURVE",
"134 680 OFFCURVE",
"94 680 CURVE SMOOTH",
"22 680 LINE",
"22 0 LINE",
"62 0 LINE",
"62 225 LINE",
"68 225 LINE",
"135 0 LINE",
"182 0 LINE",
"69 248 LINE",
"158 313 OFFCURVE",
"166 361 OFFCURVE",
"166 435 CURVE SMOOTH"
);
},
{
closed = 1;
nodes = (
"62 670 LINE",
"91 670 LINE SMOOTH",
"112 670 OFFCURVE",
"126 651 OFFCURVE",
"126 616 CURVE SMOOTH",
"126 455 LINE SMOOTH",
"126 345 OFFCURVE",
"125 311 OFFCURVE",
"62 254 CURVE"
);
}
);
userData = {
com.hugojourdan.ColorFlow = {
"0" = 0;
"1" = 0;
"10" = 0;
"11" = 0;
"2" = 0;
"3" = 0;
"4" = 0;
"5" = 0;
"6" = 0;
"7" = 0;
"8" = 0;
"9" = 0;
};
};
width = 182;
}
);
leftKerningGroup = H;
leftMetricsKey = H;
rightKerningGroup = R;
unicode = 0052;
},
{
glyphname = S;
lastChange = "2024-01-24 20:04:38 +0000";
layers = (
{
anchors = (
{
name = bottom;
position = "{64, 0}";
},
{
name = top;
position = "{60, 680}";
}
);
layerId = "03715FCC-FE87-43AF-962B-9C8D97F38189";
paths = (
{
closed = 1;
nodes = (
"43 0 OFFCURVE",
"114 16 OFFCURVE",
"114 121 CURVE SMOOTH",
"114 135 OFFCURVE",
"113 151 OFFCURVE",
"110 169 CURVE",
"46 566 LINE",
"42 586 OFFCURVE",
"40 602 OFFCURVE",
"40 614 CURVE SMOOTH",
"40 641 OFFCURVE",
"49 649 OFFCURVE",
"60 649 CURVE SMOOTH",
"78 649 OFFCURVE",
"103 630 OFFCURVE",
"115 628 CURVE",
"115 680 LINE",
"82 680 OFFCURVE",
"9 665 OFFCURVE",
"9 562 CURVE SMOOTH",
"9 547 OFFCURVE",
"11 530 OFFCURVE",
"14 511 CURVE SMOOTH",
"78 114 LINE SMOOTH",
"81 96 OFFCURVE",
"82 81 OFFCURVE",
"82 70 CURVE SMOOTH",
"82 40 OFFCURVE",
"73 31 OFFCURVE",
"61 31 CURVE SMOOTH",
"44 31 OFFCURVE",
"20 49 OFFCURVE",
"3 51 CURVE",
"3 0 LINE"
);
}
);
userData = {
com.hugojourdan.ColorFlow = {
"0" = 0;
"1" = 0;
"10" = 0;
"11" = 0;
"2" = 0;
"3" = 0;
"4" = 0;
"5" = 0;
"6" = 0;
"7" = 0;
"8" = 0;
"9" = 0;
};
};
width = 120;
}
);
leftKerningGroup = S;
rightKerningGroup = S;
unicode = 0053;
},
{
glyphname = Germandbls;
lastChange = "2024-01-24 20:47:58 +0000";
layers = (
{
background = {
paths = (
{
closed = 1;
nodes = (
"60 0 LINE",
"60 610 LINE SMOOTH",
"60 657 OFFCURVE",
"79 677 OFFCURVE",
"98 677 CURVE SMOOTH",
"111 677 OFFCURVE",
"125 667 OFFCURVE",
"131 650 CURVE",
"129 658 LINE",
"109 355 LINE SMOOTH",
"107 324 OFFCURVE",
"103 280 OFFCURVE",
"73 280 CURVE",
"73 270 LINE",
"109 270 OFFCURVE",
"127 256 OFFCURVE",
"127 215 CURVE SMOOTH",
"127 151 LINE SMOOTH",
"127 60 OFFCURVE",
"126 32 OFFCURVE",
"111 32 CURVE SMOOTH",
"103 32 OFFCURVE",
"92 40 OFFCURVE",
"75 50 CURVE",
"75 0 LINE",
"149 0 OFFCURVE",
"167 44 OFFCURVE",
"167 143 CURVE SMOOTH",
"167 184 LINE SMOOTH",
"167 263 OFFCURVE",
"107 280 OFFCURVE",
"88 277 CURVE",
"81 275 LINE",
"87 277 OFFCURVE",
"142 296 OFFCURVE",
"146 361 CURVE SMOOTH",
"167 667 LINE",
"160 678 OFFCURVE",
"135 690 OFFCURVE",
"108 690 CURVE SMOOTH",
"67 690 OFFCURVE",
"20 662 OFFCURVE",
"20 561 CURVE SMOOTH",
"20 0 LINE"
);
}
);
};
guideLines = (
{
angle = 90;
position = "{162, 245}";
},
{
position = "{37, 41}";
}
);
layerId = "03715FCC-FE87-43AF-962B-9C8D97F38189";
paths = (
{
closed = 1;
nodes = (
"60 0 LINE",
"60 610 LINE SMOOTH",
"60 657 OFFCURVE",
"79 677 OFFCURVE",
"98 677 CURVE SMOOTH",
"111 677 OFFCURVE",
"125 667 OFFCURVE",
"131 650 CURVE",
"129 658 LINE",
"109 355 LINE SMOOTH",
"107 324 OFFCURVE",
"103 280 OFFCURVE",
"73 280 CURVE",
"73 270 LINE",
"109 270 OFFCURVE",
"127 256 OFFCURVE",
"127 215 CURVE SMOOTH",
"127 125 LINE SMOOTH",
"127 34 OFFCURVE",
"126 17 OFFCURVE",
"116 17 CURVE SMOOTH",
"108 17 OFFCURVE",
"92 44 OFFCURVE",
"75 50 CURVE",
"75 0 LINE",
"149 0 OFFCURVE",
"167 44 OFFCURVE",
"167 143 CURVE SMOOTH",
"167 184 LINE SMOOTH",
"167 263 OFFCURVE",
"108 280 OFFCURVE",
"81 278 CURVE",
"81 275 LINE",
"87 277 OFFCURVE",
"142 296 OFFCURVE",
"146 361 CURVE SMOOTH",
"167 667 LINE",
"160 678 OFFCURVE",
"135 690 OFFCURVE",
"108 690 CURVE SMOOTH",
"67 690 OFFCURVE",
"20 662 OFFCURVE",
"20 561 CURVE SMOOTH",
"20 0 LINE"
);
}
);
userData = {
com.hugojourdan.ColorFlow = {
"0" = 0;
"1" = 0;
"10" = 0;
"11" = 0;
"2" = 0;
"3" = 0;
"4" = 0;
"5" = 0;
"6" = 0;
"7" = 0;
"8" = 0;
"9" = 0;
};
};
width = 179;
}
);
leftKerningGroup = H;
unicode = 1E9E;
},
{
glyphname = T;
lastChange = "2024-01-24 18:56:59 +0000";
layers = (
{
anchors = (
{
name = bottom;
position = "{55, 0}";
},
{
name = center;
position = "{55, 340}";
},
{
name = top;
position = "{55, 680}";
}
);
background = {
paths = (
{
closed = 1;
nodes = (
"75 482 LINE",
"75 571 OFFCURVE",
"38 574 OFFCURVE",
"38 633 CURVE",
"38 652 LINE",
"37 640 LINE",
"115 640 LINE",
"115 680 LINE",
"28 680 LINE",
"28 631 LINE SMOOTH",
"28 558 OFFCURVE",
"35 558 OFFCURVE",
"35 482 CURVE"
);
}
);
};
layerId = "03715FCC-FE87-43AF-962B-9C8D97F38189";
paths = (
{
closed = 1;
nodes = (
"75 0 LINE",
"75 640 LINE",
"35 640 LINE",
"35 0 LINE"
);
},
{
closed = 1;
nodes = (
"115 640 LINE",
"115 680 LINE",
"-5 680 LINE",
"-5 640 LINE"
);
}
);
userData = {
com.hugojourdan.ColorFlow = {
"0" = 0;
"1" = 0;
"10" = 0;
"11" = 0;
"2" = 0;
"3" = 0;
"4" = 0;
"5" = 0;
"6" = 0;
"7" = 0;
"8" = 0;
"9" = 0;
};
};
width = 110;
}
);
leftKerningGroup = T;
rightKerningGroup = T;
unicode = 0054;
},
{
glyphname = U;
lastChange = "2024-01-24 18:56:59 +0000";
layers = (
{
anchors = (
{
name = bottom;
position = "{94, 0}";
},
{
name = ogonek;
position = "{133, 10}";
},
{
name = top;
position = "{94, 680}";
},
{
name = topright;
position = "{168, 680}";
}
);
layerId = "03715FCC-FE87-43AF-962B-9C8D97F38189";
paths = (
{
closed = 1;
nodes = (
"134 -10 OFFCURVE",
"166 15 OFFCURVE",
"166 79 CURVE SMOOTH",
"166 680 LINE",
"126 680 LINE",
"126 54 LINE SMOOTH",
"126 19 OFFCURVE",
"111 0 OFFCURVE",
"94 0 CURVE SMOOTH",
"77 0 OFFCURVE",
"62 19 OFFCURVE",
"62 54 CURVE SMOOTH",
"62 680 LINE",
"22 680 LINE",
"22 79 LINE SMOOTH",
"22 15 OFFCURVE",
"54 -10 OFFCURVE",
"94 -10 CURVE SMOOTH"
);
}
);
userData = {
com.hugojourdan.ColorFlow = {
"0" = 0;
"1" = 0;
"10" = 0;
"11" = 0;
"2" = 0;
"3" = 0;
"4" = 0;
"5" = 0;
"6" = 0;
"7" = 0;
"8" = 0;
"9" = 0;
};
};
width = 188;
}
);
leftKerningGroup = H;
leftMetricsKey = H;
rightKerningGroup = H;
rightMetricsKey = H;
unicode = 0055;
},
{
glyphname = V;
lastChange = "2024-01-24 18:56:59 +0000";
layers = (
{
layerId = "03715FCC-FE87-43AF-962B-9C8D97F38189";
paths = (
{
closed = 1;
nodes = (
"98 0 LINE",
"109 80 LINE",
"160 690 LINE",
"206 680 LINE",
"84 680 LINE",
"121 690 LINE",
"92 40 LINE",
"88 40 LINE",
"42 690 LINE",
"108 680 LINE",
"-21 680 LINE",
"2 690 LINE",
"57 0 LINE"
);
}
);
userData = {
com.hugojourdan.ColorFlow = {
"0" = 0;
"1" = 0;
"10" = 0;
"11" = 0;
"2" = 0;
"3" = 0;
"4" = 0;
"5" = 0;
"6" = 0;
"7" = 0;
"8" = 0;
"9" = 0;
};
};
width = 162;
}
);
leftKerningGroup = V;
rightKerningGroup = V;
unicode = 0056;
},
{
glyphname = W;
lastChange = "2024-01-24 19:12:40 +0000";
layers = (
{
anchors = (
{
name = bottom;
position = "{139, 0}";
},
{
name = top;
position = "{139, 680}";
}
);
layerId = "03715FCC-FE87-43AF-962B-9C8D97F38189";
paths = (
{
closed = 1;
nodes = (
"98 0 LINE",
"109 80 LINE",
"135 448 LINE",
"137 557 LINE",
"137 559 LINE",
"142 559 LINE",
"142 557 LINE",
"145 448 LINE",
"173 0 LINE",
"214 0 LINE",
"225 80 LINE",
"275 680 LINE",
"237 680 LINE",
"208 40 LINE",
"204 40 LINE",
"177 476 LINE",
"159 680 LINE",
"121 680 LINE",
"108 472 LINE",
"92 40 LINE",
"88 40 LINE",
"43 680 LINE",
"3 680 LINE",
"57 0 LINE"
);
}
);
userData = {
com.hugojourdan.ColorFlow = {
"0" = 0;
"1" = 0;
"10" = 0;
"11" = 0;
"2" = 0;
"3" = 0;
"4" = 0;
"5" = 0;
"6" = 0;
"7" = 0;
"8" = 0;
"9" = 0;
};
};
width = 278;
}
);
leftKerningGroup = V;
leftMetricsKey = V;
rightKerningGroup = V;
rightMetricsKey = V;
unicode = 0057;
},
{
glyphname = X;
lastChange = "2024-01-24 18:56:59 +0000";
layers = (
{
layerId = "03715FCC-FE87-43AF-962B-9C8D97F38189";
paths = (
{
closed = 1;
nodes = (
"157 0 LINE",
"45 680 LINE",
"5 680 LINE",
"117 0 LINE"
);
},
{
closed = 1;
nodes = (
"42 0 LINE",
"81 384 LINE",
"72 352 LINE",
"67 362 LINE",
"3 0 LINE"
);
},
{
closed = 1;
nodes = (
"85 322 LINE",
"156 680 LINE",
"118 680 LINE",
"72 297 LINE",
"79 288 LINE"
);
}
);
userData = {
com.hugojourdan.ColorFlow = {
"0" = 0;
"1" = 0;
"10" = 0;
"11" = 0;
"2" = 0;
"3" = 0;
"4" = 0;
"5" = 0;
"6" = 0;
"7" = 0;
"8" = 0;
"9" = 0;
};
};
width = 160;
}
);
leftKerningGroup = X;
leftMetricsKey = V;
rightKerningGroup = X;
rightMetricsKey = V;
unicode = 0058;
},
{
glyphname = Y;
lastChange = "2024-01-24 19:13:30 +0000";
layers = (
{
anchors = (
{
name = bottom;
position = "{84, 0}";
},
{
name = top;
position = "{86, 680}";
},
{
name = topleft;
position = "{20, 680}";
}
);
layerId = "03715FCC-FE87-43AF-962B-9C8D97F38189";
paths = (
{
closed = 1;
nodes = (
"104 0 LINE",
"104 165 LINE",
"165 680 LINE",
"127 680 LINE",
"91 246 LINE",
"87 246 LINE",
"43.009 680 LINE",
"3 680 LINE",
"64 165 LINE",
"64 0 LINE"
);
}
);
userData = {
com.hugojourdan.ColorFlow = {
"0" = 0;
"1" = 0;
"10" = 0;
"11" = 0;
"2" = 0;
"3" = 0;
"4" = 0;
"5" = 0;
"6" = 0;
"7" = 0;
"8" = 0;
"9" = 0;
};
};
width = 168;
}
);
leftKerningGroup = Y;
leftMetricsKey = V;
rightKerningGroup = V;
rightMetricsKey = V;
unicode = 0059;
},
{
glyphname = Z;
lastChange = "2024-01-24 19:14:17 +0000";
layers = (
{
anchors = (
{
name = bottom;
position = "{70, 0}";
},
{
name = center;
position = "{70, 340}";
},
{
name = top;
position = "{80, 680}";
}
);
layerId = "03715FCC-FE87-43AF-962B-9C8D97F38189";
paths = (
{
closed = 1;
nodes = (
"142 0 LINE",
"142 10 LINE",
"33 10 LINE",
"35 9 LINE",
"143 674 LINE",
"143 680 LINE",
"4 680 LINE",
"4 670 LINE",
"110 670 LINE",
"106 677 LINE",
"-3 6 LINE",
"-3 0 LINE"
);
}
);
userData = {
com.hugojourdan.ColorFlow = {
"0" = 0;
"1" = 0;
"10" = 0;
"11" = 0;
"2" = 0;
"3" = 0;
"4" = 0;
"5" = 0;
"6" = 0;
"7" = 0;
"8" = 0;
"9" = 0;
};
};
width = 140;
}
);
leftKerningGroup = Z;
rightKerningGroup = Z;
unicode = 005A;
},
{
glyphname = S_T;
lastChange = "2024-01-24 20:04:38 +0000";
layers = (
{
anchors = (
{
name = bottom;
position = "{64, 0}";
},
{
name = center;
position = "{175, 340}";
},
{
name = top;
position = "{60, 680}";
}
);
layerId = "03715FCC-FE87-43AF-962B-9C8D97F38189";
paths = (
{
closed = 1;
nodes = (
"75 0 OFFCURVE",
"113 35 OFFCURVE",
"113 114 CURVE SMOOTH",
"113 130 OFFCURVE",
"111 149 OFFCURVE",
"108 170 CURVE",
"45 565 LINE",
"41 584 OFFCURVE",
"39 599 OFFCURVE",
"39 611 CURVE SMOOTH",
"39 644 OFFCURVE",
"53 653 OFFCURVE",
"68 653 CURVE SMOOTH",
"88 653 OFFCURVE",
"114 640 OFFCURVE",
"130 640 CURVE SMOOTH",
"225 640 LINE",
"225 680 LINE",
"115 680 LINE SMOOTH",
"82 680 OFFCURVE",
"9 666 OFFCURVE",
"9 561 CURVE SMOOTH",
"9 546 OFFCURVE",
"11 529 OFFCURVE",
"14 510 CURVE",
"78 114 LINE",
"81 96 OFFCURVE",
"82 81 OFFCURVE",
"82 70 CURVE SMOOTH",
"82 40 OFFCURVE",
"73 31 OFFCURVE",
"61 31 CURVE SMOOTH",
"44 31 OFFCURVE",
"20 49 OFFCURVE",
"3 51 CURVE",
"3 0 LINE"
);
},
{
closed = 1;
nodes = (
"185 0 LINE",
"185 640 LINE",
"145 640 LINE",
"145 0 LINE"
);
}
);
userData = {
com.hugojourdan.ColorFlow = {
"0" = 0;
"1" = 0;
"10" = 0;
"11" = 0;
"2" = 0;
"3" = 0;
"4" = 0;
"5" = 0;
"6" = 0;
"7" = 0;
"8" = 0;
"9" = 0;
};
};
width = 220;
}
);
leftMetricsKey = S;
rightMetricsKey = T;
},
{
glyphname = S_T.liga;
lastChange = "2024-03-06 23:14:53 +0000";
layers = (
{
anchors = (
{
name = bottom;
position = "{64, 0}";
},
{
name = center;
position = "{175, 340}";
},
{
name = top;
position = "{60, 680}";
}
);
background = {
paths = (
{
closed = 1;
nodes = (
"43 0 OFFCURVE",
"114 16 OFFCURVE",
"114 121 CURVE SMOOTH",
"114 135 OFFCURVE",
"113 151 OFFCURVE",
"110 169 CURVE",
"46 566 LINE",
"42 586 OFFCURVE",
"40 602 OFFCURVE",
"40 614 CURVE SMOOTH",
"40 641 OFFCURVE",
"49 649 OFFCURVE",
"60 649 CURVE SMOOTH",
"78 649 OFFCURVE",
"103 630 OFFCURVE",
"115 628 CURVE",
"115 680 LINE",
"82 680 OFFCURVE",
"9 665 OFFCURVE",
"9 562 CURVE SMOOTH",
"9 547 OFFCURVE",
"11 530 OFFCURVE",
"14 511 CURVE SMOOTH",
"78 114 LINE SMOOTH",
"81 96 OFFCURVE",
"82 81 OFFCURVE",
"82 70 CURVE SMOOTH",
"82 40 OFFCURVE",
"73 31 OFFCURVE",
"61 31 CURVE SMOOTH",
"44 31 OFFCURVE",
"20 49 OFFCURVE",
"3 51 CURVE",
"3 0 LINE"
);
}
);
};
layerId = "03715FCC-FE87-43AF-962B-9C8D97F38189";
paths = (
{
closed = 1;
nodes = (
"43 0 OFFCURVE",
"114 16 OFFCURVE",
"114 121 CURVE SMOOTH",
"114 135 OFFCURVE",
"113 151 OFFCURVE",
"110 169 CURVE SMOOTH",
"46 566 LINE SMOOTH",
"42 586 OFFCURVE",
"40 602 OFFCURVE",
"40 614 CURVE SMOOTH",
"40 641 OFFCURVE",
"49 649 OFFCURVE",
"60 649 CURVE SMOOTH",
"77 649 OFFCURVE",
"105 640 OFFCURVE",
"138 640 CURVE SMOOTH",
"155 640 LINE",
"155 0 LINE",
"195 0 LINE",
"195 640 LINE",
"235 640 LINE",
"235 680 LINE",
"115 680 LINE SMOOTH",
"79 679 OFFCURVE",
"9 663 OFFCURVE",
"9 562 CURVE SMOOTH",
"9 547 OFFCURVE",
"11 530 OFFCURVE",
"14 511 CURVE SMOOTH",
"78 114 LINE SMOOTH",
"81 96 OFFCURVE",
"82 81 OFFCURVE",
"82 70 CURVE SMOOTH",
"82 40 OFFCURVE",
"73 31 OFFCURVE",
"61 31 CURVE SMOOTH",
"44 31 OFFCURVE",
"20 49 OFFCURVE",
"3 51 CURVE",
"3 0 LINE"
);
}
);
width = 230;
}
);
leftMetricsKey = S;
rightMetricsKey = T;
},
{
glyphname = a;
lastChange = "2024-01-24 19:15:27 +0000";
layers = (
{
anchors = (
{
name = bottom;
position = "{81, 0}";
},
{
name = ogonek;
position = "{135, 10}";
},
{
name = top;
position = "{81, 600}";
}
);
background = {
paths = (
{
closed = 1;
nodes = (
"76 -10 OFFCURVE",
"95 15 OFFCURVE",
"104 61 CURVE",
"108 61 LINE",
"116 0 LINE",
"151 0 LINE",
"142 61 LINE",
"142 320 LINE SMOOTH",
"142 486 OFFCURVE",
"142 610 OFFCURVE",
"41 610 CURVE",
"41 560 LINE",
"62 569 OFFCURVE",
"77 574 OFFCURVE",
"88 574 CURVE SMOOTH",
"105 574 OFFCURVE",
"110 561 OFFCURVE",
"110 536 CURVE SMOOTH",
"110 510 OFFCURVE",
"105 469 OFFCURVE",
"104 418 CURVE",
"30 324 OFFCURVE",
"18 286 OFFCURVE",
"18 200 CURVE SMOOTH",
"18 89 LINE SMOOTH",
"18 22 OFFCURVE",
"38 -10 OFFCURVE",
"58 -10 CURVE SMOOTH"
);
},
{
closed = 1;
nodes = (
"67 40 OFFCURVE",
"58 52 OFFCURVE",
"58 82 CURVE SMOOTH",
"58 207 LINE SMOOTH",
"58 271 OFFCURVE",
"62 333 OFFCURVE",
"104 403 CURVE",
"104 99 LINE SMOOTH",
"104 66 OFFCURVE",
"90 40 OFFCURVE",
"76 40 CURVE SMOOTH"
);
}
);
};
layerId = "03715FCC-FE87-43AF-962B-9C8D97F38189";
paths = (
{
closed = 1;
nodes = (
"76 -10 OFFCURVE",
"95 15 OFFCURVE",
"104 61 CURVE",
"108 61 LINE",
"116 0 LINE",
"151 0 LINE",
"142 61 LINE",
"142 320 LINE SMOOTH",
"142 486 OFFCURVE",
"142 610 OFFCURVE",
"41 610 CURVE",
"41 560 LINE",
"62 569 OFFCURVE",
"77 574 OFFCURVE",
"88 574 CURVE SMOOTH",
"105 574 OFFCURVE",
"110 561 OFFCURVE",
"110 536 CURVE SMOOTH",
"110 510 OFFCURVE",
"105 469 OFFCURVE",
"104 418 CURVE",
"30 324 OFFCURVE",
"18 286 OFFCURVE",
"18 200 CURVE SMOOTH",
"18 89 LINE SMOOTH",
"18 22 OFFCURVE",
"38 -10 OFFCURVE",
"58 -10 CURVE SMOOTH"
);
},
{
closed = 1;
nodes = (
"67 40 OFFCURVE",
"58 52 OFFCURVE",
"58 82 CURVE SMOOTH",
"58 207 LINE SMOOTH",
"58 271 OFFCURVE",
"62 333 OFFCURVE",
"104 403 CURVE",
"104 99 LINE SMOOTH",
"104 66 OFFCURVE",
"90 40 OFFCURVE",
"76 40 CURVE SMOOTH"
);
}
);
userData = {
com.hugojourdan.ColorFlow = {
"0" = 0;
"1" = 0;
"10" = 0;
"11" = 0;
"2" = 0;
"3" = 0;
"4" = 0;
"5" = 0;
"6" = 0;
"7" = 0;
"8" = 0;
"9" = 0;
};
};
width = 161;
}
);
leftKerningGroup = a;
rightKerningGroup = u;
rightMetricsKey = u;
unicode = 0061;
},
{
glyphname = ae;
lastChange = "2024-01-24 20:48:04 +0000";
layers = (
{
anchors = (
{
name = bottom;
position = "{119, 0}";
},
{
name = top;
position = "{119, 600}";
}
);
components = (
{
alignment = -1;
name = e;
transform = "{1, 0, 0, 1, 88, 0}";
}
);
layerId = "03715FCC-FE87-43AF-962B-9C8D97F38189";
paths = (
{
closed = 1;
nodes = (
"92 -10 OFFCURVE",
"114 14 OFFCURVE",
"114 114 CURVE",
"142 114 LINE",
"142 320 LINE SMOOTH",
"142 486 OFFCURVE",
"142 610 OFFCURVE",
"41 610 CURVE",
"41 560 LINE",
"54 570 OFFCURVE",
"64 574 OFFCURVE",
"73 574 CURVE SMOOTH",
"103 574 OFFCURVE",
"104 535 OFFCURVE",
"104 418 CURVE",
"30 324 OFFCURVE",
"18 286 OFFCURVE",
"18 200 CURVE SMOOTH",
"18 89 LINE SMOOTH",
"18 22 OFFCURVE",
"38 -10 OFFCURVE",
"68 -10 CURVE SMOOTH"
);
},
{
closed = 1;
nodes = (
"67 40 OFFCURVE",
"58 52 OFFCURVE",
"58 82 CURVE SMOOTH",
"58 207 LINE SMOOTH",
"58 271 OFFCURVE",
"62 333 OFFCURVE",
"104 403 CURVE",
"104 99 LINE SMOOTH",
"104 66 OFFCURVE",
"90 40 OFFCURVE",
"76 40 CURVE SMOOTH"
);
}
);
userData = {
com.hugojourdan.ColorFlow = {
"0" = 0;
"1" = 0;
"10" = 0;
"11" = 0;
"2" = 0;
"3" = 0;
"4" = 0;
"5" = 0;
"6" = 0;
"7" = 0;
"8" = 0;
"9" = 0;
};
};
width = 237;
}
);
leftKerningGroup = a;
leftMetricsKey = a;
rightKerningGroup = e;
rightMetricsKey = e;
unicode = 00E6;
},
{
glyphname = b;
lastChange = "2024-01-24 19:15:42 +0000";
layers = (
{
background = {
paths = (
{
closed = 1;
nodes = (
"123 -10 OFFCURVE",
"143 23 OFFCURVE",
"143 69 CURVE SMOOTH",
"143 511 LINE SMOOTH",
"143 575 OFFCURVE",
"120 609 OFFCURVE",
"95 609 CURVE SMOOTH",
"74 609 OFFCURVE",
"53 580 OFFCURVE",
"51 517 CURVE SMOOTH",
"57 536 LINE SMOOTH",
"57 556 OFFCURVE",
"69 570 OFFCURVE",
"80 570 CURVE SMOOTH",
"92 570 OFFCURVE",
"103 556 OFFCURVE",
"103 518 CURVE SMOOTH",
"103 78 LINE SMOOTH",
"103 51 OFFCURVE",
"92 34 OFFCURVE",
"81 34 CURVE SMOOTH",
"69 34 OFFCURVE",
"57 66 OFFCURVE",
"57 112 CURVE",
"51 118 LINE",
"53 26 OFFCURVE",
"77 -10 OFFCURVE",
"99 -10 CURVE SMOOTH"
);
},
{
closed = 1;
nodes = (
"45 0 LINE",
"52 61 LINE",
"57 61 LINE",
"57 730 LINE",
"19 680 LINE",
"19 61 LINE",
"10 0 LINE"
);
}
);
};
layerId = "03715FCC-FE87-43AF-962B-9C8D97F38189";
paths = (
{
closed = 1;
nodes = (
"123 -10 OFFCURVE",
"143 23 OFFCURVE",
"143 69 CURVE SMOOTH",
"143 511 LINE SMOOTH",
"143 575 OFFCURVE",
"120 609 OFFCURVE",
"95 609 CURVE SMOOTH",
"74 609 OFFCURVE",
"53 580 OFFCURVE",
"51 517 CURVE SMOOTH",
"57 536 LINE SMOOTH",
"57 556 OFFCURVE",
"69 570 OFFCURVE",
"80 570 CURVE SMOOTH",
"92 570 OFFCURVE",
"103 556 OFFCURVE",
"103 518 CURVE SMOOTH",
"103 78 LINE SMOOTH",
"103 51 OFFCURVE",
"92 34 OFFCURVE",
"81 34 CURVE SMOOTH",
"69 34 OFFCURVE",
"57 66 OFFCURVE",
"57 112 CURVE",
"51 118 LINE",
"53 26 OFFCURVE",
"77 -10 OFFCURVE",
"99 -10 CURVE SMOOTH"
);
},
{
closed = 1;
nodes = (
"45 0 LINE",
"52 61 LINE",
"57 61 LINE",
"57 730 LINE",
"19 680 LINE",
"19 61 LINE",
"10 0 LINE"
);
}
);
userData = {
com.hugojourdan.ColorFlow = {
"0" = 0;
"1" = 0;
"10" = 0;
"11" = 0;
"2" = 0;
"3" = 0;
"4" = 0;
"5" = 0;
"6" = 0;
"7" = 0;
"8" = 0;
"9" = 0;
};
};
width = 158;
},
{
associatedMasterId = "03715FCC-FE87-43AF-962B-9C8D97F38189";
background = {
paths = (
{
closed = 1;
nodes = (
"57 730 LINE",
"57 61 LINE",
"53 61 LINE",
"45 0 LINE",
"10 0 LINE",
"19 61 LINE",
"19 680 LINE"
);
},
{
closed = 1;
nodes = (
"141 69 LINE SMOOTH",
"141 -26 OFFCURVE",
"55 -62 OFFCURVE",
"51 118 CURVE",
"57 99 LINE",
"57 8 OFFCURVE",
"103 24 OFFCURVE",
"103 78 CURVE SMOOTH",
"103 518 LINE SMOOTH",
"103 593 OFFCURVE",
"57 575 OFFCURVE",
"57 536 CURVE SMOOTH",
"51 517 LINE SMOOTH",
"55 647 OFFCURVE",
"141 634 OFFCURVE",
"141 511 CURVE SMOOTH"
);
}
);
};
layerId = "C01CBEBF-4B85-47A5-984E-7F29AF960C84";
name = "19 Jul 23, 9:06";
paths = (
{
closed = 1;
nodes = (
"123 -10 OFFCURVE",
"143 23 OFFCURVE",
"143 69 CURVE SMOOTH",
"143 242 LINE SMOOTH",
"143 306 OFFCURVE",
"120 340 OFFCURVE",
"95 340 CURVE SMOOTH",
"74 340 OFFCURVE",
"53 311 OFFCURVE",
"51 248 CURVE SMOOTH",
"57 267 LINE SMOOTH",
"57 287 OFFCURVE",
"69 301 OFFCURVE",
"80 301 CURVE SMOOTH",
"92 301 OFFCURVE",
"103 287 OFFCURVE",
"103 249 CURVE SMOOTH",
"103 78 LINE SMOOTH",
"103 51 OFFCURVE",
"92 34 OFFCURVE",
"81 34 CURVE SMOOTH",
"69 34 OFFCURVE",
"57 66 OFFCURVE",
"57 112 CURVE",
"51 118 LINE",
"53 26 OFFCURVE",
"77 -10 OFFCURVE",
"99 -10 CURVE SMOOTH"
);
},
{
closed = 1;
nodes = (
"45 0 LINE",
"52 61 LINE",
"57 61 LINE",
"57 461 LINE",
"19 411 LINE",
"19 61 LINE",
"10 0 LINE"
);
}
);
width = 158;
}
);
leftKerningGroup = n;
rightKerningGroup = o;
rightMetricsKey = o;
unicode = 0062;
},
{
glyphname = c;
lastChange = "2024-01-24 19:15:56 +0000";
layers = (
{
anchors = (
{
name = bottom;
position = "{79, 0}";
},
{
name = top;
position = "{89, 600}";
}
);
background = {
paths = (
{
closed = 1;
nodes = (
"12 348 LINE SMOOTH",
"12 478 OFFCURVE",
"37 610 OFFCURVE",
"128 610 CURVE",
"128 560 LINE",
"45 574 OFFCURVE",
"52 564 OFFCURVE",
"52 477 CURVE SMOOTH",
"52 122 LINE SMOOTH",
"52 36 OFFCURVE",
"45 26 OFFCURVE",
"128 40 CURVE",
"128 -10 LINE",
"37 -10 OFFCURVE",
"12 122 OFFCURVE",
"12 251 CURVE SMOOTH"
);
}
);
};
layerId = "03715FCC-FE87-43AF-962B-9C8D97F38189";
paths = (
{
closed = 1;
nodes = (
"128 40 LINE",
"109 37 OFFCURVE",
"94 35 OFFCURVE",
"83 35 CURVE SMOOTH",
"52 35 OFFCURVE",
"52 56 OFFCURVE",
"52 122 CURVE SMOOTH",
"52 477 LINE SMOOTH",
"52 544 OFFCURVE",
"52 565 OFFCURVE",
"84 565 CURVE SMOOTH",
"94 565 OFFCURVE",
"109 563 OFFCURVE",
"128 560 CURVE",
"128 610 LINE",
"37 610 OFFCURVE",
"12 478 OFFCURVE",
"12 348 CURVE SMOOTH",
"12 251 LINE SMOOTH",
"12 122 OFFCURVE",
"37 -10 OFFCURVE",
"128 -10 CURVE"
);
}
);
userData = {
com.hugojourdan.ColorFlow = {
"0" = 0;
"1" = 0;
"10" = 0;
"11" = 0;
"2" = 0;
"3" = 0;
"4" = 0;
"5" = 0;
"6" = 0;
"7" = 0;
"8" = 0;
"9" = 0;
};
};
width = 130;
}
);
leftKerningGroup = c;
leftMetricsKey = "=o-3";
rightKerningGroup = c;
unicode = 0063;
},
{
glyphname = d;
lastChange = "2024-01-24 19:16:16 +0000";
layers = (
{
anchors = (
{
name = bottom;
position = "{76, 0}";
},
{
name = caron.alt;
position = "{153, 665}";
},
{
name = center;
position = "{76, 300}";
},
{
name = top;
position = "{76, 800}";
},
{
name = topright;
position = "{131, 800}";
}
);
background = {
paths = (
{
closed = 1;
nodes = (
"77 -10 OFFCURVE",
"103 35 OFFCURVE",
"105 118 CURVE",
"99 99 LINE",
"99 66 OFFCURVE",
"85 40 OFFCURVE",
"71 40 CURVE SMOOTH",
"61 40 OFFCURVE",
"53 52 OFFCURVE",
"53 82 CURVE SMOOTH",
"53 518 LINE SMOOTH",
"53 556 OFFCURVE",
"65 570 OFFCURVE",
"76 570 CURVE SMOOTH",
"88 570 OFFCURVE",
"99 556 OFFCURVE",
"99 536 CURVE",
"105 517 LINE",
"103 580 OFFCURVE",
"82 609 OFFCURVE",
"61 609 CURVE SMOOTH",
"38 609 OFFCURVE",
"15 575 OFFCURVE",
"15 511 CURVE SMOOTH",
"15 89 LINE SMOOTH",
"15 22 OFFCURVE",
"33 -10 OFFCURVE",
"53 -10 CURVE SMOOTH"
);
},
{
closed = 1;
nodes = (
"146 0 LINE",
"137 61 LINE",
"137 730 LINE",
"99 680 LINE",
"99 61 LINE",
"103 61 LINE",
"111 0 LINE"
);
}
);
};
guideLines = (
{
angle = 90;
position = "{15, 115}";
},
{
angle = 90;
position = "{53, 115}";
}
);
layerId = "03715FCC-FE87-43AF-962B-9C8D97F38189";
paths = (
{
closed = 1;
nodes = (
"77 -10 OFFCURVE",
"103 35 OFFCURVE",
"105 118 CURVE",
"99 99 LINE",
"99 66 OFFCURVE",
"85 40 OFFCURVE",
"71 40 CURVE SMOOTH",
"61 40 OFFCURVE",
"53 52 OFFCURVE",
"53 82 CURVE SMOOTH",
"53 518 LINE SMOOTH",
"53 556 OFFCURVE",
"65 570 OFFCURVE",
"76 570 CURVE SMOOTH",
"88 570 OFFCURVE",
"99 556 OFFCURVE",
"99 536 CURVE",
"105 517 LINE",
"103 580 OFFCURVE",
"82 609 OFFCURVE",
"61 609 CURVE SMOOTH",
"38 609 OFFCURVE",
"15 575 OFFCURVE",
"15 511 CURVE SMOOTH",
"15 89 LINE SMOOTH",
"15 22 OFFCURVE",
"33 -10 OFFCURVE",
"53 -10 CURVE SMOOTH"
);
},
{
closed = 1;
nodes = (
"146 0 LINE",
"137 61 LINE",
"137 730 LINE",
"99 680 LINE",
"99 61 LINE",
"103 61 LINE",
"111 0 LINE"
);
}
);
userData = {
com.hugojourdan.ColorFlow = {
"0" = 0;
"1" = 0;
"10" = 0;
"11" = 0;
"2" = 0;
"3" = 0;
"4" = 0;
"5" = 0;
"6" = 0;
"7" = 0;
"8" = 0;
"9" = 0;
};
};
width = 151;
}
);
leftKerningGroup = o;
leftMetricsKey = o;
rightKerningGroup = o;
rightMetricsKey = "=u-5";
unicode = 0064;
},
{
glyphname = dcroat;
lastChange = "2024-01-24 20:48:04 +0000";
layers = (
{
components = (
{
name = d;
}
);
layerId = "03715FCC-FE87-43AF-962B-9C8D97F38189";
paths = (
{
closed = 1;
nodes = (
"159 635 LINE",
"159 645 LINE",
"45 645 LINE",
"45 635 LINE"
);
}
);
userData = {
com.hugojourdan.ColorFlow = {
"0" = 0;
"1" = 0;
"10" = 0;
"11" = 0;
"2" = 0;
"3" = 0;
"4" = 0;
"5" = 0;
"6" = 0;
"7" = 0;
"8" = 0;
"9" = 0;
};
};
width = 151;
}
);
unicode = 0111;
},
{
glyphname = eth;
lastChange = "2024-01-24 20:48:04 +0000";
layers = (
{
background = {
paths = (
{
closed = 1;
nodes = (
"116 -10 OFFCURVE",
"142 27 OFFCURVE",
"142 106 CURVE SMOOTH",
"142 545 LINE SMOOTH",
"142 634 OFFCURVE",
"98 697 OFFCURVE",
"37 713 CURVE",
"37 705 LINE",
"86 687 OFFCURVE",
"104 628 OFFCURVE",
"104 574 CURVE SMOOTH",
"104 537 LINE",
"110 518 LINE",
"109 536 OFFCURVE",
"107 551 OFFCURVE",
"104 564 CURVE SMOOTH",
"97 594 OFFCURVE",
"81 610 OFFCURVE",
"66 610 CURVE SMOOTH",
"43 610 OFFCURVE",
"20 576 OFFCURVE",
"20 512 CURVE SMOOTH",
"20 106 LINE SMOOTH",
"20 26 OFFCURVE",
"46 -10 OFFCURVE",
"81 -10 CURVE SMOOTH"
);
},
{
closed = 1;
nodes = (
"58 0 OFFCURVE",
"58 43 OFFCURVE",
"58 114 CURVE SMOOTH",
"58 519 LINE SMOOTH",
"58 557 OFFCURVE",
"69 571 OFFCURVE",
"81 571 CURVE SMOOTH",
"92 571 OFFCURVE",
"104 557 OFFCURVE",
"104 537 CURVE SMOOTH",
"104 114 LINE SMOOTH",
"104 42 OFFCURVE",
"103 0 OFFCURVE",
"81 0 CURVE SMOOTH"
);
},
{
closed = 1;
nodes = (
"147 686 LINE",
"142 694 LINE",
"42 629 LINE",
"48 621 LINE"
);
}
);
};
layerId = "03715FCC-FE87-43AF-962B-9C8D97F38189";
paths = (
{
closed = 1;
nodes = (
"116 -10 OFFCURVE",
"142 27 OFFCURVE",
"142 106 CURVE SMOOTH",
"142 545 LINE SMOOTH",
"142 634 OFFCURVE",
"98 697 OFFCURVE",
"37 713 CURVE",
"37 705 LINE",
"86 687 OFFCURVE",
"104 628 OFFCURVE",
"104 574 CURVE SMOOTH",
"104 537 LINE",
"110 518 LINE",
"109 536 OFFCURVE",
"107 551 OFFCURVE",
"104 564 CURVE SMOOTH",
"97 594 OFFCURVE",
"81 610 OFFCURVE",
"66 610 CURVE SMOOTH",
"43 610 OFFCURVE",
"20 576 OFFCURVE",
"20 512 CURVE SMOOTH",
"20 106 LINE SMOOTH",
"20 26 OFFCURVE",
"46 -10 OFFCURVE",
"81 -10 CURVE SMOOTH"
);
},
{
closed = 1;
nodes = (
"58 0 OFFCURVE",
"58 43 OFFCURVE",
"58 114 CURVE SMOOTH",
"58 519 LINE SMOOTH",
"58 557 OFFCURVE",
"69 571 OFFCURVE",
"81 571 CURVE SMOOTH",
"92 571 OFFCURVE",
"104 557 OFFCURVE",
"104 537 CURVE SMOOTH",
"104 114 LINE SMOOTH",
"104 42 OFFCURVE",
"103 0 OFFCURVE",
"81 0 CURVE SMOOTH"
);
},
{
closed = 1;
nodes = (
"147 686 LINE",
"142 694 LINE",
"42 629 LINE",
"48 621 LINE"
);
}
);
userData = {
com.hugojourdan.ColorFlow = {
"0" = 0;
"1" = 0;
"10" = 0;
"11" = 0;
"2" = 0;
"3" = 0;
"4" = 0;
"5" = 0;
"6" = 0;
"7" = 0;
"8" = 0;
"9" = 0;
};
};
width = 162;
}
);
unicode = 00F0;
},
{
glyphname = e;
lastChange = "2024-01-24 19:16:40 +0000";
layers = (
{
associatedMasterId = "03715FCC-FE87-43AF-962B-9C8D97F38189";
background = {
paths = (
{
closed = 0;
nodes = (
"147 106 LINE",
"147 26 OFFCURVE",
"121 -10 OFFCURVE",
"86 -10 CURVE SMOOTH",
"51 -10 OFFCURVE",
"25 27 OFFCURVE",
"25 106 CURVE"
);
},
{
closed = 0;
nodes = (
"63 114 LINE",
"63 42 OFFCURVE",
"71 10 OFFCURVE",
"86 10 CURVE SMOOTH",
"101 10 OFFCURVE",
"109 43 OFFCURVE",
"109 114 CURVE"
);
},
{
closed = 0;
nodes = (
"109 114 LINE",
"109 486 LINE SMOOTH",
"109 557 OFFCURVE",
"101 590 OFFCURVE",
"86 590 CURVE SMOOTH",
"71 590 OFFCURVE",
"63 558 OFFCURVE",
"63 486 CURVE SMOOTH",
"63 114 LINE"
);
},
{
closed = 0;
nodes = (
"25 106 LINE",
"25 494 LINE SMOOTH",
"25 573 OFFCURVE",
"51 610 OFFCURVE",
"86 610 CURVE SMOOTH",
"121 610 OFFCURVE",
"147 574 OFFCURVE",
"147 494 CURVE SMOOTH",
"147 106 LINE"
);
}
);
};
layerId = "191157B4-0E04-4649-BD52-23E45439D7EE";
name = "Apr 12 20, 16:25";
paths = (
{
closed = 1;
nodes = (
"147 494 LINE SMOOTH",
"147 574 OFFCURVE",
"121 610 OFFCURVE",
"86 610 CURVE SMOOTH",
"51 610 OFFCURVE",
"25 573 OFFCURVE",
"25 494 CURVE SMOOTH",
"25 231 LINE SMOOTH",
"25 98 OFFCURVE",
"36 -8 OFFCURVE",
"149 -8 CURVE",
"149 44 LINE",
"76 42 OFFCURVE",
"63 98 OFFCURVE",
"63 177 CURVE SMOOTH",
"63 486 LINE SMOOTH",
"63 558 OFFCURVE",
"71 590 OFFCURVE",
"86 590 CURVE SMOOTH",
"101 590 OFFCURVE",
"109 557 OFFCURVE",
"109 486 CURVE SMOOTH",
"109 345 LINE",
"147 345 LINE"
);
},
{
closed = 1;
nodes = (
"32 345 LINE",
"147 345 LINE",
"147 355 LINE",
"32 355 LINE"
);
}
);
width = 147;
},
{
associatedMasterId = "03715FCC-FE87-43AF-962B-9C8D97F38189";
background = {
paths = (
{
closed = 0;
nodes = (
"147 106 LINE",
"147 26 OFFCURVE",
"121 -10 OFFCURVE",
"86 -10 CURVE SMOOTH",
"51 -10 OFFCURVE",
"25 27 OFFCURVE",
"25 106 CURVE"
);
},
{
closed = 0;
nodes = (
"63 114 LINE",
"63 42 OFFCURVE",
"71 10 OFFCURVE",
"86 10 CURVE SMOOTH",
"101 10 OFFCURVE",
"109 43 OFFCURVE",
"109 114 CURVE"
);
},
{
closed = 0;
nodes = (
"109 114 LINE",
"109 486 LINE SMOOTH",
"109 557 OFFCURVE",
"101 590 OFFCURVE",
"86 590 CURVE SMOOTH",
"71 590 OFFCURVE",
"63 558 OFFCURVE",
"63 486 CURVE SMOOTH",
"63 114 LINE"
);
},
{
closed = 0;
nodes = (
"25 106 LINE",
"25 494 LINE SMOOTH",
"25 573 OFFCURVE",
"51 610 OFFCURVE",
"86 610 CURVE SMOOTH",
"121 610 OFFCURVE",
"147 574 OFFCURVE",
"147 494 CURVE SMOOTH",
"147 106 LINE"
);
}
);
};
layerId = "620768AE-C93D-42FF-B36F-1E6EC83AD7BD";
name = "Apr 12 20, 16:30";
paths = (
{
closed = 1;
nodes = (
"109 325 LINE",
"109 486 LINE SMOOTH",
"109 557 OFFCURVE",
"101 590 OFFCURVE",
"86 590 CURVE SMOOTH",
"71 590 OFFCURVE",
"63 558 OFFCURVE",
"63 486 CURVE SMOOTH",
"63 172 LINE SMOOTH",
"63 98 OFFCURVE",
"76 42 OFFCURVE",
"149 44 CURVE",
"149 -3 LINE",
"36 -3 OFFCURVE",
"25 103 OFFCURVE",
"25 231 CURVE SMOOTH",
"25 494 LINE SMOOTH",
"25 573 OFFCURVE",
"51 610 OFFCURVE",
"86 610 CURVE SMOOTH",
"121 610 OFFCURVE",
"147 574 OFFCURVE",
"147 494 CURVE SMOOTH",
"147 325 LINE"
);
},
{
closed = 1;
nodes = (
"147 320 LINE",
"147 225 OFFCURVE",
"61 189 OFFCURVE",
"57 369 CURVE",
"63 350 LINE",
"63 259 OFFCURVE",
"109 275 OFFCURVE",
"109 329 CURVE",
"147 329 LINE"
);
}
);
width = 147;
},
{
anchors = (
{
name = bottom;
position = "{75, 0}";
},
{
name = ogonek;
position = "{130, 10}";
},
{
name = top;
position = "{75, 600}";
}
);
guideLines = (
{
angle = 90;
position = "{139, 263}";
},
{
angle = 90;
position = "{288, 110}";
}
);
layerId = "03715FCC-FE87-43AF-962B-9C8D97F38189";
paths = (
{
closed = 1;
nodes = (
"139 41 LINE",
"111 31 OFFCURVE",
"93 26 OFFCURVE",
"83 26 CURVE SMOOTH",
"57 26 OFFCURVE",
"55 57 OFFCURVE",
"55 122 CURVE SMOOTH",
"55 550 LINE SMOOTH",
"55 584 OFFCURVE",
"66 600 OFFCURVE",
"77 600 CURVE SMOOTH",
"88 600 OFFCURVE",
"99 584 OFFCURVE",
"99 550 CURVE SMOOTH",
"99 273 LINE",
"40 273 LINE",
"40 263 LINE",
"139 263 LINE",
"139 520 LINE SMOOTH",
"139 580 OFFCURVE",
"108 610 OFFCURVE",
"77 610 CURVE SMOOTH",
"46 610 OFFCURVE",
"15 580 OFFCURVE",
"15 520 CURVE SMOOTH",
"15 201 LINE SMOOTH",
"15 73 OFFCURVE",
"34 -8 OFFCURVE",
"139 -9 CURVE"
);
}
);
userData = {
com.hugojourdan.ColorFlow = {
"0" = 0;
"1" = 0;
"10" = 0;
"11" = 0;
"2" = 0;
"3" = 0;
"4" = 0;
"5" = 0;
"6" = 0;
"7" = 0;
"8" = 0;
"9" = 0;
};
};
width = 149;
},
{
associatedMasterId = "03715FCC-FE87-43AF-962B-9C8D97F38189";
background = {
paths = (
{
closed = 1;
nodes = (
"109 439 LINE",
"109 486 LINE SMOOTH",
"109 557 OFFCURVE",
"101 590 OFFCURVE",
"86 590 CURVE SMOOTH",
"71 590 OFFCURVE",
"63 558 OFFCURVE",
"63 486 CURVE SMOOTH",
"63 122 LINE SMOOTH",
"63 34 OFFCURVE",
"51 13 OFFCURVE",
"149 41 CURVE",
"149 -9 LINE",
"36 -9 OFFCURVE",
"25 73 OFFCURVE",
"25 201 CURVE SMOOTH",
"25 494 LINE SMOOTH",
"25 573 OFFCURVE",
"51 610 OFFCURVE",
"86 610 CURVE SMOOTH",
"121 610 OFFCURVE",
"147 574 OFFCURVE",
"147 494 CURVE SMOOTH",
"147 439 LINE"
);
},
{
closed = 1;
nodes = (
"147 370 OFFCURVE",
"136 333 OFFCURVE",
"49 225 CURVE",
"41 225 LINE",
"104 309 OFFCURVE",
"109 380 OFFCURVE",
"109 454 CURVE",
"147 461 LINE"
);
}
);
};
layerId = "F6AD3B07-542D-4CDC-82C2-41DEB7BBAB93";
name = "Jun 10 20, 22:52";
paths = (
{
closed = 1;
nodes = (
"109 389 LINE",
"109 550 LINE SMOOTH",
"109 617 OFFCURVE",
"63 617 OFFCURVE",
"63 550 CURVE SMOOTH",
"63 122 LINE SMOOTH",
"63 31 OFFCURVE",
"49 7 OFFCURVE",
"149 41 CURVE",
"149 -9 LINE",
"42 -8 OFFCURVE",
"25 73 OFFCURVE",
"25 201 CURVE SMOOTH",
"25 520 LINE SMOOTH",
"25 640 OFFCURVE",
"147 640 OFFCURVE",
"147 520 CURVE SMOOTH",
"147 389 LINE"
);
},
{
closed = 1;
nodes = (
"147 290 OFFCURVE",
"136 263 OFFCURVE",
"49 245 CURVE",
"49 255 LINE",
"109 264 OFFCURVE",
"109 300 OFFCURVE",
"109 394 CURVE",
"147 401 LINE"
);
}
);
width = 159;
},
{
associatedMasterId = "03715FCC-FE87-43AF-962B-9C8D97F38189";
background = {
paths = (
{
closed = 1;
nodes = (
"109 439 LINE",
"109 486 LINE SMOOTH",
"109 557 OFFCURVE",
"101 590 OFFCURVE",
"86 590 CURVE SMOOTH",
"71 590 OFFCURVE",
"63 558 OFFCURVE",
"63 486 CURVE SMOOTH",
"63 122 LINE SMOOTH",
"63 34 OFFCURVE",
"51 13 OFFCURVE",
"149 41 CURVE",
"149 -9 LINE",
"36 -9 OFFCURVE",
"25 73 OFFCURVE",
"25 201 CURVE SMOOTH",
"25 494 LINE SMOOTH",
"25 573 OFFCURVE",
"51 610 OFFCURVE",
"86 610 CURVE SMOOTH",
"121 610 OFFCURVE",
"147 574 OFFCURVE",
"147 494 CURVE SMOOTH",
"147 439 LINE"
);
},
{
closed = 1;
nodes = (
"147 370 OFFCURVE",
"136 333 OFFCURVE",
"49 225 CURVE",
"41 225 LINE",
"104 309 OFFCURVE",
"109 380 OFFCURVE",
"109 454 CURVE",
"147 461 LINE"
);
}
);
};
layerId = "A50682CA-2EA2-46D5-898A-6207578E91AF";
name = "Jun 10 20, 22:52";
paths = (
{
closed = 1;
nodes = (
"109 439 LINE",
"109 486 LINE SMOOTH",
"109 557 OFFCURVE",
"101 590 OFFCURVE",
"86 590 CURVE SMOOTH",
"71 590 OFFCURVE",
"63 558 OFFCURVE",
"63 486 CURVE SMOOTH",
"63 122 LINE SMOOTH",
"63 34 OFFCURVE",
"51 13 OFFCURVE",
"149 41 CURVE",
"149 -9 LINE",
"36 -9 OFFCURVE",
"25 73 OFFCURVE",
"25 201 CURVE SMOOTH",
"25 494 LINE SMOOTH",
"25 573 OFFCURVE",
"51 610 OFFCURVE",
"86 610 CURVE SMOOTH",
"121 610 OFFCURVE",
"147 574 OFFCURVE",
"147 494 CURVE SMOOTH",
"147 439 LINE"
);
},
{
closed = 1;
nodes = (
"147 370 OFFCURVE",
"136 333 OFFCURVE",
"49 225 CURVE",
"41 225 LINE",
"104 309 OFFCURVE",
"109 380 OFFCURVE",
"109 454 CURVE",
"147 461 LINE"
);
}
);
width = 159;
}
);
leftKerningGroup = o;
leftMetricsKey = o;
rightKerningGroup = e;
unicode = 0065;
},
{
glyphname = f;
lastChange = "2024-01-24 20:04:38 +0000";
layers = (
{
background = {
paths = (
{
closed = 1;
nodes = (
"61 0 LINE",
"61 594 LINE",
"46 634 OFFCURVE",
"38 657 OFFCURVE",
"38 669 CURVE SMOOTH",
"38 677 OFFCURVE",
"42 680 OFFCURVE",
"49 680 CURVE SMOOTH",
"60 680 OFFCURVE",
"78 674 OFFCURVE",
"103 669 CURVE",
"103 721 LINE",
"26 721 OFFCURVE",
"18 665 OFFCURVE",
"26 592 CURVE",
"23 590 LINE",
"23 0 LINE"
);
},
{
closed = 1;
nodes = (
"87 590 LINE",
"87 600 LINE",
"3 600 LINE",
"3 590 LINE"
);
}
);
};
layerId = "03715FCC-FE87-43AF-962B-9C8D97F38189";
paths = (
{
closed = 1;
nodes = (
"61 0 LINE",
"61 594 LINE",
"46 634 OFFCURVE",
"38 657 OFFCURVE",
"38 669 CURVE SMOOTH",
"38 677 OFFCURVE",
"42 680 OFFCURVE",
"49 680 CURVE SMOOTH",
"60 680 OFFCURVE",
"78 674 OFFCURVE",
"103 669 CURVE",
"103 721 LINE",
"41 721 OFFCURVE",
"24 684 OFFCURVE",
"24 632 CURVE SMOOTH",
"24 619 OFFCURVE",
"24 606 OFFCURVE",
"26 592 CURVE",
"23 590 LINE",
"23 0 LINE"
);
},
{
closed = 1;
nodes = (
"87 590 LINE",
"87 600 LINE",
"3 600 LINE",
"3 590 LINE"
);
}
);
userData = {
com.hugojourdan.ColorFlow = {
"0" = 0;
"1" = 0;
"10" = 0;
"11" = 0;
"2" = 0;
"3" = 0;
"4" = 0;
"5" = 0;
"6" = 0;
"7" = 0;
"8" = 0;
"9" = 0;
};
};
width = 83;
}
);
leftKerningGroup = f;
rightKerningGroup = f;
unicode = 0066;
},
{
glyphname = g;
lastChange = "2024-01-24 20:04:38 +0000";
layers = (
{
associatedMasterId = "03715FCC-FE87-43AF-962B-9C8D97F38189";
background = {
paths = (
{
closed = 1;
nodes = (
"148 54 OFFCURVE",
"122 18 OFFCURVE",
"87 18 CURVE SMOOTH",
"52 18 OFFCURVE",
"25 55 OFFCURVE",
"25 134 CURVE SMOOTH",
"25 494 LINE SMOOTH",
"25 573 OFFCURVE",
"52 610 OFFCURVE",
"87 610 CURVE SMOOTH",
"122 610 OFFCURVE",
"148 574 OFFCURVE",
"148 494 CURVE SMOOTH",
"148 134 LINE SMOOTH"
);
},
{
closed = 1;
nodes = (
"110 557 OFFCURVE",
"102 590 OFFCURVE",
"87 590 CURVE SMOOTH",
"72 590 OFFCURVE",
"64 558 OFFCURVE",
"64 486 CURVE SMOOTH",
"64 142 LINE SMOOTH",
"64 70 OFFCURVE",
"72 38 OFFCURVE",
"87 38 CURVE SMOOTH",
"102 38 OFFCURVE",
"110 71 OFFCURVE",
"110 142 CURVE SMOOTH",
"110 486 LINE SMOOTH"
);
},
{
closed = 1;
nodes = (
"85 -179 CURVE SMOOTH",
"-31 -179 OFFCURVE",
"-19 -67 OFFCURVE",
"94 -62 CURVE",
"75 -68 LINE",
"40 -68 OFFCURVE",
"39 -161 OFFCURVE",
"84 -161 CURVE SMOOTH",
"137 -161 OFFCURVE",
"132 -69 OFFCURVE",
"107 -69 CURVE SMOOTH",
"50 -69 OFFCURVE",
"34 -50 OFFCURVE",
"34 -31 CURVE SMOOTH",
"34 1 OFFCURVE",
"63 19 OFFCURVE",
"116 21 CURVE",
"97 15 LINE",
"84 15 OFFCURVE",
"68 2 OFFCURVE",
"68 -12 CURVE SMOOTH",
"68 -21 OFFCURVE",
"80 -31 OFFCURVE",
"100 -31 CURVE SMOOTH",
"192 -31 OFFCURVE",
"193 -179 OFFCURVE"
);
}
);
};
layerId = "D2306485-198E-4C94-8C71-42E6A33B2104";
name = "Apr 12 20, 14:25";
paths = (
{
closed = 1;
nodes = (
"148 118 OFFCURVE",
"122 82 OFFCURVE",
"87 82 CURVE SMOOTH",
"52 82 OFFCURVE",
"25 119 OFFCURVE",
"25 198 CURVE SMOOTH",
"25 494 LINE SMOOTH",
"25 573 OFFCURVE",
"52 610 OFFCURVE",
"87 610 CURVE SMOOTH",
"122 610 OFFCURVE",
"148 574 OFFCURVE",
"148 494 CURVE SMOOTH",
"148 198 LINE SMOOTH"
);
},
{
closed = 1;
nodes = (
"110 557 OFFCURVE",
"102 590 OFFCURVE",
"87 590 CURVE SMOOTH",
"72 590 OFFCURVE",
"64 558 OFFCURVE",
"64 486 CURVE SMOOTH",
"64 206 LINE SMOOTH",
"64 134 OFFCURVE",
"72 102 OFFCURVE",
"87 102 CURVE SMOOTH",
"102 102 OFFCURVE",
"110 135 OFFCURVE",
"110 206 CURVE SMOOTH",
"110 486 LINE SMOOTH"
);
},
{
closed = 1;
nodes = (
"148 -125 OFFCURVE",
"122 -161 OFFCURVE",
"87 -161 CURVE SMOOTH",
"52 -161 OFFCURVE",
"25 -124 OFFCURVE",
"25 -45 CURVE SMOOTH",
"25 -27 LINE SMOOTH",
"25 52 OFFCURVE",
"52 89 OFFCURVE",
"87 89 CURVE SMOOTH",
"122 89 OFFCURVE",
"148 53 OFFCURVE",
"148 -27 CURVE SMOOTH",
"148 -45 LINE SMOOTH"
);
},
{
closed = 1;
nodes = (
"110 36 OFFCURVE",
"102 69 OFFCURVE",
"87 69 CURVE SMOOTH",
"72 69 OFFCURVE",
"64 37 OFFCURVE",
"64 -35 CURVE SMOOTH",
"64 -37 LINE SMOOTH",
"64 -109 OFFCURVE",
"72 -141 OFFCURVE",
"87 -141 CURVE SMOOTH",
"102 -141 OFFCURVE",
"110 -108 OFFCURVE",
"110 -37 CURVE SMOOTH",
"110 -35 LINE SMOOTH"
);
}
);
width = 600;
},
{
associatedMasterId = "03715FCC-FE87-43AF-962B-9C8D97F38189";
background = {
paths = (
{
closed = 1;
nodes = (
"56 -8 OFFCURVE",
"50 -57 OFFCURVE",
"97 -57 CURVE SMOOTH",
"129 -57 LINE",
"129 -95 LINE",
"101 -95 LINE SMOOTH",
"13 -95 OFFCURVE",
"-3 -24 OFFCURVE",
"77 -1 CURVE",
"77 3 LINE",
"46 4 OFFCURVE",
"26 35 OFFCURVE",
"26 113 CURVE SMOOTH",
"25 511 LINE SMOOTH",
"25 578 OFFCURVE",
"44 610 OFFCURVE",
"64 610 CURVE SMOOTH",
"88 610 OFFCURVE",
"114 565 OFFCURVE",
"116 482 CURVE",
"110 501 LINE",
"110 534 OFFCURVE",
"96 560 OFFCURVE",
"83 560 CURVE SMOOTH",
"73 560 OFFCURVE",
"64 548 OFFCURVE",
"64 518 CURVE SMOOTH",
"64 121 LINE SMOOTH",
"64 49 OFFCURVE",
"72 17 OFFCURVE",
"87 17 CURVE SMOOTH",
"102 17 OFFCURVE",
"110 50 OFFCURVE",
"110 121 CURVE SMOOTH",
"110 539 LINE",
"114 539 LINE",
"122 600 LINE",
"157 600 LINE",
"148 539 LINE",
"148 113 LINE SMOOTH",
"148 44 OFFCURVE",
"128 7 OFFCURVE",
"101 -1 CURVE"
);
}
);
};
guideLines = (
{
angle = -89.8064;
position = "{26, 346}";
},
{
angle = -89.8064;
position = "{64, 346}";
},
{
angle = -89.8064;
position = "{110, 346}";
},
{
angle = -89.8064;
position = "{148, 346}";
}
);
layerId = "29355277-FDBE-4D35-B656-640295F950CB";
name = "Apr 12 20, 15:43";
paths = (
{
closed = 1;
nodes = (
"53 -18 OFFCURVE",
"50 -57 OFFCURVE",
"97 -57 CURVE SMOOTH",
"155 -57 LINE",
"155 -101 LINE",
"101 -101 LINE SMOOTH",
"13 -101 OFFCURVE",
"-3 -24 OFFCURVE",
"77 -1 CURVE",
"77 3 LINE",
"46 4 OFFCURVE",
"26 35 OFFCURVE",
"26 113 CURVE SMOOTH",
"25 511 LINE SMOOTH",
"25 578 OFFCURVE",
"44 610 OFFCURVE",
"64 610 CURVE SMOOTH",
"88 610 OFFCURVE",
"114 565 OFFCURVE",
"116 482 CURVE",
"110 501 LINE",
"110 534 OFFCURVE",
"96 560 OFFCURVE",
"83 560 CURVE SMOOTH",
"73 560 OFFCURVE",
"64 548 OFFCURVE",
"64 518 CURVE SMOOTH",
"64 121 LINE SMOOTH",
"64 42 OFFCURVE",
"72 10 OFFCURVE",
"87 10 CURVE SMOOTH",
"102 10 OFFCURVE",
"110 43 OFFCURVE",
"110 121 CURVE SMOOTH",
"110 539 LINE",
"114 539 LINE",
"122 600 LINE",
"157 600 LINE",
"148 539 LINE",
"148 113 LINE SMOOTH",
"148 44 OFFCURVE",
"128 9 OFFCURVE",
"101 -1 CURVE SMOOTH"
);
}
);
width = 161;
},
{
associatedMasterId = "03715FCC-FE87-43AF-962B-9C8D97F38189";
background = {
paths = (
{
closed = 1;
nodes = (
"53 -18 OFFCURVE",
"50 -57 OFFCURVE",
"97 -57 CURVE SMOOTH",
"155 -57 LINE",
"155 -101 LINE",
"101 -101 LINE SMOOTH",
"13 -101 OFFCURVE",
"-3 -24 OFFCURVE",
"77 -1 CURVE",
"77 3 LINE",
"46 4 OFFCURVE",
"26 35 OFFCURVE",
"26 113 CURVE SMOOTH",
"25 511 LINE SMOOTH",
"25 578 OFFCURVE",
"44 610 OFFCURVE",
"64 610 CURVE SMOOTH",
"88 610 OFFCURVE",
"114 565 OFFCURVE",
"116 482 CURVE",
"110 501 LINE",
"110 534 OFFCURVE",
"96 560 OFFCURVE",
"83 560 CURVE SMOOTH",
"73 560 OFFCURVE",
"64 548 OFFCURVE",
"64 518 CURVE SMOOTH",
"64 121 LINE SMOOTH",
"64 42 OFFCURVE",
"72 10 OFFCURVE",
"87 10 CURVE SMOOTH",
"102 10 OFFCURVE",
"110 43 OFFCURVE",
"110 121 CURVE SMOOTH",
"110 539 LINE",
"114 539 LINE",
"122 600 LINE",
"157 600 LINE",
"148 539 LINE",
"148 113 LINE SMOOTH",
"148 44 OFFCURVE",
"128 9 OFFCURVE",
"101 -1 CURVE SMOOTH"
);
}
);
};
guideLines = (
{
angle = -89.8064;
position = "{26, 346}";
},
{
angle = -89.8064;
position = "{64, 346}";
},
{
angle = -89.8064;
position = "{110, 346}";
},
{
angle = -89.8064;
position = "{148, 346}";
}
);
layerId = "D5D48FC8-EC8F-486F-8EDF-7E2190B98611";
name = "Apr 12 20, 15:47";
paths = (
{
closed = 1;
nodes = (
"53 -18 OFFCURVE",
"50 -67 OFFCURVE",
"97 -67 CURVE SMOOTH",
"155 -67 LINE",
"155 -107 LINE",
"101 -107 LINE SMOOTH",
"9 -107 OFFCURVE",
"-7 -24 OFFCURVE",
"77 -1 CURVE",
"77 3 LINE",
"46 4 OFFCURVE",
"26 35 OFFCURVE",
"26 113 CURVE SMOOTH",
"25 511 LINE SMOOTH",
"25 578 OFFCURVE",
"44 610 OFFCURVE",
"64 610 CURVE SMOOTH",
"88 610 OFFCURVE",
"114 565 OFFCURVE",
"116 482 CURVE",
"110 501 LINE",
"110 534 OFFCURVE",
"96 560 OFFCURVE",
"83 560 CURVE SMOOTH",
"73 560 OFFCURVE",
"64 548 OFFCURVE",
"64 518 CURVE SMOOTH",
"64 121 LINE SMOOTH",
"64 42 OFFCURVE",
"72 10 OFFCURVE",
"87 10 CURVE SMOOTH",
"102 10 OFFCURVE",
"110 43 OFFCURVE",
"110 121 CURVE SMOOTH",
"110 539 LINE",
"114 539 LINE",
"122 600 LINE",
"157 600 LINE",
"148 539 LINE",
"148 113 LINE SMOOTH",
"148 44 OFFCURVE",
"128 9 OFFCURVE",
"101 -1 CURVE SMOOTH"
);
}
);
width = 161;
},
{
associatedMasterId = "03715FCC-FE87-43AF-962B-9C8D97F38189";
background = {
paths = (
{
closed = 1;
nodes = (
"126 -157 OFFCURVE",
"126 -99 CURVE SMOOTH",
"126 -48 OFFCURVE",
"65 -59 OFFCURVE",
"65 -109 CURVE SMOOTH",
"65 -158 OFFCURVE"
);
},
{
closed = 1;
nodes = (
"164 -14 OFFCURVE",
"164 -87 CURVE SMOOTH",
"164 -167 OFFCURVE",
"27 -190 OFFCURVE",
"27 -115 CURVE SMOOTH",
"27 -95 OFFCURVE",
"44 -75 OFFCURVE",
"80 -65 CURVE",
"80 -61 LINE",
"16 -53 OFFCURVE",
"11 -22 OFFCURVE",
"76 -1 CURVE",
"76 3 LINE",
"45 4 OFFCURVE",
"25 35 OFFCURVE",
"25 113 CURVE SMOOTH",
"24 511 LINE SMOOTH",
"24 578 OFFCURVE",
"43 610 OFFCURVE",
"63 610 CURVE SMOOTH",
"87 610 OFFCURVE",
"113 565 OFFCURVE",
"115 482 CURVE",
"109 501 LINE",
"109 534 OFFCURVE",
"95 560 OFFCURVE",
"82 560 CURVE SMOOTH",
"72 560 OFFCURVE",
"63 548 OFFCURVE",
"63 518 CURVE SMOOTH",
"63 121 LINE SMOOTH",
"63 42 OFFCURVE",
"71 10 OFFCURVE",
"86 10 CURVE SMOOTH",
"101 10 OFFCURVE",
"109 43 OFFCURVE",
"109 121 CURVE SMOOTH",
"109 539 LINE",
"113 539 LINE",
"121 600 LINE",
"156 600 LINE",
"147 539 LINE",
"147 113 LINE SMOOTH",
"147 44 OFFCURVE",
"127 10 OFFCURVE",
"100 -1 CURVE SMOOTH",
"78 -10 OFFCURVE",
"65 -17 OFFCURVE",
"65 -21 CURVE SMOOTH",
"65 -48 OFFCURVE"
);
}
);
};
layerId = "AF675402-2FD5-498B-9DD7-5C3FEECAC5F6";
name = "Apr 12 20, 15:54";
paths = (
{
closed = 1;
nodes = (
"126 -157 OFFCURVE",
"126 -99 CURVE SMOOTH",
"126 -48 OFFCURVE",
"65 -59 OFFCURVE",
"65 -109 CURVE SMOOTH",
"65 -158 OFFCURVE"
);
},
{
closed = 1;
nodes = (
"164 -14 OFFCURVE",
"164 -87 CURVE SMOOTH",
"164 -167 OFFCURVE",
"27 -190 OFFCURVE",
"27 -115 CURVE SMOOTH",
"27 -95 OFFCURVE",
"44 -75 OFFCURVE",
"80 -65 CURVE",
"80 -61 LINE",
"16 -53 OFFCURVE",
"11 -22 OFFCURVE",
"76 -1 CURVE",
"76 3 LINE",
"45 4 OFFCURVE",
"25 35 OFFCURVE",
"25 113 CURVE SMOOTH",
"24 511 LINE SMOOTH",
"24 578 OFFCURVE",
"43 610 OFFCURVE",
"63 610 CURVE SMOOTH",
"87 610 OFFCURVE",
"113 565 OFFCURVE",
"115 482 CURVE",
"109 501 LINE",
"109 534 OFFCURVE",
"95 560 OFFCURVE",
"82 560 CURVE SMOOTH",
"72 560 OFFCURVE",
"63 548 OFFCURVE",
"63 518 CURVE SMOOTH",
"63 121 LINE SMOOTH",
"63 42 OFFCURVE",
"71 10 OFFCURVE",
"86 10 CURVE SMOOTH",
"101 10 OFFCURVE",
"109 43 OFFCURVE",
"109 121 CURVE SMOOTH",
"109 539 LINE",
"113 539 LINE",
"121 600 LINE",
"156 600 LINE",
"147 539 LINE",
"147 113 LINE SMOOTH",
"147 44 OFFCURVE",
"127 10 OFFCURVE",
"100 -1 CURVE SMOOTH",
"78 -10 OFFCURVE",
"65 -17 OFFCURVE",
"65 -21 CURVE SMOOTH",
"65 -48 OFFCURVE"
);
}
);
width = 176;
},
{
anchors = (
{
name = bottom;
position = "{77, -150}";
},
{
name = top;
position = "{87, 600}";
}
);
background = {
paths = (
{
closed = 1;
nodes = (
"114 -156 OFFCURVE",
"158 -124 OFFCURVE",
"158 -55 CURVE SMOOTH",
"158 48 OFFCURVE",
"57 27 OFFCURVE",
"57 54 CURVE SMOOTH",
"57 58 OFFCURVE",
"70 65 OFFCURVE",
"92 74 CURVE SMOOTH",
"119 85 OFFCURVE",
"139 119 OFFCURVE",
"139 188 CURVE SMOOTH",
"139 539 LINE",
"148 600 LINE",
"113 600 LINE",
"105 539 LINE",
"101 539 LINE",
"101 196 LINE SMOOTH",
"101 118 OFFCURVE",
"93 85 OFFCURVE",
"78 85 CURVE SMOOTH",
"63 85 OFFCURVE",
"55 117 OFFCURVE",
"55 196 CURVE SMOOTH",
"55 518 LINE SMOOTH",
"55 548 OFFCURVE",
"64 560 OFFCURVE",
"74 560 CURVE SMOOTH",
"87 560 OFFCURVE",
"101 524 OFFCURVE",
"101 491 CURVE",
"107 482 LINE",
"105 565 OFFCURVE",
"79 610 OFFCURVE",
"55 610 CURVE SMOOTH",
"35 610 OFFCURVE",
"15 578 OFFCURVE",
"15 511 CURVE SMOOTH",
"15 188 LINE SMOOTH",
"15 110 OFFCURVE",
"37 79 OFFCURVE",
"68 78 CURVE",
"68 74 LINE",
"3 53 OFFCURVE",
"10 22 OFFCURVE",
"74 14 CURVE",
"74 10 LINE",
"53 1 OFFCURVE",
"17 -30 OFFCURVE",
"17 -85 CURVE SMOOTH",
"17 -134 OFFCURVE",
"46 -156 OFFCURVE",
"76 -156 CURVE SMOOTH"
);
},
{
closed = 1;
nodes = (
"71 -145 OFFCURVE",
"57 -123 OFFCURVE",
"57 -73 CURVE SMOOTH",
"57 30 OFFCURVE",
"118 41 OFFCURVE",
"118 -66 CURVE SMOOTH",
"118 -120 OFFCURVE",
"102 -145 OFFCURVE",
"86 -145 CURVE SMOOTH"
);
}
);
};
guideLines = (
{
angle = 90;
position = "{17, 174}";
},
{
angle = 90;
position = "{55, 174}";
},
{
angle = 90;
position = "{101, 174}";
},
{
angle = 90;
position = "{139, 174}";
}
);
layerId = "03715FCC-FE87-43AF-962B-9C8D97F38189";
paths = (
{
closed = 1;
nodes = (
"114 -156 OFFCURVE",
"158 -124 OFFCURVE",
"158 -55 CURVE SMOOTH",
"158 48 OFFCURVE",
"57 27 OFFCURVE",
"57 54 CURVE SMOOTH",
"57 58 OFFCURVE",
"70 65 OFFCURVE",
"92 74 CURVE SMOOTH",
"119 85 OFFCURVE",
"139 119 OFFCURVE",
"139 188 CURVE SMOOTH",
"139 539 LINE",
"148 600 LINE",
"113 600 LINE",
"105 539 LINE",
"101 539 LINE",
"101 196 LINE SMOOTH",
"101 118 OFFCURVE",
"93 85 OFFCURVE",
"78 85 CURVE SMOOTH",
"63 85 OFFCURVE",
"53 117 OFFCURVE",
"53 196 CURVE SMOOTH",
"53 518 LINE SMOOTH",
"53 548 OFFCURVE",
"64 560 OFFCURVE",
"74 560 CURVE SMOOTH",
"87 560 OFFCURVE",
"101 524 OFFCURVE",
"101 491 CURVE",
"107 482 LINE",
"105 565 OFFCURVE",
"79 610 OFFCURVE",
"55 610 CURVE SMOOTH",
"35 610 OFFCURVE",
"15 578 OFFCURVE",
"15 511 CURVE SMOOTH",
"15 188 LINE SMOOTH",
"15 110 OFFCURVE",
"37 79 OFFCURVE",
"68 78 CURVE",
"68 74 LINE",
"37 64 OFFCURVE",
"23 52 OFFCURVE",
"23 41 CURVE SMOOTH",
"23 29 OFFCURVE",
"40 18 OFFCURVE",
"74 14 CURVE",
"74 10 LINE",
"53 1 OFFCURVE",
"17 -30 OFFCURVE",
"17 -85 CURVE SMOOTH",
"17 -134 OFFCURVE",
"46 -156 OFFCURVE",
"76 -156 CURVE SMOOTH"
);
},
{
closed = 1;
nodes = (
"71 -145 OFFCURVE",
"57 -123 OFFCURVE",
"57 -73 CURVE SMOOTH",
"57 -19 OFFCURVE",
"74 9 OFFCURVE",
"89 9 CURVE SMOOTH",
"104 9 OFFCURVE",
"118 -15 OFFCURVE",
"118 -66 CURVE SMOOTH",
"118 -120 OFFCURVE",
"102 -145 OFFCURVE",
"86 -145 CURVE SMOOTH"
);
}
);
userData = {
com.hugojourdan.ColorFlow = {
"0" = 0;
"1" = 0;
"10" = 0;
"11" = 0;
"2" = 0;
"3" = 0;
"4" = 0;
"5" = 0;
"6" = 0;
"7" = 0;
"8" = 0;
"9" = 0;
};
};
width = 155;
}
);
leftKerningGroup = o;
leftMetricsKey = o;
rightKerningGroup = g;
unicode = 0067;
},
{
glyphname = h;
lastChange = "2024-01-24 19:20:04 +0000";
layers = (
{
layerId = "03715FCC-FE87-43AF-962B-9C8D97F38189";
paths = (
{
closed = 1;
nodes = (
"142 0 LINE",
"142 511 LINE",
"142 578 OFFCURVE",
"124 610 OFFCURVE",
"104 610 CURVE SMOOTH",
"80 610 OFFCURVE",
"54 565 OFFCURVE",
"52 482 CURVE",
"58 488 LINE",
"58 521 OFFCURVE",
"69 556 OFFCURVE",
"85 556 CURVE SMOOTH",
"93 556 OFFCURVE",
"104 545 OFFCURVE",
"104 519 CURVE",
"104 0 LINE"
);
},
{
closed = 1;
nodes = (
"58 0 LINE",
"58 538 LINE",
"54 538 LINE",
"54 730 LINE",
"20 680 LINE",
"20 0 LINE"
);
}
);
userData = {
com.hugojourdan.ColorFlow = {
"0" = 0;
"1" = 0;
"10" = 0;
"11" = 0;
"2" = 0;
"3" = 0;
"4" = 0;
"5" = 0;
"6" = 0;
"7" = 0;
"8" = 0;
"9" = 0;
};
};
width = 159;
}
);
leftKerningGroup = n;
leftMetricsKey = l;
rightKerningGroup = n;
rightMetricsKey = n;
unicode = 0068;
},
{
glyphname = i;
lastChange = "2024-01-24 18:56:59 +0000";
layers = (
{
components = (
{
name = idotless;
transform = "{1, 0, 0, 1, 5, 0}";
}
);
guideLines = (
{
angle = 90;
position = "{21, 624}";
},
{
angle = 90;
position = "{59, 624}";
}
);
layerId = "03715FCC-FE87-43AF-962B-9C8D97F38189";
paths = (
{
closed = 1;
nodes = (
"53 655 OFFCURVE",
"63 676 OFFCURVE",
"63 707 CURVE SMOOTH",
"63 738 OFFCURVE",
"54 759 OFFCURVE",
"39 759 CURVE SMOOTH",
"24 759 OFFCURVE",
"15 739 OFFCURVE",
"15 707 CURVE SMOOTH",
"15 676 OFFCURVE",
"25 655 OFFCURVE",
"39 655 CURVE SMOOTH"
);
}
);
userData = {
com.hugojourdan.ColorFlow = {
"0" = 0;
"1" = 0;
"10" = 0;
"11" = 0;
"2" = 0;
"3" = 0;
"4" = 0;
"5" = 0;
"6" = 0;
"7" = 0;
"8" = 0;
"9" = 0;
};
};
width = 78;
}
);
leftKerningGroup = i;
rightKerningGroup = i;
unicode = 0069;
},
{
glyphname = idotless;
lastChange = "2024-01-24 18:56:59 +0000";
layers = (
{
anchors = (
{
name = bottom;
position = "{34, 0}";
},
{
name = ogonek;
position = "{38, 10}";
},
{
name = top;
position = "{34, 600}";
}
);
layerId = "03715FCC-FE87-43AF-962B-9C8D97F38189";
paths = (
{
closed = 1;
nodes = (
"53 0 LINE",
"53 600 LINE",
"15 600 LINE",
"15 0 LINE"
);
}
);
userData = {
com.hugojourdan.ColorFlow = {
"0" = 0;
"1" = 0;
"10" = 0;
"11" = 0;
"2" = 0;
"3" = 0;
"4" = 0;
"5" = 0;
"6" = 0;
"7" = 0;
"8" = 0;
"9" = 0;
};
};
width = 68;
}
);
unicode = 0131;
},
{
glyphname = j;
lastChange = "2023-12-18 06:18:21 +0000";
layers = (
{
background = {
paths = (
{
closed = 1;
nodes = (
"58 600 LINE",
"20 600 LINE",
"20 0 LINE",
"20 -84 OFFCURVE",
"18 -86 OFFCURVE",
"-33 -82 CURVE",
"-33 -132 LINE",
"47 -132 OFFCURVE",
"58 6 OFFCURVE",
"58 79 CURVE"
);
},
{
closed = 1;
nodes = (
"62 738 OFFCURVE",
"53 759 OFFCURVE",
"38 759 CURVE SMOOTH",
"23 759 OFFCURVE",
"14 739 OFFCURVE",
"14 707 CURVE SMOOTH",
"14 676 OFFCURVE",
"24 655 OFFCURVE",
"38 655 CURVE SMOOTH",
"52 655 OFFCURVE",
"62 676 OFFCURVE",
"62 707 CURVE SMOOTH"
);
}
);
};
components = (
{
name = jdotless;
},
{
name = dotaccentcomb;
transform = "{1, 0, 0, 1, -7, 0}";
}
);
layerId = "03715FCC-FE87-43AF-962B-9C8D97F38189";
userData = {
com.hugojourdan.ColorFlow = {
"0" = 0;
"1" = 0;
"10" = 0;
"11" = 0;
"2" = 0;
"3" = 0;
"4" = 0;
"5" = 0;
"6" = 0;
"7" = 0;
"8" = 0;
"9" = 0;
};
};
width = 73;
}
);
leftKerningGroup = j;
rightKerningGroup = j;
unicode = 006A;
},
{
glyphname = jdotless;
lastChange = "2024-01-24 20:48:04 +0000";
layers = (
{
anchors = (
{
name = bottom;
position = "{37, -150}";
},
{
name = top;
position = "{37, 600}";
}
);
layerId = "03715FCC-FE87-43AF-962B-9C8D97F38189";
paths = (
{
closed = 1;
nodes = (
"47 -132 OFFCURVE",
"58 10 OFFCURVE",
"58 103 CURVE",
"58 600 LINE",
"20 600 LINE",
"20 -7 LINE",
"20 -20 OFFCURVE",
"20 -32 OFFCURVE",
"20 -43 CURVE SMOOTH",
"20 -79 OFFCURVE",
"18 -104 OFFCURVE",
"3 -104 CURVE SMOOTH",
"-5 -104 OFFCURVE",
"-16 -97 OFFCURVE",
"-33 -82 CURVE",
"-33 -132 LINE"
);
}
);
userData = {
com.hugojourdan.ColorFlow = {
"0" = 0;
"1" = 0;
"10" = 0;
"11" = 0;
"2" = 0;
"3" = 0;
"4" = 0;
"5" = 0;
"6" = 0;
"7" = 0;
"8" = 0;
"9" = 0;
};
};
width = 73;
}
);
unicode = 0237;
},
{
glyphname = k;
lastChange = "2024-01-24 19:21:46 +0000";
layers = (
{
anchors = (
{
name = bottom;
position = "{78, 0}";
},
{
name = top;
position = "{78, 800}";
}
);
guideLines = (
{
angle = 90;
position = "{154, 363}";
}
);
layerId = "03715FCC-FE87-43AF-962B-9C8D97F38189";
paths = (
{
closed = 1;
nodes = (
"153 0 LINE",
"68 222 LINE",
"73 348 OFFCURVE",
"101 570 OFFCURVE",
"154 558 CURVE",
"154 608 LINE",
"86 608 OFFCURVE",
"75 491 OFFCURVE",
"66 389 CURVE",
"62 233 LINE",
"46 233 LINE",
"46 195 LINE",
"62 195 LINE",
"107 0 LINE"
);
},
{
closed = 1;
nodes = (
"58 0 LINE",
"58 730 LINE",
"20 680 LINE",
"20 0 LINE"
);
}
);
userData = {
com.hugojourdan.ColorFlow = {
"0" = 0;
"1" = 0;
"10" = 0;
"11" = 0;
"2" = 0;
"3" = 0;
"4" = 0;
"5" = 0;
"6" = 0;
"7" = 0;
"8" = 0;
"9" = 0;
};
};
width = 156;
},
{
associatedMasterId = "03715FCC-FE87-43AF-962B-9C8D97F38189";
background = {
paths = (
{
closed = 1;
nodes = (
"58 0 LINE",
"58 730 LINE",
"20 680 LINE",
"20 0 LINE"
);
},
{
closed = 1;
nodes = (
"58 232 LINE",
"58 362 OFFCURVE",
"125 541 OFFCURVE",
"154 600 CURVE",
"109 600 LINE",
"79 498 OFFCURVE",
"68 407 OFFCURVE",
"62 346 CURVE",
"39 346 LINE",
"39 232 LINE"
);
},
{
closed = 1;
nodes = (
"94 1 LINE",
"138 0 LINE",
"97 464 LINE",
"84 464 LINE"
);
}
);
};
layerId = "104E0CC9-A1B3-4474-BAEC-68F2EE0FD792";
name = "Apr 21 20, 18:49";
paths = (
{
closed = 1;
nodes = (
"58 0 LINE",
"58 730 LINE",
"20 680 LINE",
"20 0 LINE"
);
},
{
closed = 1;
nodes = (
"58 232 LINE",
"58 362 OFFCURVE",
"125 541 OFFCURVE",
"154 600 CURVE",
"109 600 LINE",
"79 498 OFFCURVE",
"68 407 OFFCURVE",
"62 346 CURVE",
"39 346 LINE",
"39 232 LINE"
);
},
{
closed = 1;
nodes = (
"94 1 LINE",
"138 0 LINE",
"109 496 LINE",
"94 496 LINE"
);
}
);
width = 169;
},
{
associatedMasterId = "03715FCC-FE87-43AF-962B-9C8D97F38189";
background = {
paths = (
{
closed = 1;
nodes = (
"58 0 LINE",
"58 730 LINE",
"20 680 LINE",
"20 0 LINE"
);
},
{
closed = 1;
nodes = (
"58 262 LINE",
"58 372 OFFCURVE",
"126 541 OFFCURVE",
"155 600 CURVE",
"110 600 LINE",
"78 495 OFFCURVE",
"65 442 OFFCURVE",
"62 381 CURVE",
"39 381 LINE",
"39 262 LINE"
);
}
);
};
layerId = "62C153D9-F32C-4B43-B94C-EB7BA8A2EDEF";
name = "Apr 21 20, 18:59";
paths = (
{
closed = 1;
nodes = (
"58 0 LINE",
"58 730 LINE",
"20 680 LINE",
"20 0 LINE"
);
},
{
closed = 1;
nodes = (
"58 232 LINE",
"58 362 OFFCURVE",
"125 541 OFFCURVE",
"154 600 CURVE",
"109 600 LINE",
"79 498 OFFCURVE",
"68 407 OFFCURVE",
"62 346 CURVE",
"39 346 LINE",
"39 232 LINE"
);
},
{
closed = 1;
nodes = (
"94 1 LINE",
"138 0 LINE",
"97 464 LINE",
"84 464 LINE"
);
}
);
width = 169;
},
{
associatedMasterId = "03715FCC-FE87-43AF-962B-9C8D97F38189";
background = {
paths = (
{
closed = 1;
nodes = (
"58 0 LINE",
"58 730 LINE",
"20 680 LINE",
"20 0 LINE"
);
},
{
closed = 1;
nodes = (
"87 600 LINE",
"62 333 LINE",
"62 327 LINE",
"87 0 LINE",
"130 0 LINE",
"76 355 LINE",
"72 309 LINE",
"122 600 LINE"
);
}
);
};
layerId = "5232B82B-952F-437D-A0C1-C58E2439C930";
name = "Apr 21 20, 19:00";
paths = (
{
closed = 1;
nodes = (
"58 0 LINE",
"58 730 LINE",
"20 680 LINE",
"20 0 LINE"
);
},
{
closed = 1;
nodes = (
"87 600 LINE",
"62 333 LINE",
"62 327 LINE",
"87 0 LINE",
"130 0 LINE",
"76 355 LINE",
"72 309 LINE",
"122 600 LINE"
);
}
);
width = 130;
},
{
associatedMasterId = "03715FCC-FE87-43AF-962B-9C8D97F38189";
background = {
paths = (
{
closed = 1;
nodes = (
"58 0 LINE",
"58 730 LINE",
"20 680 LINE",
"20 0 LINE"
);
},
{
closed = 1;
nodes = (
"58 262 LINE",
"62 339 OFFCURVE",
"97 559 OFFCURVE",
"159 552 CURVE",
"159 605 LINE",
"81 605 OFFCURVE",
"71 473 OFFCURVE",
"60 353 CURVE",
"46 353 LINE",
"46 262 LINE"
);
},
{
closed = 1;
nodes = (
"150 1 LINE",
"63 332 LINE",
"51 324 LINE",
"100 1 LINE"
);
}
);
};
guideLines = (
{
angle = 90;
position = "{159, 363}";
}
);
layerId = "B1FC07CD-79DB-452F-AB50-F1BE294051C9";
name = "Apr 21 20, 19:03";
paths = (
{
closed = 1;
nodes = (
"58 0 LINE",
"58 730 LINE",
"20 680 LINE",
"20 0 LINE"
);
},
{
closed = 1;
nodes = (
"58 262 LINE",
"62 339 OFFCURVE",
"97 559 OFFCURVE",
"159 552 CURVE",
"159 605 LINE",
"81 605 OFFCURVE",
"71 473 OFFCURVE",
"60 353 CURVE",
"46 353 LINE",
"46 262 LINE"
);
},
{
closed = 1;
nodes = (
"150 1 LINE",
"63 332 LINE",
"51 324 LINE",
"100 1 LINE"
);
}
);
width = 168;
},
{
associatedMasterId = "03715FCC-FE87-43AF-962B-9C8D97F38189";
background = {
paths = (
{
closed = 1;
nodes = (
"58 0 LINE",
"58 730 LINE",
"20 680 LINE",
"20 0 LINE"
);
},
{
closed = 1;
nodes = (
"46 383 LINE",
"46 345 LINE",
"62 345 LINE",
"107 0 LINE",
"153 0 LINE",
"68 369 LINE",
"65 343 LINE",
"76 436 OFFCURVE",
"99 562 OFFCURVE",
"154 555 CURVE",
"154 605 LINE",
"76 605 OFFCURVE",
"73 503 OFFCURVE",
"62 383 CURVE"
);
}
);
};
guideLines = (
{
angle = 90;
position = "{154, 363}";
}
);
layerId = "758D33FD-B438-4463-9250-413A0A3A9D48";
name = "Apr 21 20, 21:21";
paths = (
{
closed = 1;
nodes = (
"58 0 LINE",
"58 730 LINE",
"20 680 LINE",
"20 0 LINE"
);
},
{
closed = 1;
nodes = (
"46 383 LINE",
"46 345 LINE",
"62 345 LINE",
"107 0 LINE",
"153 0 LINE",
"68 372 LINE",
"66 343 LINE",
"74 392 LINE",
"93 515 OFFCURVE",
"101 570 OFFCURVE",
"154 558 CURVE",
"154 608 LINE",
"85 608 OFFCURVE",
"75 551 OFFCURVE",
"66 449 CURVE",
"62 383 LINE"
);
}
);
width = 157;
}
);
leftKerningGroup = l;
leftMetricsKey = l;
rightKerningGroup = k;
unicode = 006B;
},
{
glyphname = l;
lastChange = "2024-01-24 19:23:22 +0000";
layers = (
{
anchors = (
{
name = bottom;
position = "{39, 0}";
},
{
name = caron.alt;
position = "{74, 665}";
},
{
name = center;
position = "{39, 400}";
},
{
name = top;
position = "{39, 700}";
},
{
name = topright;
position = "{58, 800}";
}
);
layerId = "03715FCC-FE87-43AF-962B-9C8D97F38189";
paths = (
{
closed = 1;
nodes = (
"58 0 LINE",
"58 730 LINE",
"20 680 LINE",
"20 0 LINE"
);
}
);
userData = {
com.hugojourdan.ColorFlow = {
"0" = 0;
"1" = 0;
"10" = 0;
"11" = 0;
"2" = 0;
"3" = 0;
"4" = 0;
"5" = 0;
"6" = 0;
"7" = 0;
"8" = 0;
"9" = 0;
};
};
width = 78;
}
);
leftKerningGroup = l;
rightKerningGroup = l;
unicode = 006C;
},
{
glyphname = lslash;
lastChange = "2024-01-24 20:48:04 +0000";
layers = (
{
components = (
{
name = l;
transform = "{1, 0, 0, 1, 23, 0}";
}
);
layerId = "03715FCC-FE87-43AF-962B-9C8D97F38189";
paths = (
{
closed = 1;
nodes = (
"69 314 LINE",
"128 527 LINE",
"115 527 LINE",
"56 313 LINE"
);
},
{
closed = 1;
nodes = (
"18 154 LINE",
"68 342 LINE",
"55 341 LINE",
"5 154 LINE"
);
}
);
userData = {
com.hugojourdan.ColorFlow = {
"0" = 0;
"1" = 0;
"10" = 0;
"11" = 0;
"2" = 0;
"3" = 0;
"4" = 0;
"5" = 0;
"6" = 0;
"7" = 0;
"8" = 0;
"9" = 0;
};
};
width = 133;
}
);
unicode = 0142;
},
{
glyphname = m;
lastChange = "2024-01-24 19:25:55 +0000";
layers = (
{
background = {
paths = (
{
closed = 1;
nodes = (
"213 0 LINE",
"213 511 LINE",
"213 578 OFFCURVE",
"196 610 OFFCURVE",
"178 610 CURVE SMOOTH",
"156 610 OFFCURVE",
"131 565 OFFCURVE",
"129 482 CURVE",
"135 501 LINE",
"135 539 OFFCURVE",
"147 559 OFFCURVE",
"159 559 CURVE SMOOTH",
"168 559 OFFCURVE",
"175 548 OFFCURVE",
"175 523 CURVE",
"175 0 LINE"
);
},
{
closed = 1;
nodes = (
"57 0 LINE",
"57 538 LINE",
"53 538 LINE",
"45 600 LINE",
"10 600 LINE",
"19 539 LINE",
"19 0 LINE"
);
},
{
closed = 1;
nodes = (
"135 0 LINE",
"135 511 LINE",
"135 515 OFFCURVE",
"135 519 OFFCURVE",
"135 523 CURVE",
"132 523 LINE",
"130 582 OFFCURVE",
"114 610 OFFCURVE",
"98 610 CURVE SMOOTH",
"77 610 OFFCURVE",
"53 565 OFFCURVE",
"51 482 CURVE",
"57 501 LINE",
"57 539 OFFCURVE",
"69 559 OFFCURVE",
"81 559 CURVE SMOOTH",
"90 559 OFFCURVE",
"97 548 OFFCURVE",
"97 523 CURVE",
"97 0 LINE"
);
},
{
closed = 1;
nodes = (
"135 522 LINE",
"135 538 LINE",
"131 538 LINE",
"131 522 LINE"
);
}
);
};
layerId = "03715FCC-FE87-43AF-962B-9C8D97F38189";
paths = (
{
closed = 1;
nodes = (
"213 0 LINE",
"213 511 LINE",
"213 578 OFFCURVE",
"196 610 OFFCURVE",
"178 610 CURVE SMOOTH",
"156 610 OFFCURVE",
"131 565 OFFCURVE",
"129 482 CURVE",
"135 501 LINE",
"135 539 OFFCURVE",
"147 559 OFFCURVE",
"159 559 CURVE SMOOTH",
"168 559 OFFCURVE",
"175 548 OFFCURVE",
"175 523 CURVE",
"175 0 LINE"
);
},
{
closed = 1;
nodes = (
"57 0 LINE",
"57 538 LINE",
"53 538 LINE",
"45 600 LINE",
"10 600 LINE",
"19 539 LINE",
"19 0 LINE"
);
},
{
closed = 1;
nodes = (
"135 0 LINE",
"135 511 LINE",
"135 515 OFFCURVE",
"135 519 OFFCURVE",
"135 523 CURVE",
"132 523 LINE",
"130 582 OFFCURVE",
"114 610 OFFCURVE",
"98 610 CURVE SMOOTH",
"77 610 OFFCURVE",
"53 565 OFFCURVE",
"51 482 CURVE",
"57 501 LINE",
"57 539 OFFCURVE",
"69 559 OFFCURVE",
"81 559 CURVE SMOOTH",
"90 559 OFFCURVE",
"97 548 OFFCURVE",
"97 523 CURVE",
"97 0 LINE"
);
},
{
closed = 1;
nodes = (
"135 522 LINE",
"135 538 LINE",
"131 538 LINE",
"131 522 LINE"
);
}
);
userData = {
com.hugojourdan.ColorFlow = {
"0" = 0;
"1" = 0;
"10" = 0;
"11" = 0;
"2" = 0;
"3" = 0;
"4" = 0;
"5" = 0;
"6" = 0;
"7" = 0;
"8" = 0;
"9" = 0;
};
};
width = 230;
}
);
leftKerningGroup = n;
leftMetricsKey = n;
rightKerningGroup = n;
rightMetricsKey = n;
unicode = 006D;
},
{
glyphname = n;
lastChange = "2024-01-24 19:26:38 +0000";
layers = (
{
associatedMasterId = "03715FCC-FE87-43AF-962B-9C8D97F38189";
background = {
paths = (
{
closed = 1;
nodes = (
"141 203 OFFCURVE",
"141 2 OFFCURVE",
"141 511 CURVE SMOOTH",
"141 578 OFFCURVE",
"123 610 OFFCURVE",
"103 610 CURVE SMOOTH",
"79 610 OFFCURVE",
"53 565 OFFCURVE",
"51 482 CURVE",
"57 501 LINE",
"57 534 OFFCURVE",
"71 560 OFFCURVE",
"83 560 CURVE SMOOTH",
"94 560 OFFCURVE",
"103 549 OFFCURVE",
"103 523 CURVE SMOOTH",
"103 436 OFFCURVE",
"103 0 OFFCURVE",
"103 0 CURVE",
"141 0 LINE"
);
},
{
closed = 1;
nodes = (
"57 134 OFFCURVE",
"57 517 OFFCURVE",
"57 538 CURVE",
"53 538 LINE",
"45 600 LINE",
"10 600 LINE",
"19 539 LINE",
"19 508 OFFCURVE",
"19 134 OFFCURVE",
"19 0 CURVE",
"57 0 LINE"
);
}
);
};
layerId = "1859F303-A898-4E03-B199-505454A4C885";
name = "19 Jul 23, 9:07";
paths = (
{
closed = 1;
nodes = (
"141 0 LINE",
"141 203 OFFCURVE",
"141 -268 OFFCURVE",
"141 241 CURVE SMOOTH",
"141 308 OFFCURVE",
"123 340 OFFCURVE",
"103 340 CURVE SMOOTH",
"79 340 OFFCURVE",
"53 295 OFFCURVE",
"51 212 CURVE",
"57 231 LINE",
"57 264 OFFCURVE",
"71 290 OFFCURVE",
"83 290 CURVE SMOOTH",
"94 290 OFFCURVE",
"103 279 OFFCURVE",
"103 253 CURVE SMOOTH",
"103 166 OFFCURVE",
"103 0 OFFCURVE",
"103 0 CURVE"
);
},
{
closed = 1;
nodes = (
"57 0 LINE",
"57 134 OFFCURVE",
"57 247 OFFCURVE",
"57 268 CURVE",
"53 268 LINE",
"45 330 LINE",
"10 330 LINE",
"19 269 LINE",
"19 238 OFFCURVE",
"19 134 OFFCURVE",
"19 0 CURVE"
);
}
);
width = 156;
},
{
anchors = (
{
name = bottom;
position = "{79, 0}";
},
{
name = top;
position = "{79, 600}";
}
);
background = {
guideLines = (
{
position = "{106, 624}";
}
);
paths = (
{
closed = 1;
nodes = (
"141 0 LINE",
"141 203 OFFCURVE",
"141 2 OFFCURVE",
"141 511 CURVE SMOOTH",
"141 578 OFFCURVE",
"123 610 OFFCURVE",
"103 610 CURVE SMOOTH",
"79 610 OFFCURVE",
"53 565 OFFCURVE",
"51 482 CURVE",
"57 488 LINE",
"57 521 OFFCURVE",
"70 560 OFFCURVE",
"86 560 CURVE SMOOTH",
"95 560 OFFCURVE",
"103 548 OFFCURVE",
"103 522 CURVE",
"103 0 LINE"
);
},
{
closed = 1;
nodes = (
"57 0 LINE",
"57 134 OFFCURVE",
"57 517 OFFCURVE",
"57 538 CURVE",
"53 538 LINE",
"45 600 LINE",
"10 600 LINE",
"19 539 LINE",
"19 508 OFFCURVE",
"19 134 OFFCURVE",
"19 0 CURVE"
);
}
);
};
layerId = "03715FCC-FE87-43AF-962B-9C8D97F38189";
name = Regular;
paths = (
{
closed = 1;
nodes = (
"141 0 LINE",
"141 203 OFFCURVE",
"141 2 OFFCURVE",
"141 511 CURVE SMOOTH",
"141 578 OFFCURVE",
"123 610 OFFCURVE",
"103 610 CURVE SMOOTH",
"79 610 OFFCURVE",
"53 565 OFFCURVE",
"51 482 CURVE",
"57 488 LINE",
"57 521 OFFCURVE",
"70 560 OFFCURVE",
"86 560 CURVE SMOOTH",
"95 560 OFFCURVE",
"103 548 OFFCURVE",
"103 522 CURVE",
"103 0 LINE"
);
},
{
closed = 1;
nodes = (
"57 0 LINE",
"57 134 OFFCURVE",
"57 517 OFFCURVE",
"57 538 CURVE",
"53 538 LINE",
"45 600 LINE",
"10 600 LINE",
"19 539 LINE",
"19 508 OFFCURVE",
"19 134 OFFCURVE",
"19 0 CURVE"
);
}
);
userData = {
com.hugojourdan.ColorFlow = {
"0" = 0;
"1" = 0;
"10" = 0;
"11" = 0;
"2" = 0;
"3" = 0;
"4" = 0;
"5" = 0;
"6" = 0;
"7" = 0;
"8" = 0;
"9" = 0;
};
};
width = 158;
}
);
leftKerningGroup = n;
rightKerningGroup = n;
unicode = 006E;
},
{
glyphname = o;
lastChange = "2024-01-24 18:56:59 +0000";
layers = (
{
anchors = (
{
name = bottom;
position = "{76, 0}";
},
{
name = center;
position = "{76, 300}";
},
{
name = ogonek;
position = "{109, 10}";
},
{
name = top;
position = "{76, 600}";
},
{
name = topright;
position = "{132, 600}";
}
);
background = {
paths = (
{
closed = 1;
nodes = (
"15 -40 OFFCURVE",
"137 -40 OFFCURVE",
"137 80 CURVE SMOOTH",
"137 520 LINE SMOOTH",
"137 640 OFFCURVE",
"15 640 OFFCURVE",
"15 520 CURVE SMOOTH",
"15 80 LINE SMOOTH"
);
},
{
closed = 1;
nodes = (
"99 -17 OFFCURVE",
"53 -17 OFFCURVE",
"53 50 CURVE SMOOTH",
"53 550 LINE SMOOTH",
"53 617 OFFCURVE",
"99 617 OFFCURVE",
"99 550 CURVE SMOOTH",
"99 50 LINE SMOOTH"
);
}
);
};
layerId = "03715FCC-FE87-43AF-962B-9C8D97F38189";
paths = (
{
closed = 1;
nodes = (
"107 -10 OFFCURVE",
"137 20 OFFCURVE",
"137 80 CURVE SMOOTH",
"137 520 LINE SMOOTH",
"137 580 OFFCURVE",
"107 610 OFFCURVE",
"76 610 CURVE SMOOTH",
"46 610 OFFCURVE",
"15 580 OFFCURVE",
"15 520 CURVE SMOOTH",
"15 80 LINE SMOOTH",
"15 20 OFFCURVE",
"46 -10 OFFCURVE",
"76 -10 CURVE SMOOTH"
);
},
{
closed = 1;
nodes = (
"65 0 OFFCURVE",
"53 17 OFFCURVE",
"53 50 CURVE SMOOTH",
"53 550 LINE SMOOTH",
"53 584 OFFCURVE",
"65 600 OFFCURVE",
"76 600 CURVE SMOOTH",
"88 600 OFFCURVE",
"99 584 OFFCURVE",
"99 550 CURVE SMOOTH",
"99 50 LINE SMOOTH",
"99 17 OFFCURVE",
"88 0 OFFCURVE",
"76 0 CURVE SMOOTH"
);
}
);
userData = {
com.hugojourdan.ColorFlow = {
"0" = 0;
"1" = 0;
"10" = 0;
"11" = 0;
"2" = 0;
"3" = 0;
"4" = 0;
"5" = 0;
"6" = 0;
"7" = 0;
"8" = 0;
"9" = 0;
};
};
width = 152;
},
{
associatedMasterId = "03715FCC-FE87-43AF-962B-9C8D97F38189";
background = {
paths = (
{
closed = 1;
nodes = (
"137 26 OFFCURVE",
"111 -10 OFFCURVE",
"76 -10 CURVE SMOOTH",
"41 -10 OFFCURVE",
"15 27 OFFCURVE",
"15 106 CURVE SMOOTH",
"15 494 LINE SMOOTH",
"15 573 OFFCURVE",
"41 610 OFFCURVE",
"76 610 CURVE SMOOTH",
"111 610 OFFCURVE",
"137 574 OFFCURVE",
"137 494 CURVE SMOOTH",
"137 106 LINE SMOOTH"
);
},
{
closed = 1;
nodes = (
"99 557 OFFCURVE",
"91 590 OFFCURVE",
"76 590 CURVE SMOOTH",
"61 590 OFFCURVE",
"53 558 OFFCURVE",
"53 486 CURVE SMOOTH",
"53 114 LINE SMOOTH",
"53 42 OFFCURVE",
"61 10 OFFCURVE",
"76 10 CURVE SMOOTH",
"91 10 OFFCURVE",
"99 43 OFFCURVE",
"99 114 CURVE SMOOTH",
"99 486 LINE SMOOTH"
);
}
);
};
layerId = "801B66B4-1E37-4000-8822-8FA261EB6C9F";
name = "May 27 20, 11:45";
paths = (
{
closed = 1;
nodes = (
"137 26 OFFCURVE",
"111 -10 OFFCURVE",
"76 -10 CURVE SMOOTH",
"41 -10 OFFCURVE",
"15 27 OFFCURVE",
"15 106 CURVE SMOOTH",
"15 494 LINE SMOOTH",
"15 573 OFFCURVE",
"41 610 OFFCURVE",
"76 610 CURVE SMOOTH",
"111 610 OFFCURVE",
"137 574 OFFCURVE",
"137 494 CURVE SMOOTH",
"137 106 LINE SMOOTH"
);
},
{
closed = 1;
nodes = (
"99 577 OFFCURVE",
"91 600 OFFCURVE",
"76 600 CURVE SMOOTH",
"61 600 OFFCURVE",
"53 578 OFFCURVE",
"53 496 CURVE SMOOTH",
"53 104 LINE SMOOTH",
"53 22 OFFCURVE",
"61 0 OFFCURVE",
"76 0 CURVE SMOOTH",
"91 0 OFFCURVE",
"99 23 OFFCURVE",
"99 104 CURVE SMOOTH",
"99 496 LINE SMOOTH"
);
}
);
width = 152;
},
{
associatedMasterId = "03715FCC-FE87-43AF-962B-9C8D97F38189";
background = {
paths = (
{
closed = 1;
nodes = (
"15 -40 OFFCURVE",
"137 -40 OFFCURVE",
"137 80 CURVE SMOOTH",
"137 520 LINE SMOOTH",
"137 640 OFFCURVE",
"15 640 OFFCURVE",
"15 520 CURVE SMOOTH",
"15 80 LINE SMOOTH"
);
},
{
closed = 1;
nodes = (
"99 -17 OFFCURVE",
"53 -17 OFFCURVE",
"53 50 CURVE SMOOTH",
"53 550 LINE SMOOTH",
"53 617 OFFCURVE",
"99 617 OFFCURVE",
"99 550 CURVE SMOOTH",
"99 50 LINE SMOOTH"
);
}
);
};
layerId = "F3DCCD26-7642-4243-A015-9430A89CBE77";
name = "19 Jul 23, 9:08";
paths = (
{
closed = 1;
nodes = (
"107 -10 OFFCURVE",
"137 20 OFFCURVE",
"137 80 CURVE SMOOTH",
"137 250 LINE SMOOTH",
"137 310 OFFCURVE",
"107 340 OFFCURVE",
"76 340 CURVE SMOOTH",
"46 340 OFFCURVE",
"15 310 OFFCURVE",
"15 250 CURVE SMOOTH",
"15 80 LINE SMOOTH",
"15 20 OFFCURVE",
"46 -10 OFFCURVE",
"76 -10 CURVE SMOOTH"
);
},
{
closed = 1;
nodes = (
"65 0 OFFCURVE",
"53 17 OFFCURVE",
"53 50 CURVE SMOOTH",
"53 280 LINE SMOOTH",
"53 314 OFFCURVE",
"65 330 OFFCURVE",
"76 330 CURVE SMOOTH",
"88 330 OFFCURVE",
"99 314 OFFCURVE",
"99 280 CURVE SMOOTH",
"99 50 LINE SMOOTH",
"99 17 OFFCURVE",
"88 0 OFFCURVE",
"76 0 CURVE SMOOTH"
);
}
);
width = 152;
}
);
leftKerningGroup = o;
rightKerningGroup = o;
unicode = 006F;
},
{
glyphname = oslash;
lastChange = "2024-01-24 20:48:04 +0000";
layers = (
{
components = (
{
name = o;
}
);
layerId = "03715FCC-FE87-43AF-962B-9C8D97F38189";
paths = (
{
closed = 1;
nodes = (
"112 515 LINE",
"101 531 LINE",
"40 69 LINE",
"50 53 LINE"
);
},
{
closed = 1;
nodes = (
"29 0 LINE",
"40 50 LINE",
"32 62 LINE",
"18 0 LINE"
);
},
{
closed = 1;
nodes = (
"135 600 LINE",
"124 600 LINE",
"113 550 LINE",
"121 538 LINE"
);
}
);
userData = {
com.hugojourdan.ColorFlow = {
"0" = 0;
"1" = 0;
"10" = 0;
"11" = 0;
"2" = 0;
"3" = 0;
"4" = 0;
"5" = 0;
"6" = 0;
"7" = 0;
"8" = 0;
"9" = 0;
};
};
width = 152;
}
);
unicode = 00F8;
},
{
glyphname = oe;
lastChange = "2024-01-24 20:48:04 +0000";
layers = (
{
anchors = (
{
name = bottom;
position = "{116, 0}";
},
{
name = top;
position = "{116, 600}";
}
);
components = (
{
alignment = -1;
name = e;
transform = "{1, 0, 0, 1, 84, 0}";
}
);
layerId = "03715FCC-FE87-43AF-962B-9C8D97F38189";
paths = (
{
closed = 1;
nodes = (
"107 -10 OFFCURVE",
"137 20 OFFCURVE",
"137 80 CURVE SMOOTH",
"137 520 LINE SMOOTH",
"137 534 OFFCURVE",
"135 547 OFFCURVE",
"132 558 CURVE SMOOTH",
"122 593 OFFCURVE",
"100 610 OFFCURVE",
"76 610 CURVE SMOOTH",
"46 610 OFFCURVE",
"15 580 OFFCURVE",
"15 520 CURVE SMOOTH",
"15 80 LINE SMOOTH",
"15 20 OFFCURVE",
"46 -10 OFFCURVE",
"76 -10 CURVE SMOOTH"
);
},
{
closed = 1;
nodes = (
"65 0 OFFCURVE",
"53 17 OFFCURVE",
"53 50 CURVE SMOOTH",
"53 550 LINE SMOOTH",
"53 584 OFFCURVE",
"65 600 OFFCURVE",
"76 600 CURVE SMOOTH",
"88 600 OFFCURVE",
"99 584 OFFCURVE",
"99 550 CURVE SMOOTH",
"99 50 LINE SMOOTH",
"99 17 OFFCURVE",
"88 0 OFFCURVE",
"76 0 CURVE SMOOTH"
);
}
);
userData = {
com.hugojourdan.ColorFlow = {
"0" = 0;
"1" = 0;
"10" = 0;
"11" = 0;
"2" = 0;
"3" = 0;
"4" = 0;
"5" = 0;
"6" = 0;
"7" = 0;
"8" = 0;
"9" = 0;
};
};
width = 233;
}
);
leftKerningGroup = o;
leftMetricsKey = o;
rightKerningGroup = e;
rightMetricsKey = e;
unicode = 0153;
},
{
glyphname = p;
lastChange = "2024-01-24 18:56:59 +0000";
layers = (
{
layerId = "03715FCC-FE87-43AF-962B-9C8D97F38189";
paths = (
{
closed = 1;
nodes = (
"118 -10 OFFCURVE",
"141 25 OFFCURVE",
"141 89 CURVE",
"141 531 LINE",
"141 577 OFFCURVE",
"121 610 OFFCURVE",
"99 610 CURVE SMOOTH",
"77 610 OFFCURVE",
"53 574 OFFCURVE",
"51 482 CURVE",
"57 501 LINE",
"57 547 OFFCURVE",
"69 566 OFFCURVE",
"81 566 CURVE SMOOTH",
"92 566 OFFCURVE",
"103 549 OFFCURVE",
"103 522 CURVE",
"103 82 LINE",
"103 45 OFFCURVE",
"92 30 OFFCURVE",
"80 30 CURVE SMOOTH",
"69 30 OFFCURVE",
"57 45 OFFCURVE",
"57 64 CURVE",
"51 83 LINE",
"53 20 OFFCURVE",
"74 -10 OFFCURVE",
"95 -10 CURVE SMOOTH"
);
},
{
closed = 1;
nodes = (
"57 -81 LINE",
"57 539 LINE",
"53 539 LINE",
"45 600 LINE",
"10 600 LINE",
"19 539 LINE",
"19 -131 LINE"
);
}
);
userData = {
com.hugojourdan.ColorFlow = {
"0" = 0;
"1" = 0;
"10" = 0;
"11" = 0;
"2" = 0;
"3" = 0;
"4" = 0;
"5" = 0;
"6" = 0;
"7" = 0;
"8" = 0;
"9" = 0;
};
};
width = 156;
}
);
leftKerningGroup = n;
leftMetricsKey = n;
rightKerningGroup = o;
rightMetricsKey = o;
unicode = 0070;
},
{
glyphname = thorn;
lastChange = "2024-01-24 20:48:04 +0000";
layers = (
{
components = (
{
alignment = -1;
name = l;
}
);
layerId = "03715FCC-FE87-43AF-962B-9C8D97F38189";
paths = (
{
closed = 1;
nodes = (
"119 -10 OFFCURVE",
"142 25 OFFCURVE",
"142 89 CURVE",
"142 531 LINE",
"142 577 OFFCURVE",
"122 610 OFFCURVE",
"100 610 CURVE SMOOTH",
"78 610 OFFCURVE",
"54 574 OFFCURVE",
"52 482 CURVE",
"58 501 LINE",
"58 547 OFFCURVE",
"70 566 OFFCURVE",
"82 566 CURVE SMOOTH",
"93 566 OFFCURVE",
"104 549 OFFCURVE",
"104 522 CURVE",
"104 82 LINE",
"104 45 OFFCURVE",
"93 30 OFFCURVE",
"81 30 CURVE SMOOTH",
"70 30 OFFCURVE",
"58 45 OFFCURVE",
"58 64 CURVE",
"52 83 LINE",
"54 20 OFFCURVE",
"75 -10 OFFCURVE",
"96 -10 CURVE SMOOTH"
);
},
{
closed = 1;
nodes = (
"58 -81 LINE",
"58 86 LINE",
"20 86 LINE",
"20 -131 LINE"
);
}
);
userData = {
com.hugojourdan.ColorFlow = {
"0" = 0;
"1" = 0;
"10" = 0;
"11" = 0;
"2" = 0;
"3" = 0;
"4" = 0;
"5" = 0;
"6" = 0;
"7" = 0;
"8" = 0;
"9" = 0;
};
};
width = 157;
}
);
rightMetricsKey = o;
unicode = 00FE;
},
{
glyphname = q;
lastChange = "2024-01-24 19:27:43 +0000";
layers = (
{
layerId = "03715FCC-FE87-43AF-962B-9C8D97F38189";
paths = (
{
closed = 1;
nodes = (
"82 -9 OFFCURVE",
"103 20 OFFCURVE",
"105 83 CURVE",
"99 64 LINE",
"99 45 OFFCURVE",
"88 30 OFFCURVE",
"76 30 CURVE SMOOTH",
"65 30 OFFCURVE",
"53 45 OFFCURVE",
"53 82 CURVE",
"53 518 LINE",
"53 548 OFFCURVE",
"62 560 OFFCURVE",
"72 560 CURVE SMOOTH",
"85 560 OFFCURVE",
"99 534 OFFCURVE",
"99 501 CURVE",
"105 482 LINE",
"103 565 OFFCURVE",
"77 610 OFFCURVE",
"53 610 CURVE SMOOTH",
"33 610 OFFCURVE",
"15 578 OFFCURVE",
"15 511 CURVE",
"15 89 LINE",
"15 25 OFFCURVE",
"38 -9 OFFCURVE",
"61 -9 CURVE SMOOTH"
);
},
{
closed = 1;
nodes = (
"137 -80 LINE",
"137 539 LINE",
"146 600 LINE",
"111 600 LINE",
"103 539 LINE",
"99 539 LINE",
"99 -130 LINE"
);
}
);
userData = {
com.hugojourdan.ColorFlow = {
"0" = 0;
"1" = 0;
"10" = 0;
"11" = 0;
"2" = 0;
"3" = 0;
"4" = 0;
"5" = 0;
"6" = 0;
"7" = 0;
"8" = 0;
"9" = 0;
};
};
width = 151;
}
);
leftKerningGroup = o;
leftMetricsKey = o;
rightKerningGroup = q;
unicode = 0071;
},
{
glyphname = r;
lastChange = "2024-01-24 19:28:11 +0000";
layers = (
{
anchors = (
{
name = bottom;
position = "{38, 0}";
},
{
name = top;
position = "{55, 600}";
}
);
background = {
paths = (
{
closed = 1;
nodes = (
"57 0 LINE",
"57 492 LINE SMOOTH",
"57 528 OFFCURVE",
"62 555 OFFCURVE",
"88 555 CURVE SMOOTH",
"95 555 OFFCURVE",
"104 553 OFFCURVE",
"114 550 CURVE",
"114 610 LINE",
"92 610 OFFCURVE",
"66 594 OFFCURVE",
"55 538 CURVE",
"51 538 LINE",
"43 600 LINE",
"10 600 LINE",
"19 534 LINE",
"19 0 LINE"
);
}
);
};
layerId = "03715FCC-FE87-43AF-962B-9C8D97F38189";
paths = (
{
closed = 1;
nodes = (
"57 0 LINE",
"57 492 LINE SMOOTH",
"57 528 OFFCURVE",
"62 555 OFFCURVE",
"88 555 CURVE SMOOTH",
"95 555 OFFCURVE",
"104 553 OFFCURVE",
"114 550 CURVE",
"114 610 LINE",
"92 610 OFFCURVE",
"66 594 OFFCURVE",
"55 538 CURVE",
"51 538 LINE",
"43 600 LINE",
"10 600 LINE",
"19 534 LINE",
"19 0 LINE"
);
}
);
userData = {
com.hugojourdan.ColorFlow = {
"0" = 0;
"1" = 0;
"10" = 0;
"11" = 0;
"2" = 0;
"3" = 0;
"4" = 0;
"5" = 0;
"6" = 0;
"7" = 0;
"8" = 0;
"9" = 0;
};
};
width = 109;
},
{
associatedMasterId = "03715FCC-FE87-43AF-962B-9C8D97F38189";
background = {
paths = (
{
closed = 1;
nodes = (
"53 538 LINE",
"45 600 LINE",
"10 600 LINE",
"19 534 LINE",
"19 0 LINE",
"57 0 LINE",
"57 496 LINE",
"57 542 OFFCURVE",
"72 560 OFFCURVE",
"114 560 CURVE",
"114 610 LINE",
"81 610 OFFCURVE",
"44 574 OFFCURVE",
"51 422 CURVE",
"57 422 LINE",
"57 538 LINE"
);
}
);
};
layerId = "58DCAE51-6DC0-4A7F-83B4-9070461B9FBD";
name = "Jul 8 20, 17:00";
paths = (
{
closed = 1;
nodes = (
"53 538 LINE",
"45 600 LINE",
"10 600 LINE",
"19 534 LINE",
"19 0 LINE",
"57 0 LINE",
"57 496 LINE",
"57 542 OFFCURVE",
"72 560 OFFCURVE",
"114 560 CURVE",
"114 610 LINE",
"81 610 OFFCURVE",
"44 574 OFFCURVE",
"51 422 CURVE",
"57 422 LINE",
"57 538 LINE"
);
}
);
width = 109;
}
);
leftKerningGroup = n;
leftMetricsKey = n;
rightKerningGroup = r;
unicode = 0072;
},
{
glyphname = s;
lastChange = "2024-01-24 20:04:38 +0000";
layers = (
{
anchors = (
{
name = bottom;
position = "{61, 0}";
},
{
name = top;
position = "{70, 600}";
}
);
background = {
paths = (
{
closed = 1;
nodes = (
"56 437 OFFCURVE",
"45 492 CURVE SMOOTH",
"17 626 OFFCURVE",
"90 558 OFFCURVE",
"114 554 CURVE",
"114 606 LINE",
"76 606 OFFCURVE",
"-11 586 OFFCURVE",
"16 437 CURVE SMOOTH",
"38 313 OFFCURVE",
"47 273 OFFCURVE",
"79 108 CURVE SMOOTH",
"105 -26 OFFCURVE",
"36 41 OFFCURVE",
"3 45 CURVE",
"3 -6 LINE",
"48 -6 OFFCURVE",
"136 14 OFFCURVE",
"108 163 CURVE SMOOTH",
"85 286 OFFCURVE"
);
}
);
};
layerId = "03715FCC-FE87-43AF-962B-9C8D97F38189";
paths = (
{
closed = 1;
nodes = (
"42 -6 OFFCURVE",
"113 9 OFFCURVE",
"113 110 CURVE SMOOTH",
"113 126 OFFCURVE",
"112 143 OFFCURVE",
"108 163 CURVE",
"45 492 LINE",
"41 513 OFFCURVE",
"39 529 OFFCURVE",
"39 541 CURVE SMOOTH",
"39 567 OFFCURVE",
"47 575 OFFCURVE",
"59 575 CURVE SMOOTH",
"77 575 OFFCURVE",
"102 556 OFFCURVE",
"114 554 CURVE",
"114 606 LINE",
"81 606 OFFCURVE",
"11 591 OFFCURVE",
"11 489 CURVE SMOOTH",
"11 474 OFFCURVE",
"12 456 OFFCURVE",
"16 437 CURVE SMOOTH",
"79 108 LINE SMOOTH",
"83 87 OFFCURVE",
"85 71 OFFCURVE",
"85 59 CURVE SMOOTH",
"85 33 OFFCURVE",
"76 25 OFFCURVE",
"64 25 CURVE SMOOTH",
"46 25 OFFCURVE",
"20 43 OFFCURVE",
"3 45 CURVE",
"3 -6 LINE"
);
}
);
userData = {
com.hugojourdan.ColorFlow = {
"0" = 0;
"1" = 0;
"10" = 0;
"11" = 0;
"2" = 0;
"3" = 0;
"4" = 0;
"5" = 0;
"6" = 0;
"7" = 0;
"8" = 0;
"9" = 0;
};
};
width = 119;
},
{
associatedMasterId = "03715FCC-FE87-43AF-962B-9C8D97F38189";
background = {
paths = (
{
closed = 1;
nodes = (
"78 -16 OFFCURVE",
"30 38 OFFCURVE",
"10 43 CURVE",
"10 -9 LINE",
"38 -9 OFFCURVE",
"95 20 OFFCURVE",
"95 178 CURVE SMOOTH",
"95 273 OFFCURVE",
"62 387 OFFCURVE",
"50 470 CURVE SMOOTH",
"29 616 OFFCURVE",
"84 563 OFFCURVE",
"104 558 CURVE",
"104 610 LINE",
"76 610 OFFCURVE",
"19 581 OFFCURVE",
"19 423 CURVE SMOOTH",
"19 340 OFFCURVE",
"55 223 OFFCURVE",
"64 131 CURVE SMOOTH"
);
}
);
};
layerId = "863B1808-77F3-42C4-98DA-EB2BC8B1A007";
name = "Jun 10 20, 23:00";
paths = (
{
closed = 1;
nodes = (
"78 -16 OFFCURVE",
"30 38 OFFCURVE",
"10 43 CURVE",
"10 -9 LINE",
"38 -9 OFFCURVE",
"95 20 OFFCURVE",
"95 178 CURVE SMOOTH",
"95 273 OFFCURVE",
"62 387 OFFCURVE",
"50 470 CURVE SMOOTH",
"29 616 OFFCURVE",
"84 563 OFFCURVE",
"104 558 CURVE",
"104 610 LINE",
"76 610 OFFCURVE",
"19 581 OFFCURVE",
"19 423 CURVE SMOOTH",
"19 340 OFFCURVE",
"55 223 OFFCURVE",
"64 131 CURVE SMOOTH"
);
}
);
width = 109;
}
);
leftKerningGroup = s;
rightKerningGroup = s;
unicode = 0073;
},
{
glyphname = germandbls;
lastChange = "2024-01-24 20:48:04 +0000";
layers = (
{
anchors = (
{
name = bottom;
position = "{144, 0}";
},
{
name = top;
position = "{143, 600}";
}
);
layerId = "03715FCC-FE87-43AF-962B-9C8D97F38189";
paths = (
{
closed = 1;
nodes = (
"111 -6 OFFCURVE",
"183 9 OFFCURVE",
"183 112 CURVE SMOOTH",
"183 127 OFFCURVE",
"181 144 OFFCURVE",
"178 163 CURVE SMOOTH",
"119 491 LINE SMOOTH",
"114 517 OFFCURVE",
"113 536 OFFCURVE",
"113 552 CURVE SMOOTH",
"113 597 OFFCURVE",
"127 612 OFFCURVE",
"127 654 CURVE SMOOTH",
"127 682 OFFCURVE",
"121 720 OFFCURVE",
"82 720 CURVE SMOOTH",
"38 720 OFFCURVE",
"24 673 OFFCURVE",
"24 625 CURVE SMOOTH",
"24 614 OFFCURVE",
"25 603 OFFCURVE",
"26 592 CURVE",
"23 590 LINE",
"23 0 LINE",
"61 0 LINE",
"61 594 LINE",
"49 623 OFFCURVE",
"38 650 OFFCURVE",
"38 667 CURVE SMOOTH",
"38 678 OFFCURVE",
"44 685 OFFCURVE",
"58 685 CURVE SMOOTH",
"86 685 OFFCURVE",
"113 658 OFFCURVE",
"113 628 CURVE SMOOTH",
"113 597 OFFCURVE",
"84 566 OFFCURVE",
"84 495 CURVE SMOOTH",
"84 477 OFFCURVE",
"86 458 OFFCURVE",
"90 436 CURVE SMOOTH",
"149 108 LINE SMOOTH",
"153 89 OFFCURVE",
"154 73 OFFCURVE",
"154 62 CURVE SMOOTH",
"154 33 OFFCURVE",
"145 24 OFFCURVE",
"133 24 CURVE SMOOTH",
"116 24 OFFCURVE",
"91 43 OFFCURVE",
"77 45 CURVE",
"77 -6 LINE"
);
},
{
closed = 1;
nodes = (
"47 590 LINE",
"47 600 LINE",
"3 600 LINE",
"3 590 LINE"
);
}
);
userData = {
com.hugojourdan.ColorFlow = {
"0" = 0;
"1" = 0;
"10" = 0;
"11" = 0;
"2" = 0;
"3" = 0;
"4" = 0;
"5" = 0;
"6" = 0;
"7" = 0;
"8" = 0;
"9" = 0;
};
};
width = 188;
}
);
leftKerningGroup = f;
rightKerningGroup = s;
rightMetricsKey = s;
unicode = 00DF;
},
{
glyphname = t;
lastChange = "2024-01-24 19:29:22 +0000";
layers = (
{
anchors = (
{
name = bottom;
position = "{50, 0}";
},
{
name = caron.alt;
position = "{81, 665}";
},
{
name = center;
position = "{50, 300}";
},
{
name = top;
position = "{50, 600}";
},
{
name = topright;
position = "{79, 800}";
}
);
background = {
paths = (
{
closed = 1;
nodes = (
"23 594 LINE",
"23 602 LINE",
"23 671 LINE",
"63 721 LINE",
"63 149 LINE",
"63 41 OFFCURVE",
"10 6 OFFCURVE",
"114 42 CURVE",
"114 -10 LINE",
"21 -10 OFFCURVE",
"23 78 OFFCURVE",
"23 242 CURVE SMOOTH"
);
},
{
closed = 1;
nodes = (
"87 600 LINE",
"87 590 LINE",
"3 590 LINE",
"3 600 LINE"
);
}
);
};
layerId = "03715FCC-FE87-43AF-962B-9C8D97F38189";
paths = (
{
closed = 1;
nodes = (
"104 42 LINE",
"80 33 OFFCURVE",
"66 28 OFFCURVE",
"58 28 CURVE SMOOTH",
"51 28 OFFCURVE",
"48 32 OFFCURVE",
"48 38 CURVE SMOOTH",
"48 55 OFFCURVE",
"63 92 OFFCURVE",
"63 149 CURVE",
"63 675 LINE",
"23 625 LINE",
"23 602 LINE",
"23 594 LINE",
"23 242 LINE SMOOTH",
"23 78 OFFCURVE",
"23 -10 OFFCURVE",
"104 -10 CURVE"
);
},
{
closed = 1;
nodes = (
"87 590 LINE",
"87 600 LINE",
"3 600 LINE",
"3 590 LINE"
);
}
);
userData = {
com.hugojourdan.ColorFlow = {
"0" = 0;
"1" = 0;
"10" = 0;
"11" = 0;
"2" = 0;
"3" = 0;
"4" = 0;
"5" = 0;
"6" = 0;
"7" = 0;
"8" = 0;
"9" = 0;
};
};
width = 99;
}
);
leftKerningGroup = t;
leftMetricsKey = f;
rightKerningGroup = t;
unicode = 0074;
},
{
glyphname = u;
lastChange = "2024-01-24 18:56:59 +0000";
layers = (
{
anchors = (
{
name = bottom;
position = "{80, 0}";
},
{
name = ogonek;
position = "{134, 10}";
},
{
name = top;
position = "{80, 600}";
},
{
name = topright;
position = "{139, 600}";
}
);
layerId = "03715FCC-FE87-43AF-962B-9C8D97F38189";
paths = (
{
closed = 1;
nodes = (
"80 -10 OFFCURVE",
"106 35 OFFCURVE",
"108 118 CURVE",
"102 99 LINE",
"102 66 OFFCURVE",
"88 40 OFFCURVE",
"75 40 CURVE SMOOTH",
"65 40 OFFCURVE",
"56 52 OFFCURVE",
"56 82 CURVE SMOOTH",
"56 600 LINE",
"18 600 LINE",
"18 89 LINE SMOOTH",
"18 22 OFFCURVE",
"36 -10 OFFCURVE",
"56 -10 CURVE SMOOTH"
);
},
{
closed = 1;
nodes = (
"149 0 LINE",
"140 61 LINE",
"140 92 OFFCURVE",
"140 466 OFFCURVE",
"140 600 CURVE",
"102 600 LINE",
"102 466 OFFCURVE",
"102 83 OFFCURVE",
"102 62 CURVE",
"106 62 LINE",
"114 0 LINE"
);
}
);
userData = {
com.hugojourdan.ColorFlow = {
"0" = 0;
"1" = 0;
"10" = 0;
"11" = 0;
"2" = 0;
"3" = 0;
"4" = 0;
"5" = 0;
"6" = 0;
"7" = 0;
"8" = 0;
"9" = 0;
};
};
width = 159;
}
);
leftKerningGroup = u;
rightKerningGroup = u;
unicode = 0075;
},
{
glyphname = v;
lastChange = "2024-01-24 18:56:59 +0000";
layers = (
{
background = {
paths = (
{
closed = 1;
nodes = (
"55 -10 LINE",
"90 -10 LINE",
"140 600 LINE",
"110 600 LINE",
"87 95 LINE",
"83 95 LINE",
"46 600 LINE",
"8 600 LINE"
);
}
);
};
guideLines = (
{
angle = 90;
position = "{81, 181}";
}
);
layerId = "03715FCC-FE87-43AF-962B-9C8D97F38189";
paths = (
{
closed = 1;
nodes = (
"90 0 LINE",
"140 600 LINE",
"110 600 LINE",
"87 75 LINE",
"83 75 LINE",
"46 600 LINE",
"8 600 LINE",
"55 0 LINE"
);
}
);
userData = {
com.hugojourdan.ColorFlow = {
"0" = 0;
"1" = 0;
"10" = 0;
"11" = 0;
"2" = 0;
"3" = 0;
"4" = 0;
"5" = 0;
"6" = 0;
"7" = 0;
"8" = 0;
"9" = 0;
};
};
width = 150;
}
);
leftKerningGroup = v;
rightKerningGroup = v;
unicode = 0076;
},
{
glyphname = w;
lastChange = "2024-01-24 19:29:54 +0000";
layers = (
{
anchors = (
{
name = bottom;
position = "{115, 0}";
},
{
name = top;
position = "{115, 600}";
}
);
background = {
paths = (
{
closed = 1;
nodes = (
"90 0 LINE",
"129 600 LINE",
"103 600 LINE",
"87 105 LINE",
"83 105 LINE",
"49 600 LINE",
"8 600 LINE",
"55 0 LINE"
);
},
{
closed = 1;
nodes = (
"174 0 LINE",
"214 600 LINE",
"184 600 LINE",
"171 105 LINE",
"167 105 LINE",
"129 600 LINE",
"103 600 LINE",
"104 394 LINE",
"118 394 LINE",
"139 0 LINE"
);
}
);
};
layerId = "03715FCC-FE87-43AF-962B-9C8D97F38189";
paths = (
{
closed = 1;
nodes = (
"90 0 LINE",
"116 394 LINE",
"118 394 LINE",
"139 0 LINE",
"174 0 LINE",
"214 600 LINE",
"184 600 LINE",
"171 105 LINE",
"167 105 LINE",
"129 600 LINE",
"103 600 LINE",
"87 105 LINE",
"83 105 LINE",
"49 600 LINE",
"8 600 LINE",
"55 0 LINE"
);
}
);
userData = {
com.hugojourdan.ColorFlow = {
"0" = 0;
"1" = 0;
"10" = 0;
"11" = 0;
"2" = 0;
"3" = 0;
"4" = 0;
"5" = 0;
"6" = 0;
"7" = 0;
"8" = 0;
"9" = 0;
};
};
width = 224;
}
);
leftKerningGroup = v;
leftMetricsKey = v;
rightKerningGroup = v;
rightMetricsKey = v;
unicode = 0077;
},
{
glyphname = x;
lastChange = "2024-01-24 18:56:59 +0000";
layers = (
{
background = {
paths = (
{
closed = 1;
nodes = (
"78 387 LINE",
"72 297 LINE",
"117 600 LINE",
"87 600 LINE",
"69 363 LINE",
"65 363 LINE",
"46 600 LINE",
"6 600 LINE",
"44 297 LINE",
"50 387 LINE",
"3 0 LINE",
"36 0 LINE",
"55 310 LINE",
"59 310 LINE",
"87 0 LINE",
"127 0 LINE"
);
}
);
};
guideLines = (
{
angle = 90;
position = "{117, 302}";
},
{
angle = 90;
position = "{11, 302}";
}
);
layerId = "03715FCC-FE87-43AF-962B-9C8D97F38189";
paths = (
{
closed = 1;
nodes = (
"36 0 LINE",
"55 310 LINE",
"59 310 LINE",
"87 0 LINE",
"129 0 LINE",
"80 387 LINE",
"72 297 LINE",
"117 600 LINE",
"87 600 LINE",
"69 363 LINE",
"65 363 LINE",
"46 600 LINE",
"4 600 LINE",
"42 297 LINE",
"50 387 LINE",
"3 0 LINE"
);
}
);
userData = {
com.hugojourdan.ColorFlow = {
"0" = 0;
"1" = 0;
"10" = 0;
"11" = 0;
"2" = 0;
"3" = 0;
"4" = 0;
"5" = 0;
"6" = 0;
"7" = 0;
"8" = 0;
"9" = 0;
};
};
width = 131;
},
{
associatedMasterId = "03715FCC-FE87-43AF-962B-9C8D97F38189";
background = {
paths = (
{
closed = 1;
nodes = (
"91 0 LINE",
"126 0 LINE",
"50 600 LINE",
"15 600 LINE"
);
},
{
closed = 1;
nodes = (
"73 303 LINE",
"84 303 LINE",
"121 600 LINE",
"91 600 LINE",
"83 366 LINE",
"73 366 LINE"
);
},
{
closed = 1;
nodes = (
"59 366 LINE",
"48 366 LINE",
"7 0 LINE",
"40 0 LINE",
"49 303 LINE",
"59 303 LINE"
);
}
);
};
guideLines = (
{
angle = 90;
position = "{121, 302}";
},
{
angle = 90;
position = "{15, 302}";
}
);
layerId = "5EDFA8E5-A840-4D1E-969A-5AF9E81400BD";
name = "Apr 21 20, 19:28";
paths = (
{
closed = 1;
nodes = (
"91 0 LINE",
"126 0 LINE",
"50 600 LINE",
"15 600 LINE"
);
},
{
closed = 1;
nodes = (
"73 303 LINE",
"84 303 LINE",
"121 600 LINE",
"91 600 LINE",
"83 366 LINE",
"73 366 LINE"
);
},
{
closed = 1;
nodes = (
"59 366 LINE",
"48 366 LINE",
"7 0 LINE",
"40 0 LINE",
"49 303 LINE",
"59 303 LINE"
);
}
);
width = 136;
},
{
associatedMasterId = "03715FCC-FE87-43AF-962B-9C8D97F38189";
background = {
paths = (
{
closed = 1;
nodes = (
"55 331 LINE",
"91 0 LINE",
"126 0 LINE",
"78 338 LINE",
"50 600 LINE",
"15 600 LINE"
);
},
{
closed = 1;
nodes = (
"68 303 LINE",
"79 303 LINE",
"121 600 LINE",
"91 600 LINE",
"78 366 LINE",
"68 366 LINE"
);
},
{
closed = 1;
nodes = (
"60 374 LINE",
"49 374 LINE",
"7 0 LINE",
"40 0 LINE",
"54 303 LINE",
"64 303 LINE"
);
}
);
};
guideLines = (
{
angle = 90;
position = "{121, 302}";
},
{
angle = 90;
position = "{15, 302}";
}
);
layerId = "A921856F-D8C3-4A18-8BE5-BC0F1F27E96B";
name = "Apr 21 20, 19:29";
paths = (
{
closed = 1;
nodes = (
"55 331 LINE",
"91 0 LINE",
"126 0 LINE",
"78 338 LINE",
"50 600 LINE",
"15 600 LINE"
);
},
{
closed = 1;
nodes = (
"68 303 LINE",
"79 303 LINE",
"121 600 LINE",
"91 600 LINE",
"78 366 LINE",
"68 366 LINE"
);
},
{
closed = 1;
nodes = (
"60 374 LINE",
"49 374 LINE",
"7 0 LINE",
"40 0 LINE",
"54 303 LINE",
"64 303 LINE"
);
}
);
width = 136;
}
);
leftKerningGroup = x;
rightKerningGroup = x;
unicode = 0078;
},
{
glyphname = y;
lastChange = "2024-01-24 19:30:10 +0000";
layers = (
{
anchors = (
{
name = bottom;
position = "{74, 0}";
},
{
name = top;
position = "{74, 600}";
}
);
layerId = "03715FCC-FE87-43AF-962B-9C8D97F38189";
paths = (
{
closed = 1;
nodes = (
"83 0 LINE",
"94 80 LINE",
"137 600 LINE",
"107 600 LINE",
"84 95 LINE",
"80 95 LINE",
"43 600 LINE",
"5 600 LINE",
"52 0 LINE"
);
},
{
closed = 1;
nodes = (
"70 -130 OFFCURVE",
"87 -48 OFFCURVE",
"94 80 CURVE",
"74 80 LINE",
"74 21 LINE",
"71 -45 OFFCURVE",
"47 -83 OFFCURVE",
"3 -83 CURVE SMOOTH",
"-4 -83 OFFCURVE",
"-12 -82 OFFCURVE",
"-20 -80 CURVE",
"-20 -130 LINE"
);
}
);
userData = {
com.hugojourdan.ColorFlow = {
"0" = 0;
"1" = 0;
"10" = 0;
"11" = 0;
"2" = 0;
"3" = 0;
"4" = 0;
"5" = 0;
"6" = 0;
"7" = 0;
"8" = 0;
"9" = 0;
};
};
width = 147;
},
{
associatedMasterId = "03715FCC-FE87-43AF-962B-9C8D97F38189";
background = {
paths = (
{
closed = 1;
nodes = (
"62 -10 LINE",
"93 -10 LINE",
"104 80 LINE",
"147 600 LINE",
"117 600 LINE",
"94 95 LINE",
"90 95 LINE",
"53 600 LINE",
"15 600 LINE"
);
},
{
closed = 1;
nodes = (
"103 80 OFFCURVE",
"88 98 OFFCURVE",
"84 21 CURVE",
"80 -56 OFFCURVE",
"49 -114 OFFCURVE",
"-10 -107 CURVE",
"-10 -160 LINE",
"80 -160 OFFCURVE",
"97 -48 OFFCURVE",
"104 80 CURVE"
);
}
);
};
layerId = "6C63E011-7FD9-4E86-B38D-F86342657278";
name = "Apr 21 20, 19:06";
paths = (
{
closed = 1;
nodes = (
"62 -10 LINE",
"93 -10 LINE",
"104 80 LINE",
"147 600 LINE",
"117 600 LINE",
"94 95 LINE",
"90 95 LINE",
"53 600 LINE",
"15 600 LINE"
);
},
{
closed = 1;
nodes = (
"103 80 OFFCURVE",
"88 98 OFFCURVE",
"84 21 CURVE",
"80 -56 OFFCURVE",
"49 -114 OFFCURVE",
"-10 -107 CURVE",
"-10 -160 LINE",
"80 -160 OFFCURVE",
"97 -48 OFFCURVE",
"104 80 CURVE"
);
}
);
width = 157;
}
);
leftKerningGroup = v;
leftMetricsKey = y;
rightKerningGroup = v;
rightMetricsKey = v;
unicode = 0079;
},
{
glyphname = z;
lastChange = "2024-01-24 18:56:59 +0000";
layers = (
{
anchors = (
{
name = bottom;
position = "{60, 0}";
},
{
name = center;
position = "{60, 300}";
},
{
name = top;
position = "{70, 600}";
}
);
background = {
paths = (
{
closed = 1;
nodes = (
"34 19 LINE",
"117 595 LINE",
"117 600 LINE",
"7 600 LINE",
"7 585 LINE",
"78 585 LINE",
"78 581 LINE",
"-5 5 LINE",
"-5 0 LINE",
"125 0 LINE",
"125 15 LINE",
"34 15 LINE"
);
}
);
};
guideLines = (
{
angle = 90;
position = "{-5, 172}";
},
{
angle = 90;
position = "{125, 172}";
}
);
layerId = "03715FCC-FE87-43AF-962B-9C8D97F38189";
paths = (
{
closed = 1;
nodes = (
"125 0 LINE",
"125 10 LINE",
"33 10 LINE",
"34 19 LINE",
"117 595 LINE",
"117 600 LINE",
"1 600 LINE",
"1 590 LINE",
"79 590 LINE",
"78 581 LINE",
"-5 5 LINE",
"-5 0 LINE"
);
}
);
userData = {
com.hugojourdan.ColorFlow = {
"0" = 0;
"1" = 0;
"10" = 0;
"11" = 0;
"2" = 0;
"3" = 0;
"4" = 0;
"5" = 0;
"6" = 0;
"7" = 0;
"8" = 0;
"9" = 0;
};
};
width = 120;
}
);
leftKerningGroup = z;
rightKerningGroup = z;
unicode = 007A;
},
{
glyphname = f_i;
lastChange = "2024-01-24 18:56:59 +0000";
layers = (
{
components = (
{
name = f;
}
);
layerId = "03715FCC-FE87-43AF-962B-9C8D97F38189";
paths = (
{
closed = 1;
nodes = (
"144 0 LINE",
"144 600 LINE",
"106 600 LINE",
"106 0 LINE"
);
},
{
closed = 1;
nodes = (
"123 590 LINE",
"123 600 LINE",
"83 600 LINE",
"83 590 LINE"
);
}
);
userData = {
com.hugojourdan.ColorFlow = {
"0" = 0;
"1" = 0;
"10" = 0;
"11" = 0;
"2" = 0;
"3" = 0;
"4" = 0;
"5" = 0;
"6" = 0;
"7" = 0;
"8" = 0;
"9" = 0;
};
};
width = 164;
}
);
leftMetricsKey = f;
},
{
glyphname = zero;
lastChange = "2024-01-24 20:35:35 +0000";
layers = (
{
background = {
paths = (
{
closed = 1;
nodes = (
"115 -10 OFFCURVE",
"146 20 OFFCURVE",
"146 80 CURVE",
"146 645 LINE",
"146 705 OFFCURVE",
"115 735 OFFCURVE",
"83 735 CURVE",
"52 735 OFFCURVE",
"20 705 OFFCURVE",
"20 645 CURVE",
"20 80 LINE",
"20 20 OFFCURVE",
"52 -10 OFFCURVE",
"83 -10 CURVE"
);
},
{
closed = 1;
nodes = (
"139 435 LINE",
"127 438 LINE",
"25 290 LINE",
"37 287 LINE"
);
},
{
closed = 1;
nodes = (
"72 0 OFFCURVE",
"60 16 OFFCURVE",
"60 50 CURVE",
"60 675 LINE",
"60 709 OFFCURVE",
"72 725 OFFCURVE",
"83 725 CURVE",
"95 725 OFFCURVE",
"106 709 OFFCURVE",
"106 675 CURVE",
"106 50 LINE",
"106 16 OFFCURVE",
"95 0 OFFCURVE",
"83 0 CURVE"
);
}
);
};
layerId = "03715FCC-FE87-43AF-962B-9C8D97F38189";
paths = (
{
closed = 1;
nodes = (
"115 -10 OFFCURVE",
"146 20 OFFCURVE",
"146 80 CURVE",
"146 600 LINE",
"146 660 OFFCURVE",
"115 690 OFFCURVE",
"83 690 CURVE",
"52 690 OFFCURVE",
"20 660 OFFCURVE",
"20 600 CURVE",
"20 80 LINE",
"20 20 OFFCURVE",
"52 -10 OFFCURVE",
"83 -10 CURVE"
);
},
{
closed = 1;
nodes = (
"72 0 OFFCURVE",
"60 16 OFFCURVE",
"60 50 CURVE",
"60 630 LINE",
"60 664 OFFCURVE",
"72 680 OFFCURVE",
"83 680 CURVE",
"95 680 OFFCURVE",
"106 664 OFFCURVE",
"106 630 CURVE",
"106 50 LINE",
"106 16 OFFCURVE",
"95 0 OFFCURVE",
"83 0 CURVE"
);
},
{
closed = 1;
nodes = (
"139 435 LINE",
"127 438 LINE",
"25 290 LINE",
"37 287 LINE"
);
}
);
userData = {
com.hugojourdan.ColorFlow = {
"0" = 0;
"1" = 0;
"10" = 0;
"11" = 0;
"2" = 0;
"3" = 0;
"4" = 0;
"5" = 0;
"6" = 0;
"7" = 0;
"8" = 0;
"9" = 0;
};
};
width = 166;
},
{
associatedMasterId = "03715FCC-FE87-43AF-962B-9C8D97F38189";
layerId = "7EFCEB05-2974-49D8-AD4C-CF9A9E17EC10";
name = "Jun 18 20, 23:03";
paths = (
{
closed = 1;
nodes = (
"113 -10 OFFCURVE",
"139 26 OFFCURVE",
"139 106 CURVE SMOOTH",
"139 614 LINE SMOOTH",
"139 694 OFFCURVE",
"113 730 OFFCURVE",
"78 730 CURVE SMOOTH",
"43 730 OFFCURVE",
"17 693 OFFCURVE",
"17 614 CURVE SMOOTH",
"17 106 LINE SMOOTH",
"17 27 OFFCURVE",
"43 -10 OFFCURVE",
"78 -10 CURVE SMOOTH"
);
},
{
closed = 1;
nodes = (
"63 0 OFFCURVE",
"55 22 OFFCURVE",
"55 104 CURVE SMOOTH",
"55 616 LINE SMOOTH",
"55 698 OFFCURVE",
"63 720 OFFCURVE",
"78 720 CURVE SMOOTH",
"93 720 OFFCURVE",
"101 697 OFFCURVE",
"101 616 CURVE SMOOTH",
"101 104 LINE SMOOTH",
"101 23 OFFCURVE",
"93 0 OFFCURVE",
"78 0 CURVE SMOOTH"
);
},
{
closed = 1;
nodes = (
"93 312 OFFCURVE",
"103 334 OFFCURVE",
"103 367 CURVE SMOOTH",
"103 400 OFFCURVE",
"94 422 OFFCURVE",
"78 422 CURVE SMOOTH",
"62 422 OFFCURVE",
"53 401 OFFCURVE",
"53 367 CURVE SMOOTH",
"53 334 OFFCURVE",
"63 312 OFFCURVE",
"78 312 CURVE SMOOTH"
);
}
);
width = 156;
},
{
associatedMasterId = "03715FCC-FE87-43AF-962B-9C8D97F38189";
background = {
paths = (
{
closed = 1;
nodes = (
"113 -10 OFFCURVE",
"139 26 OFFCURVE",
"139 106 CURVE SMOOTH",
"139 614 LINE SMOOTH",
"139 694 OFFCURVE",
"113 730 OFFCURVE",
"78 730 CURVE SMOOTH",
"43 730 OFFCURVE",
"17 693 OFFCURVE",
"17 614 CURVE SMOOTH",
"17 106 LINE SMOOTH",
"17 27 OFFCURVE",
"43 -10 OFFCURVE",
"78 -10 CURVE SMOOTH"
);
},
{
closed = 1;
nodes = (
"63 0 OFFCURVE",
"55 22 OFFCURVE",
"55 104 CURVE SMOOTH",
"55 616 LINE SMOOTH",
"55 698 OFFCURVE",
"63 720 OFFCURVE",
"78 720 CURVE SMOOTH",
"93 720 OFFCURVE",
"101 697 OFFCURVE",
"101 616 CURVE SMOOTH",
"101 104 LINE SMOOTH",
"101 23 OFFCURVE",
"93 0 OFFCURVE",
"78 0 CURVE SMOOTH"
);
},
{
closed = 1;
nodes = (
"29 299 LINE",
"39 288 LINE",
"139 436 LINE",
"129 447 LINE"
);
}
);
};
layerId = "C47BF7F5-E168-4099-83E0-DA63A4D133E9";
name = "Jul 7 20, 13:16";
paths = (
{
closed = 1;
nodes = (
"113 -10 OFFCURVE",
"139 26 OFFCURVE",
"139 106 CURVE SMOOTH",
"139 614 LINE SMOOTH",
"139 694 OFFCURVE",
"113 730 OFFCURVE",
"78 730 CURVE SMOOTH",
"43 730 OFFCURVE",
"17 693 OFFCURVE",
"17 614 CURVE SMOOTH",
"17 106 LINE SMOOTH",
"17 27 OFFCURVE",
"43 -10 OFFCURVE",
"78 -10 CURVE SMOOTH"
);
},
{
closed = 1;
nodes = (
"63 0 OFFCURVE",
"55 22 OFFCURVE",
"55 104 CURVE SMOOTH",
"55 616 LINE SMOOTH",
"55 698 OFFCURVE",
"63 720 OFFCURVE",
"78 720 CURVE SMOOTH",
"93 720 OFFCURVE",
"101 697 OFFCURVE",
"101 616 CURVE SMOOTH",
"101 104 LINE SMOOTH",
"101 23 OFFCURVE",
"93 0 OFFCURVE",
"78 0 CURVE SMOOTH"
);
},
{
closed = 1;
nodes = (
"29 299 LINE",
"39 288 LINE",
"139 436 LINE",
"129 447 LINE"
);
}
);
width = 156;
}
);
leftKerningGroup = o;
leftMetricsKey = O;
rightKerningGroup = o;
rightMetricsKey = O;
unicode = 0030;
},
{
glyphname = one;
lastChange = "2024-01-24 20:48:08 +0000";
layers = (
{
associatedMasterId = "03715FCC-FE87-43AF-962B-9C8D97F38189";
background = {
paths = (
{
closed = 1;
nodes = (
"150 0 LINE",
"150 730 LINE",
"112 680 LINE",
"50 606 LINE",
"112 606 LINE",
"137 632 LINE",
"112 632 LINE",
"112 0 LINE"
);
},
{
closed = 1;
nodes = (
"195 0 LINE",
"195 25 LINE",
"67 25 LINE",
"67 0 LINE"
);
}
);
};
layerId = "66C6E315-F294-4819-BD87-0DD1440F5950";
name = "Apr 21 20, 20:49";
paths = (
{
closed = 1;
nodes = (
"150 0 LINE",
"150 730 LINE",
"112 680 LINE",
"50 606 LINE",
"112 606 LINE",
"137 632 LINE",
"112 632 LINE",
"112 0 LINE"
);
},
{
closed = 1;
nodes = (
"195 0 LINE",
"195 25 LINE",
"67 25 LINE",
"67 0 LINE"
);
}
);
width = 245;
},
{
associatedMasterId = "03715FCC-FE87-43AF-962B-9C8D97F38189";
background = {
paths = (
{
closed = 1;
nodes = (
"148 0 LINE",
"148 730 LINE",
"63 710 LINE",
"63 690 LINE",
"110 690 LINE",
"135 721 LINE",
"110 701 LINE",
"110 0 LINE"
);
}
);
};
layerId = "6CAE492F-00EB-4C73-AB03-C29BAB5B0038";
name = "Apr 21 20, 20:59";
paths = (
{
closed = 1;
nodes = (
"148 0 LINE",
"148 730 LINE",
"63 710 LINE",
"63 690 LINE",
"110 690 LINE",
"135 721 LINE",
"110 701 LINE",
"110 0 LINE"
);
}
);
width = 258;
},
{
associatedMasterId = "03715FCC-FE87-43AF-962B-9C8D97F38189";
background = {
paths = (
{
closed = 0;
nodes = (
"122 730 LINE"
);
}
);
};
layerId = "B016EE17-421C-4AA1-9134-C81EFDB42B3E";
name = "Apr 21 20, 21:34";
paths = (
{
closed = 1;
nodes = (
"23 307 LINE",
"122 730 LINE",
"122 0 LINE",
"84 0 LINE",
"84 558 LINE",
"105 558 LINE",
"45 301 LINE"
);
}
);
width = 137;
},
{
associatedMasterId = "03715FCC-FE87-43AF-962B-9C8D97F38189";
background = {
paths = (
{
closed = 1;
nodes = (
"84 590 LINE",
"87 602 LINE",
"87 671 LINE",
"122 721 LINE",
"122 158 LINE",
"122 48 OFFCURVE",
"105 34 OFFCURVE",
"175 42 CURVE",
"175 -10 LINE",
"82 -10 OFFCURVE",
"84 78 OFFCURVE",
"84 242 CURVE"
);
}
);
};
layerId = "DB684751-A3FB-4509-8559-67CEA01D1089";
name = "May 27 20, 09:25";
paths = (
{
closed = 1;
nodes = (
"23 414 LINE",
"87 682 LINE",
"122 730 LINE",
"122 0 LINE",
"84 0 LINE",
"84 665 LINE",
"95 665 LINE",
"45 408 LINE"
);
}
);
width = 137;
},
{
background = {
paths = (
{
closed = 1;
nodes = (
"125 0 LINE",
"125 10 LINE",
"-3 10 LINE",
"-3 0 LINE"
);
},
{
closed = 1;
nodes = (
"80 0 LINE",
"80 730 LINE",
"-5 710 LINE",
"-5 690 LINE",
"42 690 LINE",
"67 721 LINE",
"42 701 LINE",
"42 0 LINE"
);
}
);
};
layerId = "03715FCC-FE87-43AF-962B-9C8D97F38189";
paths = (
{
closed = 1;
nodes = (
"80 0 LINE",
"80 682 LINE",
"-5 662 LINE",
"-5 647 LINE",
"57 660 LINE",
"42 665 LINE",
"42 0 LINE"
);
}
);
userData = {
com.hugojourdan.ColorFlow = {
"0" = 0;
"1" = 0;
"10" = 0;
"11" = 0;
"2" = 0;
"3" = 0;
"4" = 0;
"5" = 0;
"6" = 0;
"7" = 0;
"8" = 0;
"9" = 0;
};
};
width = 102;
}
);
leftKerningGroup = one;
rightKerningGroup = one;
rightMetricsKey = H;
unicode = 0031;
},
{
glyphname = two;
lastChange = "2024-01-24 20:08:15 +0000";
layers = (
{
background = {
paths = (
{
closed = 1;
nodes = (
"122 0 LINE",
"122 10 LINE",
"22 10 LINE",
"28 8 LINE",
"28 21 LINE",
"28 143 OFFCURVE",
"113 307 OFFCURVE",
"113 519 CURVE SMOOTH",
"113 645 OFFCURVE",
"54 680 OFFCURVE",
"26 680 CURVE",
"26 628 LINE",
"32 629 OFFCURVE",
"44 634 OFFCURVE",
"57 634 CURVE SMOOTH",
"74 634 OFFCURVE",
"90 626 OFFCURVE",
"90 590 CURVE SMOOTH",
"90 495 OFFCURVE",
"15 314 OFFCURVE",
"15 23 CURVE SMOOTH",
"15 0 LINE"
);
}
);
};
guideLines = (
{
angle = 90;
position = "{122, 111}";
},
{
angle = 90;
position = "{15, 281}";
}
);
layerId = "03715FCC-FE87-43AF-962B-9C8D97F38189";
paths = (
{
closed = 1;
nodes = (
"122 0 LINE",
"122 10 LINE",
"22 10 LINE",
"28 8 LINE",
"28 21 LINE",
"28 143 OFFCURVE",
"113 337 OFFCURVE",
"113 519 CURVE SMOOTH",
"113 645 OFFCURVE",
"54 680 OFFCURVE",
"26 680 CURVE",
"26 628 LINE",
"32 629 OFFCURVE",
"44 634 OFFCURVE",
"57 634 CURVE SMOOTH",
"74 634 OFFCURVE",
"90 626 OFFCURVE",
"90 590 CURVE SMOOTH",
"90 475 OFFCURVE",
"15 299 OFFCURVE",
"15 23 CURVE SMOOTH",
"15 0 LINE"
);
}
);
userData = {
com.hugojourdan.ColorFlow = {
"0" = 0;
"1" = 0;
"10" = 0;
"11" = 0;
"2" = 0;
"3" = 0;
"4" = 0;
"5" = 0;
"6" = 0;
"7" = 0;
"8" = 0;
"9" = 0;
};
};
width = 127;
},
{
associatedMasterId = "03715FCC-FE87-43AF-962B-9C8D97F38189";
background = {
paths = (
{
closed = 1;
nodes = (
"36 18 LINE",
"36 31 LINE",
"70 69 OFFCURVE",
"113 181 OFFCURVE",
"113 335 CURVE",
"113 572 LINE",
"113 700 OFFCURVE",
"54 735 OFFCURVE",
"26 735 CURVE",
"26 683 LINE",
"46 688 OFFCURVE",
"75 705 OFFCURVE",
"75 610 CURVE",
"75 313 LINE",
"75 174 OFFCURVE",
"62 55 OFFCURVE",
"15 9 CURVE",
"15 0 LINE",
"122 0 LINE",
"122 25 LINE",
"30 25 LINE"
);
}
);
};
guideLines = (
{
angle = 90;
position = "{122, 111}";
},
{
angle = 90;
position = "{15, 281}";
}
);
layerId = "98A41FEF-4445-4E70-82E6-0308F50E3D8B";
name = "Apr 21 20, 21:13";
paths = (
{
closed = 1;
nodes = (
"36 30 LINE",
"36 39 LINE",
"70 77 OFFCURVE",
"113 181 OFFCURVE",
"113 335 CURVE",
"113 567 LINE",
"113 695 OFFCURVE",
"54 730 OFFCURVE",
"26 730 CURVE",
"26 678 LINE",
"46 683 OFFCURVE",
"75 700 OFFCURVE",
"75 605 CURVE",
"75 313 LINE",
"75 174 OFFCURVE",
"62 72 OFFCURVE",
"15 26 CURVE",
"15 0 LINE",
"122 0 LINE",
"122 35 LINE",
"31 35 LINE"
);
}
);
width = 142;
},
{
associatedMasterId = "03715FCC-FE87-43AF-962B-9C8D97F38189";
background = {
paths = (
{
closed = 1;
nodes = (
"36 18 LINE",
"36 31 LINE",
"70 69 OFFCURVE",
"113 181 OFFCURVE",
"113 335 CURVE",
"113 572 LINE",
"113 700 OFFCURVE",
"54 735 OFFCURVE",
"26 735 CURVE",
"26 683 LINE",
"46 688 OFFCURVE",
"75 705 OFFCURVE",
"75 610 CURVE",
"75 313 LINE",
"75 174 OFFCURVE",
"62 55 OFFCURVE",
"15 9 CURVE",
"15 0 LINE",
"122 0 LINE",
"122 25 LINE",
"30 25 LINE"
);
}
);
};
guideLines = (
{
position = "{245, 728}";
},
{
angle = 90;
position = "{122, 111}";
},
{
angle = 90;
position = "{15, 281}";
}
);
layerId = "B0EB7570-B5D8-4477-90F0-3754DC0A7DA9";
name = "Apr 21 20, 21:26";
paths = (
{
closed = 1;
nodes = (
"36 20 LINE",
"36 29 LINE",
"70 67 OFFCURVE",
"113 181 OFFCURVE",
"113 335 CURVE",
"113 572 LINE",
"113 700 OFFCURVE",
"54 735 OFFCURVE",
"26 735 CURVE",
"26 683 LINE",
"46 688 OFFCURVE",
"75 705 OFFCURVE",
"75 610 CURVE",
"75 313 LINE",
"75 174 OFFCURVE",
"62 55 OFFCURVE",
"15 9 CURVE",
"15 0 LINE",
"122 0 LINE",
"122 25 LINE",
"31 25 LINE"
);
}
);
width = 142;
},
{
associatedMasterId = "03715FCC-FE87-43AF-962B-9C8D97F38189";
background = {
paths = (
{
closed = 1;
nodes = (
"37 8 LINE",
"37 21 LINE",
"37 122 OFFCURVE",
"122 413 OFFCURVE",
"122 572 CURVE SMOOTH",
"122 700 OFFCURVE",
"63 735 OFFCURVE",
"35 735 CURVE",
"35 683 LINE",
"55 688 OFFCURVE",
"89 705 OFFCURVE",
"89 610 CURVE SMOOTH",
"89 585 OFFCURVE",
"85 546 OFFCURVE",
"79 499 CURVE SMOOTH",
"60 360 OFFCURVE",
"24 149 OFFCURVE",
"24 23 CURVE SMOOTH",
"24 0 LINE",
"131 0 LINE",
"131 15 LINE",
"31 15 LINE"
);
}
);
};
guideLines = (
{
position = "{254, 728}";
},
{
angle = 90;
position = "{131, 111}";
},
{
angle = 90;
position = "{24, 281}";
}
);
layerId = "4D453434-9B31-420B-9964-FDA3D3EE4F3F";
name = "Jul 7 20, 13:15";
paths = (
{
closed = 1;
nodes = (
"37 8 LINE",
"37 21 LINE",
"37 122 OFFCURVE",
"122 413 OFFCURVE",
"122 572 CURVE SMOOTH",
"122 700 OFFCURVE",
"63 735 OFFCURVE",
"35 735 CURVE",
"35 683 LINE",
"137 720 OFFCURVE",
"91 593 OFFCURVE",
"79 499 CURVE SMOOTH",
"60 360 OFFCURVE",
"24 149 OFFCURVE",
"24 23 CURVE SMOOTH",
"24 0 LINE",
"131 0 LINE",
"131 15 LINE",
"31 15 LINE"
);
}
);
width = 151;
}
);
rightKerningGroup = two;
unicode = 0032;
},
{
glyphname = three;
lastChange = "2024-01-24 20:04:47 +0000";
layers = (
{
layerId = "03715FCC-FE87-43AF-962B-9C8D97F38189";
paths = (
{
closed = 1;
nodes = (
"82 0 OFFCURVE",
"102 34 OFFCURVE",
"102 178 CURVE",
"102 255 LINE",
"102 351 OFFCURVE",
"60 363 OFFCURVE",
"44 363 CURVE",
"44 359 LINE",
"59 359 OFFCURVE",
"102 371 OFFCURVE",
"102 473 CURVE",
"102 542 LINE",
"102 625 OFFCURVE",
"69 680 OFFCURVE",
"12 680 CURVE",
"12 630 LINE",
"30 635 OFFCURVE",
"43 638 OFFCURVE",
"53 638 CURVE SMOOTH",
"74 638 OFFCURVE",
"80 628 OFFCURVE",
"80 613 CURVE SMOOTH",
"80 590 OFFCURVE",
"65 555.991 OFFCURVE",
"65 528 CURVE",
"65 501 OFFCURVE",
"64 438 OFFCURVE",
"64 411 CURVE",
"64 379 OFFCURVE",
"53 368 OFFCURVE",
"40 368 CURVE",
"40 353 LINE",
"54 353 OFFCURVE",
"64 342 OFFCURVE",
"64 318 CURVE",
"64 141 LINE",
"66 94 OFFCURVE",
"71 64 OFFCURVE",
"71 48 CURVE SMOOTH",
"71 37 OFFCURVE",
"69 32 OFFCURVE",
"60 32 CURVE SMOOTH",
"50 32 OFFCURVE",
"31 39 OFFCURVE",
"0 50 CURVE",
"0 0 LINE"
);
}
);
userData = {
com.hugojourdan.ColorFlow = {
"0" = 0;
"1" = 0;
"10" = 0;
"11" = 0;
"2" = 0;
"3" = 0;
"4" = 0;
"5" = 0;
"6" = 0;
"7" = 0;
"8" = 0;
"9" = 0;
};
};
width = 120;
},
{
associatedMasterId = "03715FCC-FE87-43AF-962B-9C8D97F38189";
background = {
paths = (
{
closed = 1;
nodes = (
"94 683 OFFCURVE",
"83 675 OFFCURVE",
"35 678 CURVE",
"35 728 LINE",
"92 728 OFFCURVE",
"125 673 OFFCURVE",
"125 590 CURVE SMOOTH",
"125 556 LINE SMOOTH",
"125 454 OFFCURVE",
"82 442 OFFCURVE",
"67 442 CURVE",
"67 446 LINE",
"83 446 OFFCURVE",
"125 434 OFFCURVE",
"125 338 CURVE SMOOTH",
"125 240 LINE SMOOTH",
"125 86 OFFCURVE",
"105 -10 OFFCURVE",
"23 -10 CURVE",
"23 40 LINE",
"95 38 OFFCURVE",
"87 45 OFFCURVE",
"87 168 CURVE SMOOTH",
"87 401 LINE SMOOTH",
"87 425 OFFCURVE",
"77 436 OFFCURVE",
"63 436 CURVE",
"63 451 LINE",
"76 451 OFFCURVE",
"87 462 OFFCURVE",
"87 494 CURVE SMOOTH",
"87 521 OFFCURVE",
"88 549 OFFCURVE",
"89 576 CURVE SMOOTH"
);
}
);
};
layerId = "8FA2F90C-F662-4285-8A77-33160B110368";
name = "Jun 18 20, 22:55";
paths = (
{
closed = 1;
nodes = (
"94 683 OFFCURVE",
"83 675 OFFCURVE",
"35 678 CURVE",
"35 728 LINE",
"92 728 OFFCURVE",
"125 673 OFFCURVE",
"125 590 CURVE SMOOTH",
"125 556 LINE SMOOTH",
"125 454 OFFCURVE",
"82 442 OFFCURVE",
"67 442 CURVE",
"67 446 LINE",
"83 446 OFFCURVE",
"125 434 OFFCURVE",
"125 338 CURVE SMOOTH",
"125 240 LINE SMOOTH",
"125 86 OFFCURVE",
"105 -10 OFFCURVE",
"23 -10 CURVE",
"23 40 LINE",
"95 38 OFFCURVE",
"87 45 OFFCURVE",
"87 168 CURVE SMOOTH",
"87 401 LINE SMOOTH",
"87 425 OFFCURVE",
"77 436 OFFCURVE",
"63 436 CURVE",
"63 451 LINE",
"76 451 OFFCURVE",
"87 462 OFFCURVE",
"87 494 CURVE SMOOTH",
"87 521 OFFCURVE",
"88 549 OFFCURVE",
"89 576 CURVE SMOOTH"
);
}
);
width = 150;
}
);
leftKerningGroup = three;
unicode = 0033;
},
{
glyphname = four;
lastChange = "2024-01-24 18:56:59 +0000";
layers = (
{
background = {
paths = (
{
closed = 1;
nodes = (
"140 0 LINE",
"140 738 LINE",
"108 720 LINE",
"5 236 LINE",
"173 236 LINE",
"173 246 LINE",
"12 246 LINE",
"17 242 LINE",
"118 720 LINE",
"111 720 LINE",
"102 508 LINE",
"102 0 LINE"
);
}
);
};
layerId = "03715FCC-FE87-43AF-962B-9C8D97F38189";
paths = (
{
closed = 1;
nodes = (
"140 0 LINE",
"140 684 LINE",
"108 666 LINE",
"5 191 LINE",
"173 191 LINE",
"173 201 LINE",
"12 201 LINE",
"17 197 LINE",
"118 666 LINE",
"111 666 LINE",
"102 453 LINE",
"102 0 LINE"
);
}
);
userData = {
com.hugojourdan.ColorFlow = {
"0" = 0;
"1" = 0;
"10" = 0;
"11" = 0;
"2" = 0;
"3" = 0;
"4" = 0;
"5" = 0;
"6" = 0;
"7" = 0;
"8" = 0;
"9" = 0;
};
};
width = 173;
},
{
associatedMasterId = "03715FCC-FE87-43AF-962B-9C8D97F38189";
background = {
paths = (
{
closed = 1;
nodes = (
"56 414 LINE",
"120 682 LINE",
"155 730 LINE",
"155 0 LINE",
"117 0 LINE",
"117 665 LINE",
"138 665 LINE",
"78 408 LINE"
);
}
);
};
layerId = "90083547-E0A1-4D1F-82B5-2C242FE416C3";
name = "Jul 7 20, 13:15";
paths = (
{
closed = 1;
nodes = (
"15 131 LINE",
"118 679 LINE",
"155 730 LINE",
"155 0 LINE",
"117 0 LINE",
"117 511 LINE",
"126 679 LINE",
"133 679 LINE",
"38 138 LINE",
"12 146 LINE",
"188 146 LINE",
"188 131 LINE"
);
}
);
width = 200;
}
);
unicode = 0034;
},
{
glyphname = five;
lastChange = "2024-01-24 20:04:38 +0000";
layers = (
{
background = {
paths = (
{
closed = 1;
nodes = (
"20 552 LINE",
"30 685 LINE",
"118 685 LINE",
"118 720 LINE",
"21 720 LINE",
"9 536 LINE",
"20 536 LINE",
"21 557 OFFCURVE",
"30 570 OFFCURVE",
"43 570 CURVE SMOOTH",
"58 570 OFFCURVE",
"66 556 OFFCURVE",
"66 518 CURVE SMOOTH",
"66 164 LINE SMOOTH",
"66 55 OFFCURVE",
"74 38 OFFCURVE",
"2 40 CURVE",
"2 -10 LINE",
"84 -10 OFFCURVE",
"103 86 OFFCURVE",
"104 240 CURVE SMOOTH",
"104 511 LINE SMOOTH",
"104 575 OFFCURVE",
"82 609 OFFCURVE",
"58 609 CURVE SMOOTH",
"39 609 OFFCURVE",
"26 589 OFFCURVE",
"16 554 CURVE"
);
}
);
};
layerId = "03715FCC-FE87-43AF-962B-9C8D97F38189";
paths = (
{
closed = 1;
nodes = (
"84 0 OFFCURVE",
"104 96 OFFCURVE",
"104 250 CURVE SMOOTH",
"104 471 LINE SMOOTH",
"104 535 OFFCURVE",
"82 569 OFFCURVE",
"58 569 CURVE SMOOTH",
"39 569 OFFCURVE",
"26 549 OFFCURVE",
"16 514 CURVE",
"20 512 LINE",
"30 645 LINE",
"118 645 LINE",
"118 680 LINE",
"21 680 LINE",
"9 496 LINE",
"20 496 LINE",
"21 517 OFFCURVE",
"30 530 OFFCURVE",
"43 530 CURVE SMOOTH",
"58 530 OFFCURVE",
"66 516 OFFCURVE",
"66 478 CURVE SMOOTH",
"66 174 LINE SMOOTH",
"66 154 OFFCURVE",
"66 137 OFFCURVE",
"66 123 CURVE SMOOTH",
"66 59 OFFCURVE",
"61 48 OFFCURVE",
"2 50 CURVE",
"2 0 LINE"
);
}
);
userData = {
com.hugojourdan.ColorFlow = {
"0" = 0;
"1" = 0;
"10" = 0;
"11" = 0;
"2" = 0;
"3" = 0;
"4" = 0;
"5" = 0;
"6" = 0;
"7" = 0;
"8" = 0;
"9" = 0;
};
};
width = 123;
},
{
associatedMasterId = "03715FCC-FE87-43AF-962B-9C8D97F38189";
layerId = "4427391D-2197-460D-9E18-6DC182B750D3";
name = "May 27 20, 09:43";
paths = (
{
closed = 1;
nodes = (
"146 720 LINE",
"288 720 LINE",
"288 685 LINE",
"159 685 LINE",
"166 693 LINE",
"150 463 LINE",
"140 457 LINE",
"218 653 OFFCURVE",
"277 653 OFFCURVE",
"277 457 CURVE SMOOTH",
"277 187 LINE SMOOTH",
"277 47 OFFCURVE",
"219 -43 OFFCURVE",
"132 1 CURVE",
"132 46 LINE",
"187 -5 OFFCURVE",
"239 48 OFFCURVE",
"239 188 CURVE SMOOTH",
"239 387 LINE SMOOTH",
"239 592 OFFCURVE",
"230 642 OFFCURVE",
"151 438 CURVE",
"128 450 LINE"
);
}
);
width = 600;
},
{
associatedMasterId = "03715FCC-FE87-43AF-962B-9C8D97F38189";
background = {
paths = (
{
closed = 1;
nodes = (
"20 548 LINE",
"32 720 LINE",
"139 720 LINE",
"139 685 LINE",
"45 685 LINE",
"52 693 LINE",
"41 536 LINE"
);
},
{
closed = 1;
nodes = (
"87 240 LINE",
"87 518 LINE SMOOTH",
"87 556 OFFCURVE",
"76 570 OFFCURVE",
"64 570 CURVE SMOOTH",
"53 570 OFFCURVE",
"41 556 OFFCURVE",
"41 536 CURVE",
"35 540 LINE",
"44 586 OFFCURVE",
"58 609 OFFCURVE",
"79 609 CURVE SMOOTH",
"102 609 OFFCURVE",
"125 575 OFFCURVE",
"125 511 CURVE SMOOTH",
"125 240 LINE"
);
},
{
closed = 1;
nodes = (
"125 240 LINE",
"124 86 OFFCURVE",
"105 -10 OFFCURVE",
"23 -10 CURVE",
"23 40 LINE",
"95 38 OFFCURVE",
"87 55 OFFCURVE",
"87 164 CURVE",
"87 240 LINE"
);
}
);
};
layerId = "871B1440-C8B3-4078-977C-E96FC385E0DA";
name = "May 27 20, 09:48";
paths = (
{
closed = 1;
nodes = (
"20 548 LINE",
"32 720 LINE",
"139 720 LINE",
"139 685 LINE",
"45 685 LINE",
"52 693 LINE",
"41 536 LINE"
);
},
{
closed = 1;
nodes = (
"87 240 LINE",
"87 518 LINE SMOOTH",
"87 556 OFFCURVE",
"76 570 OFFCURVE",
"64 570 CURVE SMOOTH",
"53 570 OFFCURVE",
"41 556 OFFCURVE",
"41 536 CURVE",
"35 540 LINE",
"44 586 OFFCURVE",
"58 609 OFFCURVE",
"79 609 CURVE SMOOTH",
"102 609 OFFCURVE",
"125 575 OFFCURVE",
"125 511 CURVE SMOOTH",
"125 240 LINE"
);
},
{
closed = 1;
nodes = (
"125 240 LINE",
"124 86 OFFCURVE",
"105 -10 OFFCURVE",
"23 -10 CURVE",
"23 40 LINE",
"95 38 OFFCURVE",
"87 55 OFFCURVE",
"87 164 CURVE",
"87 240 LINE"
);
}
);
width = 159;
}
);
unicode = 0035;
},
{
glyphname = six;
lastChange = "2024-01-24 20:48:08 +0000";
layers = (
{
background = {
paths = (
{
closed = 1;
nodes = (
"104 556 OFFCURVE",
"93 570 OFFCURVE",
"81 570 CURVE SMOOTH",
"70 570 OFFCURVE",
"58 556 OFFCURVE",
"58 536 CURVE",
"52 517 LINE",
"54 580 OFFCURVE",
"75 609 OFFCURVE",
"96 609 CURVE SMOOTH",
"119 609 OFFCURVE",
"142 575 OFFCURVE",
"142 511 CURVE",
"142 106 LINE",
"142 26 OFFCURVE",
"116 -10 OFFCURVE",
"81 -10 CURVE SMOOTH",
"46 -10 OFFCURVE",
"20 27 OFFCURVE",
"20 106 CURVE",
"20 465 LINE",
"20 586 LINE",
"20 714 OFFCURVE",
"104 730 OFFCURVE",
"132 730 CURVE",
"132 680 LINE",
"37 736 OFFCURVE",
"58 656 OFFCURVE",
"58 600 CURVE",
"58 467 LINE",
"58 114 LINE",
"58 42 OFFCURVE",
"59 0 OFFCURVE",
"81 0 CURVE SMOOTH",
"104 0 OFFCURVE",
"104 43 OFFCURVE",
"104 114 CURVE",
"104 518 LINE"
);
}
);
};
layerId = "03715FCC-FE87-43AF-962B-9C8D97F38189";
paths = (
{
closed = 1;
nodes = (
"116 -10 OFFCURVE",
"142 26 OFFCURVE",
"142 106 CURVE",
"142 461 LINE",
"142 525 OFFCURVE",
"119 559 OFFCURVE",
"96 559 CURVE SMOOTH",
"75 559 OFFCURVE",
"54 530 OFFCURVE",
"52 467 CURVE",
"58 486 LINE",
"58 506 OFFCURVE",
"70 520 OFFCURVE",
"81 520 CURVE SMOOTH",
"93 520 OFFCURVE",
"104 506 OFFCURVE",
"104 468 CURVE",
"104 114 LINE",
"104 43 OFFCURVE",
"104 0 OFFCURVE",
"81 0 CURVE SMOOTH",
"59 0 OFFCURVE",
"58 42 OFFCURVE",
"58 114 CURVE",
"58 417 LINE",
"58 550 LINE",
"58 567 OFFCURVE",
"56 586 OFFCURVE",
"56 603 CURVE SMOOTH",
"56 629 OFFCURVE",
"60 649 OFFCURVE",
"82 649 CURVE SMOOTH",
"93 649 OFFCURVE",
"109 643 OFFCURVE",
"132 630 CURVE",
"132 680 LINE",
"104 680 OFFCURVE",
"20 664 OFFCURVE",
"20 536 CURVE",
"20 415 LINE",
"20 106 LINE",
"20 27 OFFCURVE",
"46 -10 OFFCURVE",
"81 -10 CURVE SMOOTH"
);
}
);
userData = {
com.hugojourdan.ColorFlow = {
"0" = 0;
"1" = 0;
"10" = 0;
"11" = 0;
"2" = 0;
"3" = 0;
"4" = 0;
"5" = 0;
"6" = 0;
"7" = 0;
"8" = 0;
"9" = 0;
};
};
width = 162;
}
);
leftKerningGroup = O;
leftMetricsKey = O;
rightKerningGroup = O;
rightMetricsKey = O;
unicode = 0036;
},
{
glyphname = seven;
lastChange = "2024-01-24 18:56:59 +0000";
layers = (
{
background = {
paths = (
{
closed = 1;
nodes = (
"14 395 OFFCURVE",
"107 513 OFFCURVE",
"107 679 CURVE",
"107 692 LINE",
"108 685 LINE",
"0 685 LINE",
"0 720 LINE",
"117 720 LINE",
"117 677 LINE SMOOTH",
"117 375 OFFCURVE",
"52 383 OFFCURVE",
"52 0 CURVE",
"14 0 LINE"
);
}
);
};
layerId = "03715FCC-FE87-43AF-962B-9C8D97F38189";
paths = (
{
closed = 1;
nodes = (
"52 0 LINE",
"52 423 OFFCURVE",
"117 414 OFFCURVE",
"117 637 CURVE SMOOTH",
"117 680 LINE",
"0 680 LINE",
"0 645 LINE",
"108 645 LINE",
"107 652 LINE",
"107 639 LINE",
"107 566 OFFCURVE",
"14 436 OFFCURVE",
"14 0 CURVE"
);
}
);
userData = {
com.hugojourdan.ColorFlow = {
"0" = 0;
"1" = 0;
"10" = 0;
"11" = 0;
"2" = 0;
"3" = 0;
"4" = 0;
"5" = 0;
"6" = 0;
"7" = 0;
"8" = 0;
"9" = 0;
};
};
width = 132;
},
{
associatedMasterId = "03715FCC-FE87-43AF-962B-9C8D97F38189";
background = {
paths = (
{
closed = 1;
nodes = (
"14 395 OFFCURVE",
"107 513 OFFCURVE",
"107 679 CURVE",
"107 692 LINE",
"108 685 LINE",
"0 685 LINE",
"0 720 LINE",
"117 720 LINE",
"117 677 LINE SMOOTH",
"117 375 OFFCURVE",
"52 383 OFFCURVE",
"52 0 CURVE",
"14 0 LINE"
);
}
);
};
layerId = "19FCA24B-6D87-4F5D-A7D6-8F50D62DC369";
name = "Jul 8 20, 16:41";
paths = (
{
closed = 1;
nodes = (
"14 395 OFFCURVE",
"107 513 OFFCURVE",
"107 679 CURVE",
"107 692 LINE",
"108 685 LINE",
"0 685 LINE",
"0 720 LINE",
"117 720 LINE",
"117 677 LINE SMOOTH",
"117 375 OFFCURVE",
"52 383 OFFCURVE",
"52 0 CURVE",
"14 0 LINE"
);
}
);
width = 127;
}
);
leftKerningGroup = seven;
rightKerningGroup = seven;
unicode = 0037;
},
{
glyphname = eight;
lastChange = "2024-01-24 20:48:08 +0000";
layers = (
{
background = {
paths = (
{
closed = 1;
nodes = (
"120 -10 OFFCURVE",
"155 12 OFFCURVE",
"155 144 CURVE",
"155 253 LINE",
"150 422 OFFCURVE",
"59 411 OFFCURVE",
"59 554 CURVE",
"59 625 LINE",
"60 716 OFFCURVE",
"74 725 OFFCURVE",
"85 725 CURVE SMOOTH",
"96 725 OFFCURVE",
"110 716 OFFCURVE",
"111 625 CURVE",
"111 554 LINE",
"111 339 OFFCURVE",
"19 429 OFFCURVE",
"15 253 CURVE",
"15 144 LINE",
"15 12 OFFCURVE",
"50 -10 OFFCURVE",
"85 -10 CURVE SMOOTH"
);
},
{
closed = 1;
nodes = (
"69 0 OFFCURVE",
"53 16 OFFCURVE",
"53 144 CURVE",
"53 253 LINE",
"57 451 OFFCURVE",
"149 399 OFFCURVE",
"149 551 CURVE",
"149 625 LINE",
"146 711 OFFCURVE",
"113 735 OFFCURVE",
"85 735 CURVE SMOOTH",
"56 735 OFFCURVE",
"24 711 OFFCURVE",
"21 625 CURVE",
"21 551 LINE",
"21 409 OFFCURVE",
"111 404 OFFCURVE",
"117 253 CURVE",
"117 144 LINE",
"117 16 OFFCURVE",
"101 0 OFFCURVE",
"85 0 CURVE SMOOTH"
);
}
);
};
guideLines = (
{
angle = 90;
position = "{85, 127}";
}
);
layerId = "03715FCC-FE87-43AF-962B-9C8D97F38189";
paths = (
{
closed = 1;
nodes = (
"120 -10 OFFCURVE",
"155 12 OFFCURVE",
"155 144 CURVE",
"155 218 LINE",
"150 387 OFFCURVE",
"59 376 OFFCURVE",
"59 519 CURVE",
"59 580 LINE",
"60 671 OFFCURVE",
"74 680 OFFCURVE",
"85 680 CURVE SMOOTH",
"96 680 OFFCURVE",
"110 671 OFFCURVE",
"111 580 CURVE",
"111 519 LINE",
"111 304 OFFCURVE",
"19 394 OFFCURVE",
"15 218 CURVE",
"15 144 LINE",
"15 12 OFFCURVE",
"50 -10 OFFCURVE",
"85 -10 CURVE SMOOTH"
);
},
{
closed = 1;
nodes = (
"69 0 OFFCURVE",
"53 16 OFFCURVE",
"53 144 CURVE",
"53 218 LINE",
"57 416 OFFCURVE",
"149 364 OFFCURVE",
"149 516 CURVE",
"149 580 LINE",
"146 666 OFFCURVE",
"113 690 OFFCURVE",
"85 690 CURVE SMOOTH",
"56 690 OFFCURVE",
"24 666 OFFCURVE",
"21 580 CURVE",
"21 516 LINE",
"21 374 OFFCURVE",
"111 369 OFFCURVE",
"117 218 CURVE",
"117 144 LINE",
"117 16 OFFCURVE",
"101 0 OFFCURVE",
"85 0 CURVE SMOOTH"
);
}
);
userData = {
com.hugojourdan.ColorFlow = {
"0" = 0;
"1" = 0;
"10" = 0;
"11" = 0;
"2" = 0;
"3" = 0;
"4" = 0;
"5" = 0;
"6" = 0;
"7" = 0;
"8" = 0;
"9" = 0;
};
};
width = 170;
},
{
associatedMasterId = "03715FCC-FE87-43AF-962B-9C8D97F38189";
background = {
paths = (
{
closed = 0;
nodes = (
"210 166 LINE",
"210 328 OFFCURVE",
"-54 688 OFFCURVE",
"123 688 CURVE",
"123 728 LINE",
"95 728 OFFCURVE",
"45 711 OFFCURVE",
"45 586 CURVE SMOOTH",
"45 469 OFFCURVE",
"178 272 OFFCURVE",
"179 138 CURVE"
);
},
{
closed = 0;
nodes = (
"63 138 LINE",
"63 278 OFFCURVE",
"192 469 OFFCURVE",
"192 586 CURVE SMOOTH",
"192 711 OFFCURVE",
"142 728 OFFCURVE",
"114 728 CURVE",
"114 688 LINE",
"295 688 OFFCURVE",
"32 328 OFFCURVE",
"32 166 CURVE"
);
},
{
closed = 0;
nodes = (
"154 583 LINE",
"153 449 OFFCURVE",
"30 252 OFFCURVE",
"30 135 CURVE SMOOTH",
"30 10 OFFCURVE",
"80 -7 OFFCURVE",
"122 -7 CURVE",
"122 33 LINE",
"-67 33 OFFCURVE",
"185 393 OFFCURVE",
"185 555 CURVE"
);
},
{
closed = 0;
nodes = (
"58 555 LINE",
"58 393 OFFCURVE",
"320 33 OFFCURVE",
"122 33 CURVE",
"122 -7 LINE",
"163 -7 OFFCURVE",
"213 10 OFFCURVE",
"213 135 CURVE SMOOTH",
"213 252 OFFCURVE",
"90 449 OFFCURVE",
"89 583 CURVE"
);
}
);
};
guideLines = (
{
angle = 90;
position = "{118, 127}";
}
);
layerId = "9363A489-B924-4DE3-AAB5-102F0F3D31B9";
name = "May 27 20, 11:17";
paths = (
{
closed = 1;
nodes = (
"48 454 OFFCURVE",
"179 215 OFFCURVE",
"179 109 CURVE SMOOTH",
"179 58 OFFCURVE",
"162 33 OFFCURVE",
"118 33 CURVE",
"118 -7 LINE",
"149 -7 OFFCURVE",
"203 10 OFFCURVE",
"203 135 CURVE SMOOTH",
"203 280 OFFCURVE",
"70 508 OFFCURVE",
"70 620 CURVE SMOOTH",
"70 661 OFFCURVE",
"88 688 OFFCURVE",
"118 688 CURVE",
"118 728 LINE",
"98 728 OFFCURVE",
"48 711 OFFCURVE",
"48 597 CURVE SMOOTH"
);
},
{
closed = 1;
nodes = (
"187 711 OFFCURVE",
"137 728 OFFCURVE",
"118 728 CURVE",
"118 688 LINE",
"147 688 OFFCURVE",
"164 661 OFFCURVE",
"164 620 CURVE SMOOTH",
"164 508 OFFCURVE",
"33 280 OFFCURVE",
"33 135 CURVE SMOOTH",
"33 10 OFFCURVE",
"87 -7 OFFCURVE",
"118 -7 CURVE",
"118 33 LINE",
"75 33 OFFCURVE",
"58 58 OFFCURVE",
"58 109 CURVE SMOOTH",
"58 215 OFFCURVE",
"187 454 OFFCURVE",
"187 597 CURVE SMOOTH"
);
}
);
width = 236;
},
{
associatedMasterId = "03715FCC-FE87-43AF-962B-9C8D97F38189";
background = {
paths = (
{
closed = 1;
nodes = (
"106 0 OFFCURVE",
"90 0 CURVE SMOOTH",
"74 0 OFFCURVE",
"58 26 OFFCURVE",
"58 154 CURVE SMOOTH",
"58 353 OFFCURVE",
"154 429 OFFCURVE",
"154 585 CURVE SMOOTH",
"154 681 OFFCURVE",
"119 729 OFFCURVE",
"90 729 CURVE SMOOTH",
"60 729 OFFCURVE",
"26 681 OFFCURVE",
"26 585 CURVE SMOOTH",
"26 439 OFFCURVE",
"122 313 OFFCURVE",
"122 154 CURVE SMOOTH",
"122 26 OFFCURVE"
);
},
{
closed = 1;
nodes = (
"55 -10 OFFCURVE",
"90 -10 CURVE SMOOTH",
"125 -10 OFFCURVE",
"160 22 OFFCURVE",
"160 154 CURVE SMOOTH",
"160 332 OFFCURVE",
"64 441 OFFCURVE",
"64 588 CURVE SMOOTH",
"64 688 OFFCURVE",
"77 719 OFFCURVE",
"90 719 CURVE SMOOTH",
"103 719 OFFCURVE",
"116 688 OFFCURVE",
"116 588 CURVE SMOOTH",
"116 399 OFFCURVE",
"20 342 OFFCURVE",
"20 154 CURVE SMOOTH",
"20 22 OFFCURVE"
);
}
);
};
guideLines = (
{
angle = 90;
position = "{90, 127}";
}
);
layerId = "96905D42-4DA3-4213-87EC-7E9831FBB31D";
name = "Jun 18 20, 23:01";
paths = (
{
closed = 1;
nodes = (
"106 0 OFFCURVE",
"90 0 CURVE SMOOTH",
"74 0 OFFCURVE",
"58 26 OFFCURVE",
"58 154 CURVE SMOOTH",
"58 353 OFFCURVE",
"154 429 OFFCURVE",
"154 585 CURVE SMOOTH",
"154 681 OFFCURVE",
"119 729 OFFCURVE",
"90 729 CURVE SMOOTH",
"60 729 OFFCURVE",
"26 681 OFFCURVE",
"26 585 CURVE SMOOTH",
"26 439 OFFCURVE",
"122 313 OFFCURVE",
"122 154 CURVE SMOOTH",
"122 26 OFFCURVE"
);
},
{
closed = 1;
nodes = (
"55 -10 OFFCURVE",
"90 -10 CURVE SMOOTH",
"125 -10 OFFCURVE",
"160 22 OFFCURVE",
"160 154 CURVE SMOOTH",
"160 332 OFFCURVE",
"64 441 OFFCURVE",
"64 588 CURVE SMOOTH",
"64 688 OFFCURVE",
"77 719 OFFCURVE",
"90 719 CURVE SMOOTH",
"103 719 OFFCURVE",
"116 688 OFFCURVE",
"116 588 CURVE SMOOTH",
"116 399 OFFCURVE",
"20 342 OFFCURVE",
"20 154 CURVE SMOOTH",
"20 22 OFFCURVE"
);
}
);
width = 180;
},
{
associatedMasterId = "03715FCC-FE87-43AF-962B-9C8D97F38189";
background = {
paths = (
{
closed = 1;
nodes = (
"106 0 OFFCURVE",
"90 0 CURVE SMOOTH",
"74 0 OFFCURVE",
"58 16 OFFCURVE",
"58 144 CURVE",
"58 207 LINE",
"62 425 OFFCURVE",
"154 393 OFFCURVE",
"154 545 CURVE",
"154 619 LINE",
"151 705 OFFCURVE",
"118 729 OFFCURVE",
"90 729 CURVE SMOOTH",
"61 729 OFFCURVE",
"29 705 OFFCURVE",
"26 619 CURVE",
"26 545 LINE",
"26 403 OFFCURVE",
"116 358 OFFCURVE",
"122 207 CURVE",
"122 144 LINE",
"122 16 OFFCURVE"
);
},
{
closed = 1;
nodes = (
"55 -10 OFFCURVE",
"90 -10 CURVE SMOOTH",
"125 -10 OFFCURVE",
"160 12 OFFCURVE",
"160 144 CURVE",
"160 207 LINE",
"155 376 OFFCURVE",
"64 405 OFFCURVE",
"64 548 CURVE",
"64 619 LINE",
"65 710 OFFCURVE",
"77 719 OFFCURVE",
"90 719 CURVE SMOOTH",
"103 719 OFFCURVE",
"115 710 OFFCURVE",
"116 619 CURVE",
"116 548 LINE",
"116 333 OFFCURVE",
"24 383 OFFCURVE",
"20 207 CURVE",
"20 144 LINE",
"20 12 OFFCURVE"
);
}
);
};
guideLines = (
{
angle = 90;
position = "{90, 127}";
}
);
layerId = "639C4F3C-7570-4430-8BB0-E1FC10433E41";
name = "Jul 8 20, 16:44";
paths = (
{
closed = 1;
nodes = (
"106 0 OFFCURVE",
"90 0 CURVE SMOOTH",
"74 0 OFFCURVE",
"58 16 OFFCURVE",
"58 144 CURVE",
"58 207 LINE",
"62 425 OFFCURVE",
"154 393 OFFCURVE",
"154 545 CURVE",
"154 619 LINE",
"151 705 OFFCURVE",
"118 729 OFFCURVE",
"90 729 CURVE SMOOTH",
"61 729 OFFCURVE",
"29 705 OFFCURVE",
"26 619 CURVE",
"26 545 LINE",
"26 403 OFFCURVE",
"116 358 OFFCURVE",
"122 207 CURVE",
"122 144 LINE",
"122 16 OFFCURVE"
);
},
{
closed = 1;
nodes = (
"55 -10 OFFCURVE",
"90 -10 CURVE SMOOTH",
"125 -10 OFFCURVE",
"160 12 OFFCURVE",
"160 144 CURVE",
"160 207 LINE",
"155 376 OFFCURVE",
"64 405 OFFCURVE",
"64 548 CURVE",
"64 619 LINE",
"65 710 OFFCURVE",
"77 719 OFFCURVE",
"90 719 CURVE SMOOTH",
"103 719 OFFCURVE",
"115 710 OFFCURVE",
"116 619 CURVE",
"116 548 LINE",
"116 333 OFFCURVE",
"24 383 OFFCURVE",
"20 207 CURVE",
"20 144 LINE",
"20 12 OFFCURVE"
);
}
);
width = 180;
}
);
leftKerningGroup = O;
leftMetricsKey = "=O-5";
rightKerningGroup = O;
rightMetricsKey = "=O-5";
unicode = 0038;
},
{
glyphname = nine;
lastChange = "2024-01-24 20:04:38 +0000";
layers = (
{
background = {
paths = (
{
closed = 1;
nodes = (
"58 169 OFFCURVE",
"69 155 OFFCURVE",
"81 155 CURVE SMOOTH",
"92 155 OFFCURVE",
"104 169 OFFCURVE",
"104 189 CURVE",
"110 208 LINE",
"108 145 OFFCURVE",
"87 116 OFFCURVE",
"66 116 CURVE SMOOTH",
"43 116 OFFCURVE",
"20 150 OFFCURVE",
"20 214 CURVE",
"20 619 LINE",
"20 699 OFFCURVE",
"46 735 OFFCURVE",
"81 735 CURVE SMOOTH",
"116 735 OFFCURVE",
"142 698 OFFCURVE",
"142 619 CURVE",
"142 260 LINE",
"142 134 LINE",
"142 6 OFFCURVE",
"58 -10 OFFCURVE",
"30 -10 CURVE",
"30 40 LINE",
"125 -16 OFFCURVE",
"104 64 OFFCURVE",
"104 120 CURVE",
"104 258 LINE",
"104 611 LINE",
"104 683 OFFCURVE",
"102 725 OFFCURVE",
"81 725 CURVE SMOOTH",
"60 725 OFFCURVE",
"58 682 OFFCURVE",
"58 611 CURVE",
"58 207 LINE"
);
}
);
};
layerId = "03715FCC-FE87-43AF-962B-9C8D97F38189";
paths = (
{
closed = 1;
nodes = (
"58 0 OFFCURVE",
"142 16 OFFCURVE",
"142 144 CURVE",
"142 265 LINE",
"142 574 LINE",
"142 653 OFFCURVE",
"116 690 OFFCURVE",
"81 690 CURVE SMOOTH",
"46 690 OFFCURVE",
"20 654 OFFCURVE",
"20 574 CURVE",
"20 219 LINE",
"20 155 OFFCURVE",
"43 121 OFFCURVE",
"66 121 CURVE SMOOTH",
"87 121 OFFCURVE",
"108 150 OFFCURVE",
"110 213 CURVE",
"104 194 LINE",
"104 174 OFFCURVE",
"92 160 OFFCURVE",
"81 160 CURVE SMOOTH",
"69 160 OFFCURVE",
"58 174 OFFCURVE",
"58 212 CURVE",
"58 566 LINE",
"58 637 OFFCURVE",
"58 680 OFFCURVE",
"81 680 CURVE SMOOTH",
"103 680 OFFCURVE",
"104 638 OFFCURVE",
"104 566 CURVE",
"104 263 LINE",
"104 130 LINE",
"104 113 OFFCURVE",
"106 94 OFFCURVE",
"106 77 CURVE SMOOTH",
"106 51 OFFCURVE",
"102 31 OFFCURVE",
"80 31 CURVE SMOOTH",
"69 31 OFFCURVE",
"53 37 OFFCURVE",
"30 50 CURVE",
"30 0 LINE"
);
}
);
userData = {
com.hugojourdan.ColorFlow = {
"0" = 0;
"1" = 0;
"10" = 0;
"11" = 0;
"2" = 0;
"3" = 0;
"4" = 0;
"5" = 0;
"6" = 0;
"7" = 0;
"8" = 0;
"9" = 0;
};
};
width = 162;
}
);
leftKerningGroup = O;
leftMetricsKey = O;
rightKerningGroup = O;
rightMetricsKey = O;
unicode = 0039;
},
{
glyphname = zero.osf;
lastChange = "2024-01-24 18:56:59 +0000";
layers = (
{
background = {
paths = (
{
closed = 1;
nodes = (
"134 365 LINE",
"32 217 LINE",
"20 220 LINE",
"122 368 LINE"
);
},
{
closed = 1;
nodes = (
"15 520 LINE SMOOTH",
"15 580 OFFCURVE",
"47 610 OFFCURVE",
"78 610 CURVE SMOOTH",
"110 610 OFFCURVE",
"141 580 OFFCURVE",
"141 520 CURVE SMOOTH",
"141 80 LINE SMOOTH",
"141 20 OFFCURVE",
"110 -10 OFFCURVE",
"78 -10 CURVE SMOOTH",
"47 -10 OFFCURVE",
"15 20 OFFCURVE",
"15 80 CURVE SMOOTH"
);
},
{
closed = 1;
nodes = (
"55 16 OFFCURVE",
"67 0 OFFCURVE",
"78 0 CURVE SMOOTH",
"90 0 OFFCURVE",
"101 16 OFFCURVE",
"101 50 CURVE SMOOTH",
"101 550 LINE SMOOTH",
"101 584 OFFCURVE",
"90 600 OFFCURVE",
"78 600 CURVE SMOOTH",
"67 600 OFFCURVE",
"55 584 OFFCURVE",
"55 550 CURVE SMOOTH",
"55 50 LINE SMOOTH"
);
}
);
};
layerId = "03715FCC-FE87-43AF-962B-9C8D97F38189";
paths = (
{
closed = 1;
nodes = (
"110 -10 OFFCURVE",
"141 20 OFFCURVE",
"141 80 CURVE",
"141 520 LINE",
"141 580 OFFCURVE",
"110 610 OFFCURVE",
"78 610 CURVE",
"47 610 OFFCURVE",
"15 580 OFFCURVE",
"15 520 CURVE",
"15 80 LINE",
"15 20 OFFCURVE",
"47 -10 OFFCURVE",
"78 -10 CURVE"
);
},
{
closed = 1;
nodes = (
"20 220 LINE",
"122 368 LINE",
"134 365 LINE",
"32 217 LINE"
);
},
{
closed = 1;
nodes = (
"67 0 OFFCURVE",
"55 16 OFFCURVE",
"55 50 CURVE",
"55 550 LINE",
"55 584 OFFCURVE",
"67 600 OFFCURVE",
"78 600 CURVE",
"90 600 OFFCURVE",
"101 584 OFFCURVE",
"101 550 CURVE",
"101 50 LINE",
"101 16 OFFCURVE",
"90 0 OFFCURVE",
"78 0 CURVE"
);
}
);
userData = {
com.hugojourdan.ColorFlow = {
"0" = 0;
"1" = 0;
"10" = 0;
"11" = 0;
"2" = 0;
"3" = 0;
"4" = 0;
"5" = 0;
"6" = 0;
"7" = 0;
"8" = 0;
"9" = 0;
};
};
width = 156;
},
{
associatedMasterId = "03715FCC-FE87-43AF-962B-9C8D97F38189";
layerId = "7EFCEB05-2974-49D8-AD4C-CF9A9E17EC10";
name = "Jun 18 20, 23:03";
paths = (
{
closed = 1;
nodes = (
"113 -10 OFFCURVE",
"139 26 OFFCURVE",
"139 106 CURVE SMOOTH",
"139 614 LINE SMOOTH",
"139 694 OFFCURVE",
"113 730 OFFCURVE",
"78 730 CURVE SMOOTH",
"43 730 OFFCURVE",
"17 693 OFFCURVE",
"17 614 CURVE SMOOTH",
"17 106 LINE SMOOTH",
"17 27 OFFCURVE",
"43 -10 OFFCURVE",
"78 -10 CURVE SMOOTH"
);
},
{
closed = 1;
nodes = (
"63 0 OFFCURVE",
"55 22 OFFCURVE",
"55 104 CURVE SMOOTH",
"55 616 LINE SMOOTH",
"55 698 OFFCURVE",
"63 720 OFFCURVE",
"78 720 CURVE SMOOTH",
"93 720 OFFCURVE",
"101 697 OFFCURVE",
"101 616 CURVE SMOOTH",
"101 104 LINE SMOOTH",
"101 23 OFFCURVE",
"93 0 OFFCURVE",
"78 0 CURVE SMOOTH"
);
},
{
closed = 1;
nodes = (
"93 312 OFFCURVE",
"103 334 OFFCURVE",
"103 367 CURVE SMOOTH",
"103 400 OFFCURVE",
"94 422 OFFCURVE",
"78 422 CURVE SMOOTH",
"62 422 OFFCURVE",
"53 401 OFFCURVE",
"53 367 CURVE SMOOTH",
"53 334 OFFCURVE",
"63 312 OFFCURVE",
"78 312 CURVE SMOOTH"
);
}
);
width = 156;
},
{
associatedMasterId = "03715FCC-FE87-43AF-962B-9C8D97F38189";
background = {
paths = (
{
closed = 1;
nodes = (
"113 -10 OFFCURVE",
"139 26 OFFCURVE",
"139 106 CURVE SMOOTH",
"139 614 LINE SMOOTH",
"139 694 OFFCURVE",
"113 730 OFFCURVE",
"78 730 CURVE SMOOTH",
"43 730 OFFCURVE",
"17 693 OFFCURVE",
"17 614 CURVE SMOOTH",
"17 106 LINE SMOOTH",
"17 27 OFFCURVE",
"43 -10 OFFCURVE",
"78 -10 CURVE SMOOTH"
);
},
{
closed = 1;
nodes = (
"63 0 OFFCURVE",
"55 22 OFFCURVE",
"55 104 CURVE SMOOTH",
"55 616 LINE SMOOTH",
"55 698 OFFCURVE",
"63 720 OFFCURVE",
"78 720 CURVE SMOOTH",
"93 720 OFFCURVE",
"101 697 OFFCURVE",
"101 616 CURVE SMOOTH",
"101 104 LINE SMOOTH",
"101 23 OFFCURVE",
"93 0 OFFCURVE",
"78 0 CURVE SMOOTH"
);
},
{
closed = 1;
nodes = (
"29 299 LINE",
"39 288 LINE",
"139 436 LINE",
"129 447 LINE"
);
}
);
};
layerId = "C47BF7F5-E168-4099-83E0-DA63A4D133E9";
name = "Jul 7 20, 13:16";
paths = (
{
closed = 1;
nodes = (
"113 -10 OFFCURVE",
"139 26 OFFCURVE",
"139 106 CURVE SMOOTH",
"139 614 LINE SMOOTH",
"139 694 OFFCURVE",
"113 730 OFFCURVE",
"78 730 CURVE SMOOTH",
"43 730 OFFCURVE",
"17 693 OFFCURVE",
"17 614 CURVE SMOOTH",
"17 106 LINE SMOOTH",
"17 27 OFFCURVE",
"43 -10 OFFCURVE",
"78 -10 CURVE SMOOTH"
);
},
{
closed = 1;
nodes = (
"63 0 OFFCURVE",
"55 22 OFFCURVE",
"55 104 CURVE SMOOTH",
"55 616 LINE SMOOTH",
"55 698 OFFCURVE",
"63 720 OFFCURVE",
"78 720 CURVE SMOOTH",
"93 720 OFFCURVE",
"101 697 OFFCURVE",
"101 616 CURVE SMOOTH",
"101 104 LINE SMOOTH",
"101 23 OFFCURVE",
"93 0 OFFCURVE",
"78 0 CURVE SMOOTH"
);
},
{
closed = 1;
nodes = (
"29 299 LINE",
"39 288 LINE",
"139 436 LINE",
"129 447 LINE"
);
}
);
width = 156;
}
);
leftKerningGroup = o;
leftMetricsKey = o;
rightKerningGroup = o;
rightMetricsKey = o;
},
{
glyphname = one.osf;
lastChange = "2024-01-24 20:48:08 +0000";
layers = (
{
associatedMasterId = "03715FCC-FE87-43AF-962B-9C8D97F38189";
background = {
paths = (
{
closed = 1;
nodes = (
"150 0 LINE",
"150 730 LINE",
"112 680 LINE",
"50 606 LINE",
"112 606 LINE",
"137 632 LINE",
"112 632 LINE",
"112 0 LINE"
);
},
{
closed = 1;
nodes = (
"195 0 LINE",
"195 25 LINE",
"67 25 LINE",
"67 0 LINE"
);
}
);
};
layerId = "66C6E315-F294-4819-BD87-0DD1440F5950";
name = "Apr 21 20, 20:49";
paths = (
{
closed = 1;
nodes = (
"150 0 LINE",
"150 730 LINE",
"112 680 LINE",
"50 606 LINE",
"112 606 LINE",
"137 632 LINE",
"112 632 LINE",
"112 0 LINE"
);
},
{
closed = 1;
nodes = (
"195 0 LINE",
"195 25 LINE",
"67 25 LINE",
"67 0 LINE"
);
}
);
width = 245;
},
{
associatedMasterId = "03715FCC-FE87-43AF-962B-9C8D97F38189";
background = {
paths = (
{
closed = 1;
nodes = (
"148 0 LINE",
"148 730 LINE",
"63 710 LINE",
"63 690 LINE",
"110 690 LINE",
"135 721 LINE",
"110 701 LINE",
"110 0 LINE"
);
}
);
};
layerId = "6CAE492F-00EB-4C73-AB03-C29BAB5B0038";
name = "Apr 21 20, 20:59";
paths = (
{
closed = 1;
nodes = (
"148 0 LINE",
"148 730 LINE",
"63 710 LINE",
"63 690 LINE",
"110 690 LINE",
"135 721 LINE",
"110 701 LINE",
"110 0 LINE"
);
}
);
width = 258;
},
{
associatedMasterId = "03715FCC-FE87-43AF-962B-9C8D97F38189";
background = {
paths = (
{
closed = 0;
nodes = (
"122 730 LINE"
);
}
);
};
layerId = "B016EE17-421C-4AA1-9134-C81EFDB42B3E";
name = "Apr 21 20, 21:34";
paths = (
{
closed = 1;
nodes = (
"23 307 LINE",
"122 730 LINE",
"122 0 LINE",
"84 0 LINE",
"84 558 LINE",
"105 558 LINE",
"45 301 LINE"
);
}
);
width = 137;
},
{
associatedMasterId = "03715FCC-FE87-43AF-962B-9C8D97F38189";
background = {
paths = (
{
closed = 1;
nodes = (
"84 590 LINE",
"87 602 LINE",
"87 671 LINE",
"122 721 LINE",
"122 158 LINE",
"122 48 OFFCURVE",
"105 34 OFFCURVE",
"175 42 CURVE",
"175 -10 LINE",
"82 -10 OFFCURVE",
"84 78 OFFCURVE",
"84 242 CURVE"
);
}
);
};
layerId = "DB684751-A3FB-4509-8559-67CEA01D1089";
name = "May 27 20, 09:25";
paths = (
{
closed = 1;
nodes = (
"23 414 LINE",
"87 682 LINE",
"122 730 LINE",
"122 0 LINE",
"84 0 LINE",
"84 665 LINE",
"95 665 LINE",
"45 408 LINE"
);
}
);
width = 137;
},
{
background = {
paths = (
{
closed = 1;
nodes = (
"90 0 LINE",
"90 730 LINE",
"5 710 LINE",
"5 690 LINE",
"52 690 LINE",
"77 721 LINE",
"52 701 LINE",
"52 0 LINE"
);
}
);
};
layerId = "03715FCC-FE87-43AF-962B-9C8D97F38189";
paths = (
{
closed = 1;
nodes = (
"90 0 LINE",
"90 604 LINE",
"5 584 LINE",
"5 569 LINE",
"67 582 LINE",
"52 587 LINE",
"52 0 LINE"
);
},
{
closed = 1;
nodes = (
"135 0 LINE",
"135 10 LINE",
"7 10 LINE",
"7 0 LINE"
);
}
);
userData = {
com.hugojourdan.ColorFlow = {
"0" = 0;
"1" = 0;
"10" = 0;
"11" = 0;
"2" = 0;
"3" = 0;
"4" = 0;
"5" = 0;
"6" = 0;
"7" = 0;
"8" = 0;
"9" = 0;
};
};
width = 140;
}
);
leftKerningGroup = one;
rightKerningGroup = one;
},
{
glyphname = two.osf;
lastChange = "2024-01-24 20:07:21 +0000";
layers = (
{
background = {
paths = (
{
closed = 1;
nodes = (
"122 0 LINE",
"122 10 LINE",
"22 10 LINE",
"25 8 LINE",
"25 21 LINE",
"25 100 OFFCURVE",
"113 348 OFFCURVE",
"113 474 CURVE SMOOTH",
"113 575 OFFCURVE",
"54 610 OFFCURVE",
"26 610 CURVE",
"26 558 LINE",
"38 563 OFFCURVE",
"48 565 OFFCURVE",
"56 565 CURVE SMOOTH",
"82 565 OFFCURVE",
"90 546 OFFCURVE",
"90 512 CURVE SMOOTH",
"90 469 OFFCURVE",
"77 408 OFFCURVE",
"64 359 CURVE SMOOTH",
"28 223 OFFCURVE",
"15 158 OFFCURVE",
"15 23 CURVE SMOOTH",
"15 0 LINE"
);
}
);
};
guideLines = (
{
position = "{245, 728}";
},
{
angle = 90;
position = "{122, 111}";
},
{
angle = 90;
position = "{15, 281}";
}
);
layerId = "03715FCC-FE87-43AF-962B-9C8D97F38189";
paths = (
{
closed = 1;
nodes = (
"122 0 LINE",
"122 10 LINE",
"22 10 LINE",
"25 8 LINE",
"25 21 LINE",
"25 100 OFFCURVE",
"113 337 OFFCURVE",
"113 474 CURVE SMOOTH",
"113 575 OFFCURVE",
"54 610 OFFCURVE",
"26 610 CURVE",
"26 558 LINE",
"38 563 OFFCURVE",
"48 565 OFFCURVE",
"56 565 CURVE SMOOTH",
"82 565 OFFCURVE",
"90 546 OFFCURVE",
"90 512 CURVE SMOOTH",
"90 469 OFFCURVE",
"77 408 OFFCURVE",
"64 359 CURVE SMOOTH",
"28 223 OFFCURVE",
"15 167 OFFCURVE",
"15 23 CURVE SMOOTH",
"15 0 LINE"
);
}
);
userData = {
com.hugojourdan.ColorFlow = {
"0" = 0;
"1" = 0;
"10" = 0;
"11" = 0;
"2" = 0;
"3" = 0;
"4" = 0;
"5" = 0;
"6" = 0;
"7" = 0;
"8" = 0;
"9" = 0;
};
};
width = 122;
},
{
associatedMasterId = "03715FCC-FE87-43AF-962B-9C8D97F38189";
background = {
paths = (
{
closed = 1;
nodes = (
"36 18 LINE",
"36 31 LINE",
"70 69 OFFCURVE",
"113 181 OFFCURVE",
"113 335 CURVE",
"113 572 LINE",
"113 700 OFFCURVE",
"54 735 OFFCURVE",
"26 735 CURVE",
"26 683 LINE",
"46 688 OFFCURVE",
"75 705 OFFCURVE",
"75 610 CURVE",
"75 313 LINE",
"75 174 OFFCURVE",
"62 55 OFFCURVE",
"15 9 CURVE",
"15 0 LINE",
"122 0 LINE",
"122 25 LINE",
"30 25 LINE"
);
}
);
};
guideLines = (
{
angle = 90;
position = "{122, 111}";
},
{
angle = 90;
position = "{15, 281}";
}
);
layerId = "98A41FEF-4445-4E70-82E6-0308F50E3D8B";
name = "Apr 21 20, 21:13";
paths = (
{
closed = 1;
nodes = (
"36 30 LINE",
"36 39 LINE",
"70 77 OFFCURVE",
"113 181 OFFCURVE",
"113 335 CURVE",
"113 567 LINE",
"113 695 OFFCURVE",
"54 730 OFFCURVE",
"26 730 CURVE",
"26 678 LINE",
"46 683 OFFCURVE",
"75 700 OFFCURVE",
"75 605 CURVE",
"75 313 LINE",
"75 174 OFFCURVE",
"62 72 OFFCURVE",
"15 26 CURVE",
"15 0 LINE",
"122 0 LINE",
"122 35 LINE",
"31 35 LINE"
);
}
);
width = 142;
},
{
associatedMasterId = "03715FCC-FE87-43AF-962B-9C8D97F38189";
background = {
paths = (
{
closed = 1;
nodes = (
"36 18 LINE",
"36 31 LINE",
"70 69 OFFCURVE",
"113 181 OFFCURVE",
"113 335 CURVE",
"113 572 LINE",
"113 700 OFFCURVE",
"54 735 OFFCURVE",
"26 735 CURVE",
"26 683 LINE",
"46 688 OFFCURVE",
"75 705 OFFCURVE",
"75 610 CURVE",
"75 313 LINE",
"75 174 OFFCURVE",
"62 55 OFFCURVE",
"15 9 CURVE",
"15 0 LINE",
"122 0 LINE",
"122 25 LINE",
"30 25 LINE"
);
}
);
};
guideLines = (
{
position = "{245, 728}";
},
{
angle = 90;
position = "{122, 111}";
},
{
angle = 90;
position = "{15, 281}";
}
);
layerId = "B0EB7570-B5D8-4477-90F0-3754DC0A7DA9";
name = "Apr 21 20, 21:26";
paths = (
{
closed = 1;
nodes = (
"36 20 LINE",
"36 29 LINE",
"70 67 OFFCURVE",
"113 181 OFFCURVE",
"113 335 CURVE",
"113 572 LINE",
"113 700 OFFCURVE",
"54 735 OFFCURVE",
"26 735 CURVE",
"26 683 LINE",
"46 688 OFFCURVE",
"75 705 OFFCURVE",
"75 610 CURVE",
"75 313 LINE",
"75 174 OFFCURVE",
"62 55 OFFCURVE",
"15 9 CURVE",
"15 0 LINE",
"122 0 LINE",
"122 25 LINE",
"31 25 LINE"
);
}
);
width = 142;
},
{
associatedMasterId = "03715FCC-FE87-43AF-962B-9C8D97F38189";
background = {
paths = (
{
closed = 1;
nodes = (
"37 8 LINE",
"37 21 LINE",
"37 122 OFFCURVE",
"122 413 OFFCURVE",
"122 572 CURVE SMOOTH",
"122 700 OFFCURVE",
"63 735 OFFCURVE",
"35 735 CURVE",
"35 683 LINE",
"55 688 OFFCURVE",
"89 705 OFFCURVE",
"89 610 CURVE SMOOTH",
"89 585 OFFCURVE",
"85 546 OFFCURVE",
"79 499 CURVE SMOOTH",
"60 360 OFFCURVE",
"24 149 OFFCURVE",
"24 23 CURVE SMOOTH",
"24 0 LINE",
"131 0 LINE",
"131 15 LINE",
"31 15 LINE"
);
}
);
};
guideLines = (
{
position = "{254, 728}";
},
{
angle = 90;
position = "{131, 111}";
},
{
angle = 90;
position = "{24, 281}";
}
);
layerId = "4D453434-9B31-420B-9964-FDA3D3EE4F3F";
name = "Jul 7 20, 13:15";
paths = (
{
closed = 1;
nodes = (
"37 8 LINE",
"37 21 LINE",
"37 122 OFFCURVE",
"122 413 OFFCURVE",
"122 572 CURVE SMOOTH",
"122 700 OFFCURVE",
"63 735 OFFCURVE",
"35 735 CURVE",
"35 683 LINE",
"137 720 OFFCURVE",
"91 593 OFFCURVE",
"79 499 CURVE SMOOTH",
"60 360 OFFCURVE",
"24 149 OFFCURVE",
"24 23 CURVE SMOOTH",
"24 0 LINE",
"131 0 LINE",
"131 15 LINE",
"31 15 LINE"
);
}
);
width = 151;
}
);
rightKerningGroup = two;
},
{
glyphname = three.osf;
lastChange = "2024-01-24 20:04:38 +0000";
layers = (
{
background = {
paths = (
{
closed = 1;
nodes = (
"58 333 OFFCURVE",
"69 344 OFFCURVE",
"69 376 CURVE",
"69 403 OFFCURVE",
"70 421 OFFCURVE",
"70 458 CURVE",
"70 513 OFFCURVE",
"127 592 OFFCURVE",
"17 560 CURVE",
"17 610 LINE",
"74 610 OFFCURVE",
"107 555 OFFCURVE",
"107 472 CURVE",
"107 438 LINE",
"107 336 OFFCURVE",
"64 324 OFFCURVE",
"49 324 CURVE",
"49 328 LINE",
"65 328 OFFCURVE",
"107 316 OFFCURVE",
"107 220 CURVE",
"107 172 LINE",
"107 18 OFFCURVE",
"87 -10 OFFCURVE",
"5 -10 CURVE",
"5 40 LINE",
"101 6 OFFCURVE",
"74 12 OFFCURVE",
"69 131 CURVE",
"69 283 LINE",
"69 307 OFFCURVE",
"59 318 OFFCURVE",
"45 318 CURVE",
"45 333 LINE"
);
}
);
};
layerId = "03715FCC-FE87-43AF-962B-9C8D97F38189";
paths = (
{
closed = 1;
nodes = (
"87 -10 OFFCURVE",
"107 24 OFFCURVE",
"107 178 CURVE",
"107 220 LINE",
"107 316 OFFCURVE",
"65 328 OFFCURVE",
"49 328 CURVE",
"49 324 LINE",
"64 324 OFFCURVE",
"107 336 OFFCURVE",
"107 438 CURVE",
"107 472 LINE",
"107 555 OFFCURVE",
"74 610 OFFCURVE",
"17 610 CURVE",
"17 560 LINE",
"35 565 OFFCURVE",
"48 568 OFFCURVE",
"58 568 CURVE SMOOTH",
"79 568 OFFCURVE",
"85 558 OFFCURVE",
"85 543 CURVE SMOOTH",
"85 520 OFFCURVE",
"70 485.991 OFFCURVE",
"70 458 CURVE",
"70 421 OFFCURVE",
"69 403 OFFCURVE",
"69 376 CURVE",
"69 344 OFFCURVE",
"58 333 OFFCURVE",
"45 333 CURVE",
"45 318 LINE",
"59 318 OFFCURVE",
"69 307 OFFCURVE",
"69 283 CURVE",
"69 131 LINE",
"71 84 OFFCURVE",
"76 54 OFFCURVE",
"76 38 CURVE SMOOTH",
"76 27 OFFCURVE",
"74 22 OFFCURVE",
"65 22 CURVE SMOOTH",
"55 22 OFFCURVE",
"36 29 OFFCURVE",
"5 40 CURVE",
"5 -10 LINE"
);
}
);
userData = {
com.hugojourdan.ColorFlow = {
"0" = 0;
"1" = 0;
"10" = 0;
"11" = 0;
"2" = 0;
"3" = 0;
"4" = 0;
"5" = 0;
"6" = 0;
"7" = 0;
"8" = 0;
"9" = 0;
};
};
width = 125;
},
{
associatedMasterId = "03715FCC-FE87-43AF-962B-9C8D97F38189";
background = {
paths = (
{
closed = 1;
nodes = (
"94 683 OFFCURVE",
"83 675 OFFCURVE",
"35 678 CURVE",
"35 728 LINE",
"92 728 OFFCURVE",
"125 673 OFFCURVE",
"125 590 CURVE SMOOTH",
"125 556 LINE SMOOTH",
"125 454 OFFCURVE",
"82 442 OFFCURVE",
"67 442 CURVE",
"67 446 LINE",
"83 446 OFFCURVE",
"125 434 OFFCURVE",
"125 338 CURVE SMOOTH",
"125 240 LINE SMOOTH",
"125 86 OFFCURVE",
"105 -10 OFFCURVE",
"23 -10 CURVE",
"23 40 LINE",
"95 38 OFFCURVE",
"87 45 OFFCURVE",
"87 168 CURVE SMOOTH",
"87 401 LINE SMOOTH",
"87 425 OFFCURVE",
"77 436 OFFCURVE",
"63 436 CURVE",
"63 451 LINE",
"76 451 OFFCURVE",
"87 462 OFFCURVE",
"87 494 CURVE SMOOTH",
"87 521 OFFCURVE",
"88 549 OFFCURVE",
"89 576 CURVE SMOOTH"
);
}
);
};
layerId = "8FA2F90C-F662-4285-8A77-33160B110368";
name = "Jun 18 20, 22:55";
paths = (
{
closed = 1;
nodes = (
"94 683 OFFCURVE",
"83 675 OFFCURVE",
"35 678 CURVE",
"35 728 LINE",
"92 728 OFFCURVE",
"125 673 OFFCURVE",
"125 590 CURVE SMOOTH",
"125 556 LINE SMOOTH",
"125 454 OFFCURVE",
"82 442 OFFCURVE",
"67 442 CURVE",
"67 446 LINE",
"83 446 OFFCURVE",
"125 434 OFFCURVE",
"125 338 CURVE SMOOTH",
"125 240 LINE SMOOTH",
"125 86 OFFCURVE",
"105 -10 OFFCURVE",
"23 -10 CURVE",
"23 40 LINE",
"95 38 OFFCURVE",
"87 45 OFFCURVE",
"87 168 CURVE SMOOTH",
"87 401 LINE SMOOTH",
"87 425 OFFCURVE",
"77 436 OFFCURVE",
"63 436 CURVE",
"63 451 LINE",
"76 451 OFFCURVE",
"87 462 OFFCURVE",
"87 494 CURVE SMOOTH",
"87 521 OFFCURVE",
"88 549 OFFCURVE",
"89 576 CURVE SMOOTH"
);
}
);
width = 150;
}
);
},
{
glyphname = four.osf;
lastChange = "2024-01-24 18:56:59 +0000";
layers = (
{
background = {
paths = (
{
closed = 1;
nodes = (
"5 131 LINE",
"108 562 LINE",
"140 613 LINE",
"140 0 LINE",
"102 0 LINE",
"102 394 LINE",
"111 562 LINE",
"118 562 LINE",
"17 137 LINE",
"12 141 LINE",
"173 141 LINE",
"173 131 LINE"
);
}
);
};
layerId = "03715FCC-FE87-43AF-962B-9C8D97F38189";
paths = (
{
closed = 1;
nodes = (
"140 0 LINE",
"140 613 LINE",
"108 595 LINE",
"5 131 LINE",
"173 131 LINE",
"173 141 LINE",
"12 141 LINE",
"17 137 LINE",
"118 595 LINE",
"111 595 LINE",
"102 394 LINE",
"102 0 LINE"
);
}
);
userData = {
com.hugojourdan.ColorFlow = {
"0" = 0;
"1" = 0;
"10" = 0;
"11" = 0;
"2" = 0;
"3" = 0;
"4" = 0;
"5" = 0;
"6" = 0;
"7" = 0;
"8" = 0;
"9" = 0;
};
};
width = 173;
},
{
associatedMasterId = "03715FCC-FE87-43AF-962B-9C8D97F38189";
background = {
paths = (
{
closed = 1;
nodes = (
"56 414 LINE",
"120 682 LINE",
"155 730 LINE",
"155 0 LINE",
"117 0 LINE",
"117 665 LINE",
"138 665 LINE",
"78 408 LINE"
);
}
);
};
layerId = "90083547-E0A1-4D1F-82B5-2C242FE416C3";
name = "Jul 7 20, 13:15";
paths = (
{
closed = 1;
nodes = (
"15 131 LINE",
"118 679 LINE",
"155 730 LINE",
"155 0 LINE",
"117 0 LINE",
"117 511 LINE",
"126 679 LINE",
"133 679 LINE",
"38 138 LINE",
"12 146 LINE",
"188 146 LINE",
"188 131 LINE"
);
}
);
width = 200;
}
);
},
{
glyphname = five.osf;
lastChange = "2024-01-24 20:04:38 +0000";
layers = (
{
background = {
paths = (
{
closed = 1;
nodes = (
"121 720 LINE",
"24 720 LINE",
"12 536 LINE",
"23 536 LINE",
"24 557 OFFCURVE",
"33 570 OFFCURVE",
"46 570 CURVE SMOOTH",
"61 570 OFFCURVE",
"69 556 OFFCURVE",
"69 518 CURVE SMOOTH",
"69 164 LINE SMOOTH",
"69 55 OFFCURVE",
"77 38 OFFCURVE",
"5 40 CURVE",
"5 -10 LINE",
"87 -10 OFFCURVE",
"106 86 OFFCURVE",
"107 240 CURVE SMOOTH",
"107 511 LINE SMOOTH",
"107 575 OFFCURVE",
"85 609 OFFCURVE",
"61 609 CURVE SMOOTH",
"37 609 OFFCURVE",
"22 576 OFFCURVE",
"12 522 CURVE",
"23 547 LINE",
"33 685 LINE",
"121 685 LINE"
);
}
);
};
layerId = "03715FCC-FE87-43AF-962B-9C8D97F38189";
paths = (
{
closed = 1;
nodes = (
"87 -10 OFFCURVE",
"106 76 OFFCURVE",
"107 230 CURVE",
"107 391 LINE",
"107 455 OFFCURVE",
"87 489 OFFCURVE",
"61 489 CURVE SMOOTH",
"37 489 OFFCURVE",
"25 460 OFFCURVE",
"17 427 CURVE",
"23 427 LINE",
"33 565 LINE",
"121 565 LINE",
"121 600 LINE",
"24 600 LINE",
"12 416 LINE",
"23 416 LINE",
"24 437 OFFCURVE",
"32 450 OFFCURVE",
"46 450 CURVE SMOOTH",
"61 450 OFFCURVE",
"69 436 OFFCURVE",
"69 398 CURVE",
"69 114 LINE",
"69 94 OFFCURVE",
"69 79 OFFCURVE",
"69 67 CURVE SMOOTH",
"69 36 OFFCURVE",
"68 27 OFFCURVE",
"57 27 CURVE SMOOTH",
"47 27 OFFCURVE",
"32 33 OFFCURVE",
"5 40 CURVE",
"5 -10 LINE"
);
}
);
userData = {
com.hugojourdan.ColorFlow = {
"0" = 0;
"1" = 0;
"10" = 0;
"11" = 0;
"2" = 0;
"3" = 0;
"4" = 0;
"5" = 0;
"6" = 0;
"7" = 0;
"8" = 0;
"9" = 0;
};
};
width = 136;
},
{
associatedMasterId = "03715FCC-FE87-43AF-962B-9C8D97F38189";
layerId = "4427391D-2197-460D-9E18-6DC182B750D3";
name = "May 27 20, 09:43";
paths = (
{
closed = 1;
nodes = (
"146 720 LINE",
"288 720 LINE",
"288 685 LINE",
"159 685 LINE",
"166 693 LINE",
"150 463 LINE",
"140 457 LINE",
"218 653 OFFCURVE",
"277 653 OFFCURVE",
"277 457 CURVE SMOOTH",
"277 187 LINE SMOOTH",
"277 47 OFFCURVE",
"219 -43 OFFCURVE",
"132 1 CURVE",
"132 46 LINE",
"187 -5 OFFCURVE",
"239 48 OFFCURVE",
"239 188 CURVE SMOOTH",
"239 387 LINE SMOOTH",
"239 592 OFFCURVE",
"230 642 OFFCURVE",
"151 438 CURVE",
"128 450 LINE"
);
}
);
width = 600;
},
{
associatedMasterId = "03715FCC-FE87-43AF-962B-9C8D97F38189";
background = {
paths = (
{
closed = 1;
nodes = (
"20 548 LINE",
"32 720 LINE",
"139 720 LINE",
"139 685 LINE",
"45 685 LINE",
"52 693 LINE",
"41 536 LINE"
);
},
{
closed = 1;
nodes = (
"87 240 LINE",
"87 518 LINE SMOOTH",
"87 556 OFFCURVE",
"76 570 OFFCURVE",
"64 570 CURVE SMOOTH",
"53 570 OFFCURVE",
"41 556 OFFCURVE",
"41 536 CURVE",
"35 540 LINE",
"44 586 OFFCURVE",
"58 609 OFFCURVE",
"79 609 CURVE SMOOTH",
"102 609 OFFCURVE",
"125 575 OFFCURVE",
"125 511 CURVE SMOOTH",
"125 240 LINE"
);
},
{
closed = 1;
nodes = (
"125 240 LINE",
"124 86 OFFCURVE",
"105 -10 OFFCURVE",
"23 -10 CURVE",
"23 40 LINE",
"95 38 OFFCURVE",
"87 55 OFFCURVE",
"87 164 CURVE",
"87 240 LINE"
);
}
);
};
layerId = "871B1440-C8B3-4078-977C-E96FC385E0DA";
name = "May 27 20, 09:48";
paths = (
{
closed = 1;
nodes = (
"20 548 LINE",
"32 720 LINE",
"139 720 LINE",
"139 685 LINE",
"45 685 LINE",
"52 693 LINE",
"41 536 LINE"
);
},
{
closed = 1;
nodes = (
"87 240 LINE",
"87 518 LINE SMOOTH",
"87 556 OFFCURVE",
"76 570 OFFCURVE",
"64 570 CURVE SMOOTH",
"53 570 OFFCURVE",
"41 556 OFFCURVE",
"41 536 CURVE",
"35 540 LINE",
"44 586 OFFCURVE",
"58 609 OFFCURVE",
"79 609 CURVE SMOOTH",
"102 609 OFFCURVE",
"125 575 OFFCURVE",
"125 511 CURVE SMOOTH",
"125 240 LINE"
);
},
{
closed = 1;
nodes = (
"125 240 LINE",
"124 86 OFFCURVE",
"105 -10 OFFCURVE",
"23 -10 CURVE",
"23 40 LINE",
"95 38 OFFCURVE",
"87 55 OFFCURVE",
"87 164 CURVE",
"87 240 LINE"
);
}
);
width = 159;
}
);
},
{
glyphname = six.osf;
lastChange = "2024-01-24 20:48:08 +0000";
layers = (
{
background = {
paths = (
{
closed = 1;
nodes = (
"99 556 OFFCURVE",
"88 570 OFFCURVE",
"76 570 CURVE SMOOTH",
"65 570 OFFCURVE",
"53 556 OFFCURVE",
"53 536 CURVE",
"47 517 LINE",
"49 580 OFFCURVE",
"70 609 OFFCURVE",
"91 609 CURVE SMOOTH",
"114 609 OFFCURVE",
"137 575 OFFCURVE",
"137 511 CURVE",
"137 106 LINE",
"137 26 OFFCURVE",
"111 -10 OFFCURVE",
"76 -10 CURVE SMOOTH",
"41 -10 OFFCURVE",
"15 27 OFFCURVE",
"15 106 CURVE",
"15 465 LINE",
"15 586 LINE",
"15 714 OFFCURVE",
"99 730 OFFCURVE",
"127 730 CURVE",
"127 680 LINE",
"32 736 OFFCURVE",
"53 656 OFFCURVE",
"53 600 CURVE",
"53 467 LINE",
"53 114 LINE",
"53 42 OFFCURVE",
"61 10 OFFCURVE",
"76 10 CURVE SMOOTH",
"91 10 OFFCURVE",
"99 43 OFFCURVE",
"99 114 CURVE",
"99 518 LINE"
);
}
);
};
layerId = "03715FCC-FE87-43AF-962B-9C8D97F38189";
paths = (
{
closed = 1;
nodes = (
"111 -10 OFFCURVE",
"137 26 OFFCURVE",
"137 106 CURVE",
"137 391 LINE",
"137 455 OFFCURVE",
"114 489 OFFCURVE",
"91 489 CURVE SMOOTH",
"70 489 OFFCURVE",
"49 460 OFFCURVE",
"47 397 CURVE",
"53 416 LINE",
"53 436 OFFCURVE",
"65 450 OFFCURVE",
"76 450 CURVE SMOOTH",
"88 450 OFFCURVE",
"99 436 OFFCURVE",
"99 398 CURVE",
"99 104 LINE",
"99 33 OFFCURVE",
"91 0 OFFCURVE",
"76 0 CURVE SMOOTH",
"61 0 OFFCURVE",
"53 32 OFFCURVE",
"53 104 CURVE",
"53 347 LINE",
"53 480 LINE",
"53 497 OFFCURVE",
"51 516 OFFCURVE",
"51 533 CURVE SMOOTH",
"51 559 OFFCURVE",
"55 579 OFFCURVE",
"77 579 CURVE SMOOTH",
"88 579 OFFCURVE",
"104 573 OFFCURVE",
"127 560 CURVE",
"127 610 LINE",
"99 610 OFFCURVE",
"15 594 OFFCURVE",
"15 466 CURVE",
"15 345 LINE",
"15 106 LINE",
"15 27 OFFCURVE",
"41 -10 OFFCURVE",
"76 -10 CURVE SMOOTH"
);
}
);
userData = {
com.hugojourdan.ColorFlow = {
"0" = 0;
"1" = 0;
"10" = 0;
"11" = 0;
"2" = 0;
"3" = 0;
"4" = 0;
"5" = 0;
"6" = 0;
"7" = 0;
"8" = 0;
"9" = 0;
};
};
width = 152;
}
);
leftKerningGroup = o;
leftMetricsKey = o;
rightKerningGroup = o;
rightMetricsKey = o;
},
{
glyphname = seven.osf;
lastChange = "2024-01-24 18:56:59 +0000";
layers = (
{
background = {
paths = (
{
closed = 1;
nodes = (
"14 395 OFFCURVE",
"107 513 OFFCURVE",
"107 679 CURVE",
"107 692 LINE",
"108 685 LINE",
"0 685 LINE",
"0 720 LINE",
"117 720 LINE",
"117 677 LINE SMOOTH",
"117 375 OFFCURVE",
"52 383 OFFCURVE",
"52 0 CURVE",
"14 0 LINE"
);
}
);
};
layerId = "03715FCC-FE87-43AF-962B-9C8D97F38189";
paths = (
{
closed = 1;
nodes = (
"52 0 LINE",
"52 273 OFFCURVE",
"117 275 OFFCURVE",
"117 557 CURVE SMOOTH",
"117 600 LINE",
"0 600 LINE",
"0 565 LINE",
"108 565 LINE",
"107 572 LINE",
"107 559 LINE",
"107 413 OFFCURVE",
"14 285 OFFCURVE",
"14 0 CURVE"
);
}
);
userData = {
com.hugojourdan.ColorFlow = {
"0" = 0;
"1" = 0;
"10" = 0;
"11" = 0;
"2" = 0;
"3" = 0;
"4" = 0;
"5" = 0;
"6" = 0;
"7" = 0;
"8" = 0;
"9" = 0;
};
};
width = 132;
},
{
associatedMasterId = "03715FCC-FE87-43AF-962B-9C8D97F38189";
background = {
paths = (
{
closed = 1;
nodes = (
"14 395 OFFCURVE",
"107 513 OFFCURVE",
"107 679 CURVE",
"107 692 LINE",
"108 685 LINE",
"0 685 LINE",
"0 720 LINE",
"117 720 LINE",
"117 677 LINE SMOOTH",
"117 375 OFFCURVE",
"52 383 OFFCURVE",
"52 0 CURVE",
"14 0 LINE"
);
}
);
};
layerId = "19FCA24B-6D87-4F5D-A7D6-8F50D62DC369";
name = "Jul 8 20, 16:41";
paths = (
{
closed = 1;
nodes = (
"14 395 OFFCURVE",
"107 513 OFFCURVE",
"107 679 CURVE",
"107 692 LINE",
"108 685 LINE",
"0 685 LINE",
"0 720 LINE",
"117 720 LINE",
"117 677 LINE SMOOTH",
"117 375 OFFCURVE",
"52 383 OFFCURVE",
"52 0 CURVE",
"14 0 LINE"
);
}
);
width = 127;
}
);
leftKerningGroup = seven;
rightKerningGroup = seven;
},
{
glyphname = eight.osf;
lastChange = "2024-01-24 20:48:08 +0000";
layers = (
{
background = {
paths = (
{
closed = 1;
nodes = (
"101 0 OFFCURVE",
"85 0 CURVE SMOOTH",
"69 0 OFFCURVE",
"53 16 OFFCURVE",
"53 144 CURVE",
"53 168 LINE",
"57 366 OFFCURVE",
"149 314 OFFCURVE",
"149 466 CURVE",
"149 500 LINE",
"146 586 OFFCURVE",
"113 610 OFFCURVE",
"85 610 CURVE SMOOTH",
"56 610 OFFCURVE",
"24 586 OFFCURVE",
"21 500 CURVE",
"21 466 LINE",
"21 324 OFFCURVE",
"111 319 OFFCURVE",
"117 168 CURVE",
"117 144 LINE",
"117 16 OFFCURVE"
);
},
{
closed = 1;
nodes = (
"50 -10 OFFCURVE",
"85 -10 CURVE SMOOTH",
"120 -10 OFFCURVE",
"155 12 OFFCURVE",
"155 144 CURVE",
"155 168 LINE",
"150 337 OFFCURVE",
"59 326 OFFCURVE",
"59 469 CURVE",
"59 500 LINE",
"60 591 OFFCURVE",
"72 600 OFFCURVE",
"85 600 CURVE SMOOTH",
"98 600 OFFCURVE",
"110 591 OFFCURVE",
"111 500 CURVE",
"111 469 LINE",
"111 254 OFFCURVE",
"19 344 OFFCURVE",
"15 168 CURVE",
"15 144 LINE",
"15 12 OFFCURVE"
);
}
);
};
guideLines = (
{
angle = 90;
position = "{85, 127}";
}
);
layerId = "03715FCC-FE87-43AF-962B-9C8D97F38189";
paths = (
{
closed = 1;
nodes = (
"120 -10 OFFCURVE",
"155 12 OFFCURVE",
"155 144 CURVE",
"155 168 LINE",
"150 337 OFFCURVE",
"59 326 OFFCURVE",
"59 469 CURVE",
"59 500 LINE",
"60 591 OFFCURVE",
"72 600 OFFCURVE",
"85 600 CURVE SMOOTH",
"98 600 OFFCURVE",
"110 591 OFFCURVE",
"111 500 CURVE",
"111 469 LINE",
"111 254 OFFCURVE",
"19 344 OFFCURVE",
"15 168 CURVE",
"15 144 LINE",
"15 12 OFFCURVE",
"50 -10 OFFCURVE",
"85 -10 CURVE SMOOTH"
);
},
{
closed = 1;
nodes = (
"69 0 OFFCURVE",
"53 16 OFFCURVE",
"53 144 CURVE",
"53 168 LINE",
"57 366 OFFCURVE",
"149 314 OFFCURVE",
"149 466 CURVE",
"149 500 LINE",
"146 586 OFFCURVE",
"113 610 OFFCURVE",
"85 610 CURVE SMOOTH",
"56 610 OFFCURVE",
"24 586 OFFCURVE",
"21 500 CURVE",
"21 466 LINE",
"21 324 OFFCURVE",
"111 319 OFFCURVE",
"117 168 CURVE",
"117 144 LINE",
"117 16 OFFCURVE",
"101 0 OFFCURVE",
"85 0 CURVE SMOOTH"
);
}
);
userData = {
com.hugojourdan.ColorFlow = {
"0" = 0;
"1" = 0;
"10" = 0;
"11" = 0;
"2" = 0;
"3" = 0;
"4" = 0;
"5" = 0;
"6" = 0;
"7" = 0;
"8" = 0;
"9" = 0;
};
};
width = 170;
},
{
associatedMasterId = "03715FCC-FE87-43AF-962B-9C8D97F38189";
background = {
paths = (
{
closed = 0;
nodes = (
"210 166 LINE",
"210 328 OFFCURVE",
"-54 688 OFFCURVE",
"123 688 CURVE",
"123 728 LINE",
"95 728 OFFCURVE",
"45 711 OFFCURVE",
"45 586 CURVE SMOOTH",
"45 469 OFFCURVE",
"178 272 OFFCURVE",
"179 138 CURVE"
);
},
{
closed = 0;
nodes = (
"63 138 LINE",
"63 278 OFFCURVE",
"192 469 OFFCURVE",
"192 586 CURVE SMOOTH",
"192 711 OFFCURVE",
"142 728 OFFCURVE",
"114 728 CURVE",
"114 688 LINE",
"295 688 OFFCURVE",
"32 328 OFFCURVE",
"32 166 CURVE"
);
},
{
closed = 0;
nodes = (
"154 583 LINE",
"153 449 OFFCURVE",
"30 252 OFFCURVE",
"30 135 CURVE SMOOTH",
"30 10 OFFCURVE",
"80 -7 OFFCURVE",
"122 -7 CURVE",
"122 33 LINE",
"-67 33 OFFCURVE",
"185 393 OFFCURVE",
"185 555 CURVE"
);
},
{
closed = 0;
nodes = (
"58 555 LINE",
"58 393 OFFCURVE",
"320 33 OFFCURVE",
"122 33 CURVE",
"122 -7 LINE",
"163 -7 OFFCURVE",
"213 10 OFFCURVE",
"213 135 CURVE SMOOTH",
"213 252 OFFCURVE",
"90 449 OFFCURVE",
"89 583 CURVE"
);
}
);
};
guideLines = (
{
angle = 90;
position = "{118, 127}";
}
);
layerId = "9363A489-B924-4DE3-AAB5-102F0F3D31B9";
name = "May 27 20, 11:17";
paths = (
{
closed = 1;
nodes = (
"48 454 OFFCURVE",
"179 215 OFFCURVE",
"179 109 CURVE SMOOTH",
"179 58 OFFCURVE",
"162 33 OFFCURVE",
"118 33 CURVE",
"118 -7 LINE",
"149 -7 OFFCURVE",
"203 10 OFFCURVE",
"203 135 CURVE SMOOTH",
"203 280 OFFCURVE",
"70 508 OFFCURVE",
"70 620 CURVE SMOOTH",
"70 661 OFFCURVE",
"88 688 OFFCURVE",
"118 688 CURVE",
"118 728 LINE",
"98 728 OFFCURVE",
"48 711 OFFCURVE",
"48 597 CURVE SMOOTH"
);
},
{
closed = 1;
nodes = (
"187 711 OFFCURVE",
"137 728 OFFCURVE",
"118 728 CURVE",
"118 688 LINE",
"147 688 OFFCURVE",
"164 661 OFFCURVE",
"164 620 CURVE SMOOTH",
"164 508 OFFCURVE",
"33 280 OFFCURVE",
"33 135 CURVE SMOOTH",
"33 10 OFFCURVE",
"87 -7 OFFCURVE",
"118 -7 CURVE",
"118 33 LINE",
"75 33 OFFCURVE",
"58 58 OFFCURVE",
"58 109 CURVE SMOOTH",
"58 215 OFFCURVE",
"187 454 OFFCURVE",
"187 597 CURVE SMOOTH"
);
}
);
width = 236;
},
{
associatedMasterId = "03715FCC-FE87-43AF-962B-9C8D97F38189";
background = {
paths = (
{
closed = 1;
nodes = (
"106 0 OFFCURVE",
"90 0 CURVE SMOOTH",
"74 0 OFFCURVE",
"58 26 OFFCURVE",
"58 154 CURVE SMOOTH",
"58 353 OFFCURVE",
"154 429 OFFCURVE",
"154 585 CURVE SMOOTH",
"154 681 OFFCURVE",
"119 729 OFFCURVE",
"90 729 CURVE SMOOTH",
"60 729 OFFCURVE",
"26 681 OFFCURVE",
"26 585 CURVE SMOOTH",
"26 439 OFFCURVE",
"122 313 OFFCURVE",
"122 154 CURVE SMOOTH",
"122 26 OFFCURVE"
);
},
{
closed = 1;
nodes = (
"55 -10 OFFCURVE",
"90 -10 CURVE SMOOTH",
"125 -10 OFFCURVE",
"160 22 OFFCURVE",
"160 154 CURVE SMOOTH",
"160 332 OFFCURVE",
"64 441 OFFCURVE",
"64 588 CURVE SMOOTH",
"64 688 OFFCURVE",
"77 719 OFFCURVE",
"90 719 CURVE SMOOTH",
"103 719 OFFCURVE",
"116 688 OFFCURVE",
"116 588 CURVE SMOOTH",
"116 399 OFFCURVE",
"20 342 OFFCURVE",
"20 154 CURVE SMOOTH",
"20 22 OFFCURVE"
);
}
);
};
guideLines = (
{
angle = 90;
position = "{90, 127}";
}
);
layerId = "96905D42-4DA3-4213-87EC-7E9831FBB31D";
name = "Jun 18 20, 23:01";
paths = (
{
closed = 1;
nodes = (
"106 0 OFFCURVE",
"90 0 CURVE SMOOTH",
"74 0 OFFCURVE",
"58 26 OFFCURVE",
"58 154 CURVE SMOOTH",
"58 353 OFFCURVE",
"154 429 OFFCURVE",
"154 585 CURVE SMOOTH",
"154 681 OFFCURVE",
"119 729 OFFCURVE",
"90 729 CURVE SMOOTH",
"60 729 OFFCURVE",
"26 681 OFFCURVE",
"26 585 CURVE SMOOTH",
"26 439 OFFCURVE",
"122 313 OFFCURVE",
"122 154 CURVE SMOOTH",
"122 26 OFFCURVE"
);
},
{
closed = 1;
nodes = (
"55 -10 OFFCURVE",
"90 -10 CURVE SMOOTH",
"125 -10 OFFCURVE",
"160 22 OFFCURVE",
"160 154 CURVE SMOOTH",
"160 332 OFFCURVE",
"64 441 OFFCURVE",
"64 588 CURVE SMOOTH",
"64 688 OFFCURVE",
"77 719 OFFCURVE",
"90 719 CURVE SMOOTH",
"103 719 OFFCURVE",
"116 688 OFFCURVE",
"116 588 CURVE SMOOTH",
"116 399 OFFCURVE",
"20 342 OFFCURVE",
"20 154 CURVE SMOOTH",
"20 22 OFFCURVE"
);
}
);
width = 180;
},
{
associatedMasterId = "03715FCC-FE87-43AF-962B-9C8D97F38189";
background = {
paths = (
{
closed = 1;
nodes = (
"106 0 OFFCURVE",
"90 0 CURVE SMOOTH",
"74 0 OFFCURVE",
"58 16 OFFCURVE",
"58 144 CURVE",
"58 207 LINE",
"62 425 OFFCURVE",
"154 393 OFFCURVE",
"154 545 CURVE",
"154 619 LINE",
"151 705 OFFCURVE",
"118 729 OFFCURVE",
"90 729 CURVE SMOOTH",
"61 729 OFFCURVE",
"29 705 OFFCURVE",
"26 619 CURVE",
"26 545 LINE",
"26 403 OFFCURVE",
"116 358 OFFCURVE",
"122 207 CURVE",
"122 144 LINE",
"122 16 OFFCURVE"
);
},
{
closed = 1;
nodes = (
"55 -10 OFFCURVE",
"90 -10 CURVE SMOOTH",
"125 -10 OFFCURVE",
"160 12 OFFCURVE",
"160 144 CURVE",
"160 207 LINE",
"155 376 OFFCURVE",
"64 405 OFFCURVE",
"64 548 CURVE",
"64 619 LINE",
"65 710 OFFCURVE",
"77 719 OFFCURVE",
"90 719 CURVE SMOOTH",
"103 719 OFFCURVE",
"115 710 OFFCURVE",
"116 619 CURVE",
"116 548 LINE",
"116 333 OFFCURVE",
"24 383 OFFCURVE",
"20 207 CURVE",
"20 144 LINE",
"20 12 OFFCURVE"
);
}
);
};
guideLines = (
{
angle = 90;
position = "{90, 127}";
}
);
layerId = "639C4F3C-7570-4430-8BB0-E1FC10433E41";
name = "Jul 8 20, 16:44";
paths = (
{
closed = 1;
nodes = (
"106 0 OFFCURVE",
"90 0 CURVE SMOOTH",
"74 0 OFFCURVE",
"58 16 OFFCURVE",
"58 144 CURVE",
"58 207 LINE",
"62 425 OFFCURVE",
"154 393 OFFCURVE",
"154 545 CURVE",
"154 619 LINE",
"151 705 OFFCURVE",
"118 729 OFFCURVE",
"90 729 CURVE SMOOTH",
"61 729 OFFCURVE",
"29 705 OFFCURVE",
"26 619 CURVE",
"26 545 LINE",
"26 403 OFFCURVE",
"116 358 OFFCURVE",
"122 207 CURVE",
"122 144 LINE",
"122 16 OFFCURVE"
);
},
{
closed = 1;
nodes = (
"55 -10 OFFCURVE",
"90 -10 CURVE SMOOTH",
"125 -10 OFFCURVE",
"160 12 OFFCURVE",
"160 144 CURVE",
"160 207 LINE",
"155 376 OFFCURVE",
"64 405 OFFCURVE",
"64 548 CURVE",
"64 619 LINE",
"65 710 OFFCURVE",
"77 719 OFFCURVE",
"90 719 CURVE SMOOTH",
"103 719 OFFCURVE",
"115 710 OFFCURVE",
"116 619 CURVE",
"116 548 LINE",
"116 333 OFFCURVE",
"24 383 OFFCURVE",
"20 207 CURVE",
"20 144 LINE",
"20 12 OFFCURVE"
);
}
);
width = 180;
}
);
leftKerningGroup = o;
leftMetricsKey = o;
rightKerningGroup = o;
rightMetricsKey = o;
},
{
glyphname = fraction;
lastChange = "2024-01-24 18:56:59 +0000";
layers = (
{
background = {
paths = (
{
closed = 1;
nodes = (
"22 -10 LINE",
"109 611 LINE",
"98 611 LINE",
"10 -10 LINE"
);
}
);
};
layerId = "03715FCC-FE87-43AF-962B-9C8D97F38189";
paths = (
{
closed = 1;
nodes = (
"19 -81 LINE",
"115 690 LINE",
"104 690 LINE",
"7 -81 LINE"
);
}
);
userData = {
com.hugojourdan.ColorFlow = {
"0" = 0;
"1" = 0;
"10" = 0;
"11" = 0;
"2" = 0;
"3" = 0;
"4" = 0;
"5" = 0;
"6" = 0;
"7" = 0;
"8" = 0;
"9" = 0;
};
};
width = 119;
}
);
unicode = 2044;
},
{
glyphname = period;
lastChange = "2024-01-24 18:56:59 +0000";
layers = (
{
background = {
paths = (
{
closed = 1;
nodes = (
"63 73 OFFCURVE",
"54 94 OFFCURVE",
"39 94 CURVE SMOOTH",
"24 94 OFFCURVE",
"15 74 OFFCURVE",
"15 42 CURVE SMOOTH",
"15 11 OFFCURVE",
"25 -10 OFFCURVE",
"39 -10 CURVE SMOOTH",
"53 -10 OFFCURVE",
"63 11 OFFCURVE",
"63 42 CURVE SMOOTH"
);
}
);
};
layerId = "03715FCC-FE87-43AF-962B-9C8D97F38189";
paths = (
{
closed = 1;
nodes = (
"53 -10 OFFCURVE",
"63 11 OFFCURVE",
"63 42 CURVE SMOOTH",
"63 73 OFFCURVE",
"54 94 OFFCURVE",
"39 94 CURVE SMOOTH",
"24 94 OFFCURVE",
"15 74 OFFCURVE",
"15 42 CURVE SMOOTH",
"15 11 OFFCURVE",
"25 -10 OFFCURVE",
"39 -10 CURVE SMOOTH"
);
}
);
userData = {
com.hugojourdan.ColorFlow = {
"0" = 0;
"1" = 0;
"10" = 0;
"11" = 0;
"2" = 0;
"3" = 0;
"4" = 0;
"5" = 0;
"6" = 0;
"7" = 0;
"8" = 0;
"9" = 0;
};
};
width = 78;
}
);
leftKerningGroup = period;
rightKerningGroup = period;
unicode = 002E;
},
{
glyphname = comma;
lastChange = "2024-01-24 18:56:59 +0000";
layers = (
{
background = {
paths = (
{
closed = 1;
nodes = (
"63 73 OFFCURVE",
"54 94 OFFCURVE",
"39 94 CURVE SMOOTH",
"24 94 OFFCURVE",
"15 74 OFFCURVE",
"15 42 CURVE SMOOTH",
"15 14 OFFCURVE",
"23 -6 OFFCURVE",
"35 -9 CURVE",
"14 -74 LINE",
"27 -74 LINE",
"56 5 LINE",
"61 14 OFFCURVE",
"63 27 OFFCURVE",
"63 42 CURVE SMOOTH"
);
}
);
};
layerId = "03715FCC-FE87-43AF-962B-9C8D97F38189";
paths = (
{
closed = 1;
nodes = (
"27 -74 LINE",
"51 -10 LINE",
"54 -1 OFFCURVE",
"63 16 OFFCURVE",
"63 45 CURVE SMOOTH",
"63 73 OFFCURVE",
"54 94 OFFCURVE",
"39 94 CURVE SMOOTH",
"24 94 OFFCURVE",
"15 74 OFFCURVE",
"15 45 CURVE SMOOTH",
"15 14 OFFCURVE",
"24 -2 OFFCURVE",
"36 -5 CURVE",
"14 -74 LINE"
);
}
);
userData = {
com.hugojourdan.ColorFlow = {
"0" = 0;
"1" = 0;
"10" = 0;
"11" = 0;
"2" = 0;
"3" = 0;
"4" = 0;
"5" = 0;
"6" = 0;
"7" = 0;
"8" = 0;
"9" = 0;
};
};
width = 83;
}
);
leftKerningGroup = comma;
rightKerningGroup = comma;
unicode = 002C;
},
{
glyphname = colon;
lastChange = "2023-08-15 12:19:21 +0000";
layers = (
{
components = (
{
name = period;
},
{
name = period;
transform = "{1, 0, 0, 1, 0, 274}";
}
);
layerId = "03715FCC-FE87-43AF-962B-9C8D97F38189";
userData = {
com.hugojourdan.ColorFlow = {
"0" = 0;
"1" = 0;
"10" = 0;
"11" = 0;
"2" = 0;
"3" = 0;
"4" = 0;
"5" = 0;
"6" = 0;
"7" = 0;
"8" = 0;
"9" = 0;
};
};
width = 78;
},
{
associatedMasterId = "03715FCC-FE87-43AF-962B-9C8D97F38189";
background = {
paths = (
{
closed = 1;
nodes = (
"20 251 LINE",
"58 251 LINE",
"58 379 LINE",
"20 379 LINE"
);
}
);
};
layerId = "6DECA656-F9C3-48EB-B9F8-AFD65A74E4A9";
name = "Jul 7 20, 13:14";
paths = (
{
closed = 1;
nodes = (
"20 291 LINE",
"58 291 LINE",
"58 379 LINE",
"20 379 LINE"
);
},
{
closed = 1;
nodes = (
"20 38 LINE",
"58 38 LINE",
"58 126 LINE",
"20 126 LINE"
);
}
);
width = 78;
}
);
unicode = 003A;
},
{
glyphname = exclam;
lastChange = "2024-01-24 18:56:59 +0000";
layers = (
{
components = (
{
name = period;
transform = "{1, 0, 0, 1, 16, 0}";
}
);
guideLines = (
{
angle = 90;
position = "{17, 118}";
},
{
angle = 90;
position = "{17, 118}";
}
);
layerId = "03715FCC-FE87-43AF-962B-9C8D97F38189";
paths = (
{
closed = 1;
nodes = (
"61 118 LINE",
"61 680 LINE",
"17 680 LINE",
"17 448 LINE SMOOTH",
"17 362 OFFCURVE",
"17 305 OFFCURVE",
"33 259 CURVE SMOOTH",
"46 223 OFFCURVE",
"50 203 OFFCURVE",
"50 137 CURVE SMOOTH",
"50 118 LINE"
);
}
);
userData = {
com.hugojourdan.ColorFlow = {
"0" = 0;
"1" = 0;
"10" = 0;
"11" = 0;
"2" = 0;
"3" = 0;
"4" = 0;
"5" = 0;
"6" = 0;
"7" = 0;
"8" = 0;
"9" = 0;
};
};
width = 78;
}
);
unicode = 0021;
},
{
glyphname = question;
lastChange = "2024-01-24 20:12:45 +0000";
layers = (
{
background = {
paths = (
{
closed = 1;
nodes = (
"58 118 LINE",
"58 130 LINE SMOOTH",
"58 277 OFFCURVE",
"134 352 OFFCURVE",
"134 535 CURVE SMOOTH",
"134 650 OFFCURVE",
"53 680 OFFCURVE",
"13 680 CURVE",
"13 620 LINE",
"31 630 OFFCURVE",
"43 647 OFFCURVE",
"61 647 CURVE SMOOTH",
"99 647 OFFCURVE",
"112 624 OFFCURVE",
"112 584 CURVE SMOOTH",
"112 494 OFFCURVE",
"47 321 OFFCURVE",
"47 132 CURVE SMOOTH",
"47 118 LINE"
);
}
);
};
components = (
{
name = period;
transform = "{1, 0, 0, 1, 14, 0}";
}
);
guideLines = (
{
angle = 90;
position = "{21, 118}";
}
);
layerId = "03715FCC-FE87-43AF-962B-9C8D97F38189";
paths = (
{
closed = 1;
nodes = (
"58 118 LINE",
"58 130 LINE SMOOTH",
"58 277 OFFCURVE",
"134 352 OFFCURVE",
"134 535 CURVE SMOOTH",
"134 650 OFFCURVE",
"53 680 OFFCURVE",
"13 680 CURVE",
"13 620 LINE",
"31 630 OFFCURVE",
"43 647 OFFCURVE",
"61 647 CURVE SMOOTH",
"99 647 OFFCURVE",
"112 624 OFFCURVE",
"112 584 CURVE SMOOTH",
"112 494 OFFCURVE",
"47 321 OFFCURVE",
"47 132 CURVE SMOOTH",
"47 118 LINE"
);
}
);
userData = {
com.hugojourdan.ColorFlow = {
"0" = 0;
"1" = 0;
"10" = 0;
"11" = 0;
"2" = 0;
"3" = 0;
"4" = 0;
"5" = 0;
"6" = 0;
"7" = 0;
"8" = 0;
"9" = 0;
};
};
width = 160;
}
);
unicode = 003F;
},
{
glyphname = bullet;
lastChange = "2024-01-24 18:56:59 +0000";
layers = (
{
layerId = "03715FCC-FE87-43AF-962B-9C8D97F38189";
paths = (
{
closed = 1;
nodes = (
"69 273 OFFCURVE",
"82 300 OFFCURVE",
"82 341 CURVE SMOOTH",
"82 381 OFFCURVE",
"70 408 OFFCURVE",
"51 408 CURVE SMOOTH",
"31 408 OFFCURVE",
"20 382 OFFCURVE",
"20 341 CURVE SMOOTH",
"20 300 OFFCURVE",
"33 273 OFFCURVE",
"51 273 CURVE SMOOTH"
);
}
);
userData = {
com.hugojourdan.ColorFlow = {
"0" = 0;
"1" = 0;
"10" = 0;
"11" = 0;
"2" = 0;
"3" = 0;
"4" = 0;
"5" = 0;
"6" = 0;
"7" = 0;
"8" = 0;
"9" = 0;
};
};
width = 102;
}
);
unicode = 2022;
},
{
glyphname = asterisk;
lastChange = "2024-01-24 20:21:35 +0000";
layers = (
{
guideLines = (
{
position = "{109, 603}";
},
{
position = "{109, 587}";
}
);
layerId = "03715FCC-FE87-43AF-962B-9C8D97F38189";
paths = (
{
closed = 1;
nodes = (
"20 554 LINE",
"122 645 LINE",
"124 636 LINE",
"22 545 LINE"
);
},
{
closed = 1;
nodes = (
"57 688 LINE",
"87 688 LINE",
"87 500 LINE",
"57 500 LINE"
);
},
{
closed = 1;
nodes = (
"20 636 LINE",
"22 645 LINE",
"124 554 LINE",
"122 545 LINE"
);
}
);
userData = {
com.hugojourdan.ColorFlow = {
"0" = 0;
"1" = 0;
"10" = 0;
"11" = 0;
"2" = 0;
"3" = 0;
"4" = 0;
"5" = 0;
"6" = 0;
"7" = 0;
"8" = 0;
"9" = 0;
};
};
width = 144;
}
);
unicode = 002A;
},
{
glyphname = numbersign;
lastChange = "2024-01-24 18:56:59 +0000";
layers = (
{
components = (
{
name = equal;
transform = "{1, 0, 0, 1, 13, -16}";
}
);
layerId = "03715FCC-FE87-43AF-962B-9C8D97F38189";
paths = (
{
closed = 1;
nodes = (
"77 223 LINE",
"185 425 LINE",
"173 425 LINE",
"65 223 LINE"
);
},
{
closed = 1;
nodes = (
"27 223 LINE",
"135 425 LINE",
"123 425 LINE",
"15 223 LINE"
);
}
);
userData = {
com.hugojourdan.ColorFlow = {
"0" = 0;
"1" = 0;
"10" = 0;
"11" = 0;
"2" = 0;
"3" = 0;
"4" = 0;
"5" = 0;
"6" = 0;
"7" = 0;
"8" = 0;
"9" = 0;
};
};
width = 200;
}
);
unicode = 0023;
},
{
glyphname = hyphen;
lastChange = "2024-01-24 18:56:59 +0000";
layers = (
{
layerId = "03715FCC-FE87-43AF-962B-9C8D97F38189";
paths = (
{
closed = 1;
nodes = (
"104 338 LINE",
"104 377 LINE",
"20 377 LINE",
"20 338 LINE"
);
}
);
userData = {
com.hugojourdan.ColorFlow = {
"0" = 0;
"1" = 0;
"10" = 0;
"11" = 0;
"2" = 0;
"3" = 0;
"4" = 0;
"5" = 0;
"6" = 0;
"7" = 0;
"8" = 0;
"9" = 0;
};
};
width = 124;
}
);
unicode = 002D;
},
{
glyphname = endash;
lastChange = "2024-01-24 18:56:59 +0000";
layers = (
{
layerId = "03715FCC-FE87-43AF-962B-9C8D97F38189";
paths = (
{
closed = 1;
nodes = (
"170 348 LINE",
"170 377 LINE",
"20 377 LINE",
"20 348 LINE"
);
}
);
userData = {
com.hugojourdan.ColorFlow = {
"0" = 0;
"1" = 0;
"10" = 0;
"11" = 0;
"2" = 0;
"3" = 0;
"4" = 0;
"5" = 0;
"6" = 0;
"7" = 0;
"8" = 0;
"9" = 0;
};
};
width = 192;
}
);
unicode = 2013;
},
{
glyphname = emdash;
lastChange = "2024-01-24 18:56:59 +0000";
layers = (
{
layerId = "03715FCC-FE87-43AF-962B-9C8D97F38189";
paths = (
{
closed = 1;
nodes = (
"252 348 LINE",
"252 377 LINE",
"20 377 LINE",
"20 348 LINE"
);
}
);
userData = {
com.hugojourdan.ColorFlow = {
"0" = 0;
"1" = 0;
"10" = 0;
"11" = 0;
"2" = 0;
"3" = 0;
"4" = 0;
"5" = 0;
"6" = 0;
"7" = 0;
"8" = 0;
"9" = 0;
};
};
width = 274;
}
);
unicode = 2014;
},
{
glyphname = underscore;
lastChange = "2024-01-24 18:56:59 +0000";
layers = (
{
layerId = "03715FCC-FE87-43AF-962B-9C8D97F38189";
paths = (
{
closed = 1;
nodes = (
"170 -39 LINE",
"170 -10 LINE",
"20 -10 LINE",
"20 -39 LINE"
);
}
);
userData = {
com.hugojourdan.ColorFlow = {
"0" = 0;
"1" = 0;
"10" = 0;
"11" = 0;
"2" = 0;
"3" = 0;
"4" = 0;
"5" = 0;
"6" = 0;
"7" = 0;
"8" = 0;
"9" = 0;
};
};
width = 192;
}
);
unicode = 005F;
},
{
glyphname = parenleft;
lastChange = "2024-01-24 20:04:38 +0000";
layers = (
{
layerId = "03715FCC-FE87-43AF-962B-9C8D97F38189";
paths = (
{
closed = 1;
nodes = (
"131 -29 LINE",
"119 -33 OFFCURVE",
"108 -37 OFFCURVE",
"98 -37 CURVE SMOOTH",
"83 -37 OFFCURVE",
"72 -26 OFFCURVE",
"72 17 CURVE SMOOTH",
"72 632 LINE SMOOTH",
"72 675 OFFCURVE",
"83 686 OFFCURVE",
"98 686 CURVE SMOOTH",
"108 686 OFFCURVE",
"119 682 OFFCURVE",
"131 678 CURVE",
"131 730 LINE",
"39 730 OFFCURVE",
"18 460 OFFCURVE",
"18 301 CURVE SMOOTH",
"18 203 OFFCURVE",
"26 -81 OFFCURVE",
"131 -81 CURVE"
);
}
);
userData = {
com.hugojourdan.ColorFlow = {
"0" = 0;
"1" = 0;
"10" = 0;
"11" = 0;
"2" = 0;
"3" = 0;
"4" = 0;
"5" = 0;
"6" = 0;
"7" = 0;
"8" = 0;
"9" = 0;
};
};
width = 146;
}
);
unicode = 0028;
},
{
glyphname = braceleft;
lastChange = "2024-01-24 20:04:38 +0000";
layers = (
{
layerId = "03715FCC-FE87-43AF-962B-9C8D97F38189";
paths = (
{
closed = 1;
nodes = (
"118 -29 LINE",
"104 -34 OFFCURVE",
"92 -38 OFFCURVE",
"83 -38 CURVE SMOOTH",
"64 -38 OFFCURVE",
"54 -24 OFFCURVE",
"54 19 CURVE SMOOTH",
"54 115 OFFCURVE",
"106 122 OFFCURVE",
"106 316 CURVE SMOOTH",
"106 332 LINE SMOOTH",
"106 518 OFFCURVE",
"50 547 OFFCURVE",
"50 632 CURVE SMOOTH",
"50 675 OFFCURVE",
"64 686 OFFCURVE",
"83 686 CURVE SMOOTH",
"94 686 OFFCURVE",
"106 682 OFFCURVE",
"118 678 CURVE",
"118 730 LINE",
"84 730 OFFCURVE",
"15 662 OFFCURVE",
"15 576 CURVE SMOOTH",
"15 485 OFFCURVE",
"93 430 OFFCURVE",
"93 340 CURVE SMOOTH",
"93 329 LINE",
"22 329 LINE",
"22 319 LINE",
"93 319 LINE",
"93 308 LINE SMOOTH",
"93 203 OFFCURVE",
"15 165 OFFCURVE",
"15 73 CURVE SMOOTH",
"15 -14 OFFCURVE",
"84 -81 OFFCURVE",
"118 -81 CURVE"
);
}
);
userData = {
com.hugojourdan.ColorFlow = {
"0" = 0;
"1" = 0;
"10" = 0;
"11" = 0;
"2" = 0;
"3" = 0;
"4" = 0;
"5" = 0;
"6" = 0;
"7" = 0;
"8" = 0;
"9" = 0;
};
};
width = 133;
}
);
unicode = 007B;
},
{
glyphname = bracketleft;
lastChange = "2024-01-24 18:56:59 +0000";
layers = (
{
background = {
paths = (
{
closed = 1;
nodes = (
"24 -81 LINE",
"141 -81 LINE",
"141 -71 LINE",
"37 -71 LINE",
"36 720 LINE",
"141 720 LINE",
"141 730 LINE",
"22 730 LINE"
);
}
);
};
layerId = "03715FCC-FE87-43AF-962B-9C8D97F38189";
paths = (
{
closed = 1;
nodes = (
"131 -81 LINE",
"131 -71 LINE",
"66 -71 LINE",
"66 720 LINE",
"131 720 LINE",
"131 730 LINE",
"22 730 LINE",
"22 -81 LINE"
);
}
);
userData = {
com.hugojourdan.ColorFlow = {
"0" = 0;
"1" = 0;
"10" = 0;
"11" = 0;
"2" = 0;
"3" = 0;
"4" = 0;
"5" = 0;
"6" = 0;
"7" = 0;
"8" = 0;
"9" = 0;
};
};
width = 146;
}
);
leftMetricsKey = H;
unicode = 005B;
},
{
glyphname = guillemetleft;
lastChange = "2024-01-24 18:56:59 +0000";
layers = (
{
components = (
{
name = guilsinglleft;
}
);
layerId = "03715FCC-FE87-43AF-962B-9C8D97F38189";
paths = (
{
closed = 1;
nodes = (
"203 100 LINE",
"141 299 LINE",
"204 500 LINE",
"194 500 LINE",
"93 299 LINE",
"193 100 LINE"
);
}
);
userData = {
com.hugojourdan.ColorFlow = {
"0" = 0;
"1" = 0;
"10" = 0;
"11" = 0;
"2" = 0;
"3" = 0;
"4" = 0;
"5" = 0;
"6" = 0;
"7" = 0;
"8" = 0;
"9" = 0;
};
};
width = 219;
}
);
unicode = 00AB;
},
{
glyphname = guilsinglleft;
lastChange = "2024-01-24 18:56:59 +0000";
layers = (
{
background = {
paths = (
{
closed = 1;
nodes = (
"124 60 LINE",
"227 60 LINE",
"200 -38 LINE",
"25 334 LINE",
"24 266 LINE",
"201 641 LINE",
"227 540 LINE",
"117 540 LINE",
"185 639 LINE",
"-12 301 LINE",
"185 -39 LINE"
);
}
);
};
layerId = "03715FCC-FE87-43AF-962B-9C8D97F38189";
paths = (
{
closed = 1;
nodes = (
"161 70 LINE",
"68 299 LINE",
"162 530 LINE",
"152 530 LINE",
"15 299 LINE",
"151 70 LINE"
);
}
);
userData = {
com.hugojourdan.ColorFlow = {
"0" = 0;
"1" = 0;
"10" = 0;
"11" = 0;
"2" = 0;
"3" = 0;
"4" = 0;
"5" = 0;
"6" = 0;
"7" = 0;
"8" = 0;
"9" = 0;
};
};
width = 177;
}
);
unicode = 2039;
},
{
glyphname = quotesingle;
lastChange = "2024-01-24 18:56:59 +0000";
layers = (
{
layerId = "03715FCC-FE87-43AF-962B-9C8D97F38189";
paths = (
{
closed = 1;
nodes = (
"36 522 LINE",
"52 690 LINE",
"10 690 LINE",
"26 522 LINE"
);
}
);
userData = {
com.hugojourdan.ColorFlow = {
"0" = 0;
"1" = 0;
"10" = 0;
"11" = 0;
"2" = 0;
"3" = 0;
"4" = 0;
"5" = 0;
"6" = 0;
"7" = 0;
"8" = 0;
"9" = 0;
};
};
width = 62;
}
);
unicode = 0027;
},
{
glyphname = baht;
lastChange = "2024-01-24 18:56:59 +0000";
layers = (
{
guideLines = (
{
angle = 90;
position = "{98, 392}";
},
{
angle = 90;
position = "{88, 392}";
},
{
position = "{15, 484}";
},
{
position = "{15, 179}";
}
);
layerId = "03715FCC-FE87-43AF-962B-9C8D97F38189";
paths = (
{
closed = 1;
nodes = (
"49 179 LINE SMOOTH",
"71 179 OFFCURVE",
"86 192 OFFCURVE",
"86 224 CURVE SMOOTH",
"86 263 LINE SMOOTH",
"86 287 OFFCURVE",
"84 295 OFFCURVE",
"62 316 CURVE SMOOTH",
"16 360 LINE",
"18 346 LINE",
"58 307 LINE SMOOTH",
"74 291 OFFCURVE",
"76 282 OFFCURVE",
"76 263 CURVE SMOOTH",
"76 224 LINE SMOOTH",
"76 197 OFFCURVE",
"66 189 OFFCURVE",
"49 189 CURVE SMOOTH",
"25 189 LINE",
"25 474 LINE",
"49 474 LINE SMOOTH",
"66 474 OFFCURVE",
"76 466 OFFCURVE",
"76 438 CURVE SMOOTH",
"76 392 LINE SMOOTH",
"76 359 OFFCURVE",
"67 343 OFFCURVE",
"46 321 CURVE",
"52 313 LINE",
"74 336 OFFCURVE",
"86 356 OFFCURVE",
"86 392 CURVE SMOOTH",
"86 438 LINE SMOOTH",
"86 471 OFFCURVE",
"71 484 OFFCURVE",
"49 484 CURVE SMOOTH",
"15 484 LINE",
"15 179 LINE"
);
},
{
closed = 1;
nodes = (
"50 106 LINE",
"50 186 LINE",
"40 186 LINE",
"40 106 LINE"
);
},
{
closed = 1;
nodes = (
"50 477 LINE",
"50 558 LINE",
"40 558 LINE",
"40 477 LINE"
);
}
);
userData = {
com.hugojourdan.ColorFlow = {
"0" = 0;
"1" = 0;
"10" = 0;
"11" = 0;
"2" = 0;
"3" = 0;
"4" = 0;
"5" = 0;
"6" = 0;
"7" = 0;
"8" = 0;
"9" = 0;
};
};
width = 113;
}
);
unicode = 0E3F;
},
{
glyphname = at;
lastChange = "2024-01-24 20:48:12 +0000";
layers = (
{
background = {
paths = (
{
closed = 1;
nodes = (
"137 86 LINE",
"137 96 LINE",
"76 96 LINE SMOOTH",
"50 96 OFFCURVE",
"25 120 OFFCURVE",
"25 176 CURVE SMOOTH",
"25 510 LINE SMOOTH",
"25 566 OFFCURVE",
"50 590 OFFCURVE",
"76 590 CURVE SMOOTH",
"103 590 OFFCURVE",
"127 566 OFFCURVE",
"127 510 CURVE SMOOTH",
"127 202 LINE SMOOTH",
"127 168 OFFCURVE",
"128 147 OFFCURVE",
"115 147 CURVE SMOOTH",
"105 147 OFFCURVE",
"102 163 OFFCURVE",
"102 183 CURVE",
"102 356 LINE SMOOTH",
"102 496 OFFCURVE",
"116 570 OFFCURVE",
"50 560 CURVE",
"52 542 LINE",
"95 551 OFFCURVE",
"92 549 OFFCURVE",
"92 425 CURVE",
"47 368 OFFCURVE",
"47 346 OFFCURVE",
"47 294 CURVE SMOOTH",
"47 183 LINE SMOOTH",
"47 153 OFFCURVE",
"60 135 OFFCURVE",
"72 135 CURVE SMOOTH",
"82 135 OFFCURVE",
"94 143 OFFCURVE",
"99 164 CURVE",
"92 173 LINE",
"92 149 OFFCURVE",
"102 135 OFFCURVE",
"116 135 CURVE SMOOTH",
"131 135 OFFCURVE",
"137 152 OFFCURVE",
"137 182 CURVE SMOOTH",
"137 510 LINE SMOOTH",
"137 570 OFFCURVE",
"107 600 OFFCURVE",
"76 600 CURVE SMOOTH",
"46 600 OFFCURVE",
"15 570 OFFCURVE",
"15 510 CURVE SMOOTH",
"15 176 LINE SMOOTH",
"15 116 OFFCURVE",
"46 86 OFFCURVE",
"76 86 CURVE SMOOTH"
);
},
{
closed = 1;
nodes = (
"92 135 OFFCURVE",
"58 133 OFFCURVE",
"58 186 CURVE SMOOTH",
"58 298 LINE SMOOTH",
"58 357 OFFCURVE",
"66 371 OFFCURVE",
"92 408 CURVE",
"92 189 LINE SMOOTH"
);
}
);
};
layerId = "03715FCC-FE87-43AF-962B-9C8D97F38189";
paths = (
{
closed = 1;
nodes = (
"137 151 LINE",
"137 161 LINE",
"76 161 LINE SMOOTH",
"50 161 OFFCURVE",
"25 185 OFFCURVE",
"25 241 CURVE SMOOTH",
"25 416 LINE SMOOTH",
"25 472 OFFCURVE",
"50 496 OFFCURVE",
"76 496 CURVE SMOOTH",
"103 496 OFFCURVE",
"127 472 OFFCURVE",
"127 416 CURVE SMOOTH",
"127 267 LINE SMOOTH",
"127 233 OFFCURVE",
"128 212 OFFCURVE",
"115 212 CURVE SMOOTH",
"105 212 OFFCURVE",
"102 228 OFFCURVE",
"102 248 CURVE",
"102 327 LINE SMOOTH",
"102 348 OFFCURVE",
"103 369 OFFCURVE",
"103 389 CURVE SMOOTH",
"103 432 OFFCURVE",
"97 467 OFFCURVE",
"61 467 CURVE SMOOTH",
"57 467 OFFCURVE",
"54 467 OFFCURVE",
"50 466 CURVE",
"52 448 LINE",
"63 450 OFFCURVE",
"71 452 OFFCURVE",
"77 452 CURVE SMOOTH",
"94 452 OFFCURVE",
"92 439 OFFCURVE",
"92 396 CURVE",
"47 339 OFFCURVE",
"47 317 OFFCURVE",
"47 265 CURVE SMOOTH",
"47 248 LINE SMOOTH",
"47 218 OFFCURVE",
"60 200 OFFCURVE",
"72 200 CURVE SMOOTH",
"82 200 OFFCURVE",
"93 208 OFFCURVE",
"98 229 CURVE",
"93 238 LINE",
"93 214 OFFCURVE",
"102 200 OFFCURVE",
"116 200 CURVE SMOOTH",
"131 200 OFFCURVE",
"137 217 OFFCURVE",
"137 247 CURVE SMOOTH",
"137 416 LINE SMOOTH",
"137 479 OFFCURVE",
"107 506 OFFCURVE",
"76 506 CURVE SMOOTH",
"46 506 OFFCURVE",
"15 479 OFFCURVE",
"15 416 CURVE SMOOTH",
"15 241 LINE SMOOTH",
"15 181 OFFCURVE",
"44 151 OFFCURVE",
"76 151 CURVE SMOOTH"
);
},
{
closed = 1;
nodes = (
"58 269 LINE SMOOTH",
"58 328 OFFCURVE",
"66 342 OFFCURVE",
"92 379 CURVE",
"92 254 LINE SMOOTH",
"92 226 OFFCURVE",
"83 212 OFFCURVE",
"74 212 CURVE SMOOTH",
"66 212 OFFCURVE",
"58 225 OFFCURVE",
"58 251 CURVE SMOOTH"
);
}
);
userData = {
com.hugojourdan.ColorFlow = {
"0" = 0;
"1" = 0;
"10" = 0;
"11" = 0;
"2" = 0;
"3" = 0;
"4" = 0;
"5" = 0;
"6" = 0;
"7" = 0;
"8" = 0;
"9" = 0;
};
};
width = 152;
}
);
leftKerningGroup = at;
unicode = 0040;
},
{
glyphname = ampersand;
lastChange = "2024-01-24 20:30:54 +0000";
layers = (
{
background = {
paths = (
{
closed = 1;
nodes = (
"233 40 LINE",
"214 36 OFFCURVE",
"201 34 OFFCURVE",
"192 34 CURVE SMOOTH",
"168 34 OFFCURVE",
"174 54 OFFCURVE",
"164 130 CURVE SMOOTH",
"116 485 LINE SMOOTH",
"100 602 OFFCURVE",
"73 570 OFFCURVE",
"73 633 CURVE SMOOTH",
"73 640 LINE",
"163 640 LINE",
"103 680 LINE",
"63 680 LINE",
"63 620 OFFCURVE",
"66 557 OFFCURVE",
"77 485 CURVE SMOOTH",
"130 128 LINE SMOOTH",
"139 65 OFFCURVE",
"198 -10 OFFCURVE",
"233 -10 CURVE"
);
},
{
closed = 1;
nodes = (
"89 0 LINE",
"119 0 OFFCURVE",
"144 14 OFFCURVE",
"155 67 CURVE",
"116 225 LINE",
"125 162 LINE SMOOTH",
"132 116 OFFCURVE",
"137 83 OFFCURVE",
"137 65 CURVE SMOOTH",
"137 29 OFFCURVE",
"117 10 OFFCURVE",
"97 10 CURVE",
"72 10 LINE",
"72 168 LINE",
"62 178 LINE",
"62 0 LINE"
);
},
{
closed = 1;
nodes = (
"72 0 LINE",
"72 287 LINE SMOOTH",
"72 340 OFFCURVE",
"87 397 OFFCURVE",
"101 428 CURVE",
"93 437 LINE",
"68 366 LINE SMOOTH",
"48 309 OFFCURVE",
"32 277 OFFCURVE",
"32 226 CURVE SMOOTH",
"32 0 LINE"
);
},
{
closed = 1;
nodes = (
"168 567 LINE SMOOTH",
"186 611 OFFCURVE",
"188 630 OFFCURVE",
"188 680 CURVE",
"79 680 LINE",
"98 640 LINE",
"174 640 LINE",
"174 633 LINE SMOOTH",
"174 610 OFFCURVE",
"174 605 OFFCURVE",
"150 548 CURVE SMOOTH",
"89 403 LINE",
"96 391 LINE"
);
}
);
};
guideLines = (
{
angle = 90;
position = "{208, 500}";
}
);
layerId = "03715FCC-FE87-43AF-962B-9C8D97F38189";
paths = (
{
closed = 1;
nodes = (
"233 40 LINE",
"214 36 OFFCURVE",
"201 34 OFFCURVE",
"192 34 CURVE SMOOTH",
"168 34 OFFCURVE",
"174 54 OFFCURVE",
"164 130 CURVE SMOOTH",
"116 485 LINE SMOOTH",
"100 602 OFFCURVE",
"73 570 OFFCURVE",
"73 633 CURVE SMOOTH",
"73 640 LINE",
"163 640 LINE",
"103 680 LINE",
"63 680 LINE",
"63 620 OFFCURVE",
"66 557 OFFCURVE",
"77 485 CURVE SMOOTH",
"130 128 LINE SMOOTH",
"139 65 OFFCURVE",
"198 -10 OFFCURVE",
"233 -10 CURVE"
);
},
{
closed = 1;
nodes = (
"89 0 LINE",
"119 0 OFFCURVE",
"144 14 OFFCURVE",
"155 67 CURVE",
"116 225 LINE",
"125 162 LINE SMOOTH",
"132 116 OFFCURVE",
"137 83 OFFCURVE",
"137 65 CURVE SMOOTH",
"137 29 OFFCURVE",
"117 10 OFFCURVE",
"97 10 CURVE",
"72 10 LINE",
"72 168 LINE",
"62 178 LINE",
"62 0 LINE"
);
},
{
closed = 1;
nodes = (
"72 0 LINE",
"72 287 LINE SMOOTH",
"72 340 OFFCURVE",
"87 397 OFFCURVE",
"101 428 CURVE",
"93 437 LINE",
"68 366 LINE SMOOTH",
"48 309 OFFCURVE",
"32 277 OFFCURVE",
"32 226 CURVE SMOOTH",
"32 0 LINE"
);
},
{
closed = 1;
nodes = (
"168 567 LINE SMOOTH",
"186 611 OFFCURVE",
"188 630 OFFCURVE",
"188 680 CURVE",
"79 680 LINE",
"98 640 LINE",
"174 640 LINE",
"174 633 LINE SMOOTH",
"174 610 OFFCURVE",
"174 605 OFFCURVE",
"150 548 CURVE SMOOTH",
"89 403 LINE",
"96 391 LINE"
);
}
);
userData = {
com.hugojourdan.ColorFlow = {
"0" = 0;
"1" = 0;
"10" = 0;
"11" = 0;
"2" = 0;
"3" = 0;
"4" = 0;
"5" = 0;
"6" = 0;
"7" = 0;
"8" = 0;
"9" = 0;
};
};
width = 233;
}
);
leftMetricsKey = "=H+10";
unicode = 0026;
},
{
glyphname = paragraph;
lastChange = "2024-01-24 18:56:59 +0000";
layers = (
{
layerId = "03715FCC-FE87-43AF-962B-9C8D97F38189";
paths = (
{
closed = 1;
nodes = (
"119 -80 LINE",
"119 670 LINE",
"134 670 LINE",
"134 -80 LINE",
"144 -80 LINE",
"144 680 LINE",
"92 680 LINE SMOOTH",
"52 680 OFFCURVE",
"20 655 OFFCURVE",
"20 591 CURVE SMOOTH",
"20 357 LINE SMOOTH",
"20 284 OFFCURVE",
"52 193 OFFCURVE",
"102 193 CURVE",
"109 193 LINE",
"109 -80 LINE"
);
}
);
userData = {
com.hugojourdan.ColorFlow = {
"0" = 0;
"1" = 0;
"10" = 0;
"11" = 0;
"2" = 0;
"3" = 0;
"4" = 0;
"5" = 0;
"6" = 0;
"7" = 0;
"8" = 0;
"9" = 0;
};
};
width = 166;
}
);
rightMetricsKey = H;
unicode = 00B6;
},
